<?xml version="1.0" encoding="UTF-8" standalone="no"?>
<!DOCTYPE svg PUBLIC "-//W3C//DTD SVG 1.1//EN"
 "http://www.w3.org/Graphics/SVG/1.1/DTD/svg11.dtd">
<!-- Generated by graphviz version 12.1.2 (20240928.0832)
 -->
<!-- Title: public.module_tools Pages: 1 -->
<svg width="1012pt" height="633pt"
 viewBox="0.00 0.00 1011.93 632.80" xmlns="http://www.w3.org/2000/svg" xmlns:xlink="http://www.w3.org/1999/xlink">
<g id="graph0" class="graph" transform="scale(1 1) rotate(0) translate(4 628.8)">
<title>public.module_tools</title>
<polygon fill="white" stroke="none" points="-4,4 -4,-628.8 1007.93,-628.8 1007.93,4 -4,4"/>
<!-- public.module_tools -->
<g id="node1" class="node">
<title>public.module_tools</title>
<polygon fill="#efefef" stroke="none" points="375.65,-543 375.65,-578.6 661.63,-578.6 661.63,-543 375.65,-543"/>
<polygon fill="none" stroke="black" points="375.65,-543 375.65,-578.6 661.63,-578.6 661.63,-543 375.65,-543"/>
<text text-anchor="start" x="382.65" y="-556.4" font-family="Arial Bold" font-size="18.00">public.module_tools</text>
<text text-anchor="start" x="530.14" y="-556.4" font-family="Arial" font-size="14.00">    </text>
<text text-anchor="start" x="561.26" y="-556.4" font-family="Arial" font-size="14.00" fill="#666666">[BASE TABLE]</text>
<polygon fill="none" stroke="black" points="375.65,-512.2 375.65,-543 661.63,-543 661.63,-512.2 375.65,-512.2"/>
<text text-anchor="start" x="382.65" y="-524.4" font-family="Arial" font-size="14.00">id </text>
<text text-anchor="start" x="397.44" y="-524.4" font-family="Arial" font-size="14.00" fill="#666666">[uuid]</text>
<polygon fill="none" stroke="black" points="375.65,-481.4 375.65,-512.2 661.63,-512.2 661.63,-481.4 375.65,-481.4"/>
<text text-anchor="start" x="382.65" y="-493.6" font-family="Arial" font-size="14.00">module_id </text>
<text text-anchor="start" x="451.14" y="-493.6" font-family="Arial" font-size="14.00" fill="#666666">[uuid]</text>
<polygon fill="none" stroke="black" points="375.65,-450.6 375.65,-481.4 661.63,-481.4 661.63,-450.6 375.65,-450.6"/>
<text text-anchor="start" x="382.65" y="-462.8" font-family="Arial" font-size="14.00">tool_id </text>
<text text-anchor="start" x="427.79" y="-462.8" font-family="Arial" font-size="14.00" fill="#666666">[uuid]</text>
<polygon fill="none" stroke="black" points="375.65,-419.8 375.65,-450.6 661.63,-450.6 661.63,-419.8 375.65,-419.8"/>
<text text-anchor="start" x="382.65" y="-432" font-family="Arial" font-size="14.00">created_at </text>
<text text-anchor="start" x="452.7" y="-432" font-family="Arial" font-size="14.00" fill="#666666">[timestamp with time zone]</text>
<polygon fill="none" stroke="black" stroke-width="3" points="374.15,-418.3 374.15,-580.1 663.13,-580.1 663.13,-418.3 374.15,-418.3"/>
</g>
<!-- public.modules -->
<g id="node2" class="node">
<title>public.modules</title>
<polygon fill="#efefef" stroke="none" points="212.8,-258.8 212.8,-294.4 466.48,-294.4 466.48,-258.8 212.8,-258.8"/>
<polygon fill="none" stroke="black" points="212.8,-258.8 212.8,-294.4 466.48,-294.4 466.48,-258.8 212.8,-258.8"/>
<text text-anchor="start" x="222.15" y="-272.2" font-family="Arial Bold" font-size="18.00">public.modules</text>
<text text-anchor="start" x="332.64" y="-272.2" font-family="Arial" font-size="14.00">    </text>
<text text-anchor="start" x="363.75" y="-272.2" font-family="Arial" font-size="14.00" fill="#666666">[BASE TABLE]</text>
<polygon fill="none" stroke="black" points="212.8,-228 212.8,-258.8 466.48,-258.8 466.48,-228 212.8,-228"/>
<text text-anchor="start" x="219.8" y="-240.2" font-family="Arial" font-size="14.00">id </text>
<text text-anchor="start" x="234.58" y="-240.2" font-family="Arial" font-size="14.00" fill="#666666">[uuid]</text>
<polygon fill="none" stroke="black" points="212.8,-197.2 212.8,-228 466.48,-228 466.48,-197.2 212.8,-197.2"/>
<text text-anchor="start" x="219.8" y="-209.4" font-family="Arial" font-size="14.00">name </text>
<text text-anchor="start" x="258.71" y="-209.4" font-family="Arial" font-size="14.00" fill="#666666">[varchar(255)]</text>
<polygon fill="none" stroke="black" points="212.8,-166.4 212.8,-197.2 466.48,-197.2 466.48,-166.4 212.8,-166.4"/>
<text text-anchor="start" x="219.8" y="-178.6" font-family="Arial" font-size="14.00">description </text>
<text text-anchor="start" x="291.39" y="-178.6" font-family="Arial" font-size="14.00" fill="#666666">[text]</text>
<polygon fill="none" stroke="black" points="212.8,-135.6 212.8,-166.4 466.48,-166.4 466.48,-135.6 212.8,-135.6"/>
<text text-anchor="start" x="219.8" y="-147.8" font-family="Arial" font-size="14.00">is_active </text>
<text text-anchor="start" x="278.16" y="-147.8" font-family="Arial" font-size="14.00" fill="#666666">[boolean]</text>
<polygon fill="none" stroke="black" points="212.8,-104.8 212.8,-135.6 466.48,-135.6 466.48,-104.8 212.8,-104.8"/>
<text text-anchor="start" x="219.8" y="-117" font-family="Arial" font-size="14.00">created_at </text>
<text text-anchor="start" x="289.85" y="-117" font-family="Arial" font-size="14.00" fill="#666666">[timestamp with time zone]</text>
<polygon fill="none" stroke="black" points="212.8,-74 212.8,-104.8 466.48,-104.8 466.48,-74 212.8,-74"/>
<text text-anchor="start" x="219.8" y="-86.2" font-family="Arial" font-size="14.00">updated_at </text>
<text text-anchor="start" x="293.76" y="-86.2" font-family="Arial" font-size="14.00" fill="#666666">[timestamp with time zone]</text>
<polygon fill="none" stroke="black" points="212.8,-43.2 212.8,-74 466.48,-74 466.48,-43.2 212.8,-43.2"/>
<text text-anchor="start" x="219.8" y="-55.4" font-family="Arial" font-size="14.00">slug </text>
<text text-anchor="start" x="249.37" y="-55.4" font-family="Arial" font-size="14.00" fill="#666666">[varchar(255)]</text>
</g>
<!-- public.module_tools&#45;&gt;public.modules -->
<g id="edge1" class="edge">
<title>public.module_tools:module_id&#45;&gt;public.modules:id</title>
<path fill="none" stroke="black" d="M364.51,-495.74C323.31,-486.29 346.81,-415.68 375.65,-373.6 400.2,-337.78 441.89,-373.39 466.48,-337.6 490.19,-303.09 509.35,-243.4 467.48,-243.4"/>
<polygon fill="black" stroke="black" points="364.37,-495.73 373.85,-501.24 369.68,-496.28 373.98,-496.73 373.98,-496.73 373.98,-496.73 369.68,-496.28 374.78,-492.29 364.37,-495.73"/>
<text text-anchor="start" x="7" y="-506.8" font-family="Arial" font-size="10.00">FOREIGN KEY (module_id) REFERENCES modules(id) ON DELETE CASCADE</text>
</g>
<!-- public.tools -->
<g id="node3" class="node">
<title>public.tools</title>
<polygon fill="#efefef" stroke="none" points="570.8,-258.8 570.8,-294.4 824.48,-294.4 824.48,-258.8 570.8,-258.8"/>
<polygon fill="none" stroke="black" points="570.8,-258.8 570.8,-294.4 824.48,-294.4 824.48,-258.8 570.8,-258.8"/>
<text text-anchor="start" x="593.15" y="-272.2" font-family="Arial Bold" font-size="18.00">public.tools</text>
<text text-anchor="start" x="677.64" y="-272.2" font-family="Arial" font-size="14.00">    </text>
<text text-anchor="start" x="708.76" y="-272.2" font-family="Arial" font-size="14.00" fill="#666666">[BASE TABLE]</text>
<polygon fill="none" stroke="black" points="570.8,-228 570.8,-258.8 824.48,-258.8 824.48,-228 570.8,-228"/>
<text text-anchor="start" x="577.8" y="-240.2" font-family="Arial" font-size="14.00">id </text>
<text text-anchor="start" x="592.58" y="-240.2" font-family="Arial" font-size="14.00" fill="#666666">[uuid]</text>
<polygon fill="none" stroke="black" points="570.8,-197.2 570.8,-228 824.48,-228 824.48,-197.2 570.8,-197.2"/>
<text text-anchor="start" x="577.8" y="-209.4" font-family="Arial" font-size="14.00">name </text>
<text text-anchor="start" x="616.71" y="-209.4" font-family="Arial" font-size="14.00" fill="#666666">[varchar(255)]</text>
<polygon fill="none" stroke="black" points="570.8,-166.4 570.8,-197.2 824.48,-197.2 824.48,-166.4 570.8,-166.4"/>
<text text-anchor="start" x="577.8" y="-178.6" font-family="Arial" font-size="14.00">description </text>
<text text-anchor="start" x="649.39" y="-178.6" font-family="Arial" font-size="14.00" fill="#666666">[text]</text>
<polygon fill="none" stroke="black" points="570.8,-135.6 570.8,-166.4 824.48,-166.4 824.48,-135.6 570.8,-135.6"/>
<text text-anchor="start" x="577.8" y="-147.8" font-family="Arial" font-size="14.00">is_active </text>
<text text-anchor="start" x="636.16" y="-147.8" font-family="Arial" font-size="14.00" fill="#666666">[boolean]</text>
<polygon fill="none" stroke="black" points="570.8,-104.8 570.8,-135.6 824.48,-135.6 824.48,-104.8 570.8,-104.8"/>
<text text-anchor="start" x="577.8" y="-117" font-family="Arial" font-size="14.00">created_at </text>
<text text-anchor="start" x="647.85" y="-117" font-family="Arial" font-size="14.00" fill="#666666">[timestamp with time zone]</text>
<polygon fill="none" stroke="black" points="570.8,-74 570.8,-104.8 824.48,-104.8 824.48,-74 570.8,-74"/>
<text text-anchor="start" x="577.8" y="-86.2" font-family="Arial" font-size="14.00">updated_at </text>
<text text-anchor="start" x="651.76" y="-86.2" font-family="Arial" font-size="14.00" fill="#666666">[timestamp with time zone]</text>
<polygon fill="none" stroke="black" points="570.8,-43.2 570.8,-74 824.48,-74 824.48,-43.2 570.8,-43.2"/>
<text text-anchor="start" x="577.8" y="-55.4" font-family="Arial" font-size="14.00">slug </text>
<text text-anchor="start" x="607.37" y="-55.4" font-family="Arial" font-size="14.00" fill="#666666">[varchar(255)]</text>
</g>
<!-- public.module_tools&#45;&gt;public.tools -->
<g id="edge2" class="edge">
<title>public.module_tools:tool_id&#45;&gt;public.tools:id</title>
<path fill="none" stroke="black" d="M672.65,-464.52C700.13,-455.24 682.71,-404.27 661.63,-373.6 637.03,-337.81 595.39,-373.39 570.8,-337.6 547.09,-303.09 527.93,-243.4 569.8,-243.4"/>
<polygon fill="black" stroke="black" points="672.85,-464.49 662.3,-461.5 667.57,-465.27 663.29,-465.9 663.29,-465.9 663.29,-465.9 667.57,-465.27 663.61,-470.4 672.85,-464.49"/>
<text text-anchor="start" x="669.63" y="-476" font-family="Arial" font-size="10.00">FOREIGN KEY (tool_id) REFERENCES tools(id) ON DELETE CASCADE</text>
</g>
</g>
</svg>
