<?xml version="1.0" encoding="UTF-8" standalone="no"?>
<!DOCTYPE svg PUBLIC "-//W3C//DTD SVG 1.1//EN"
 "http://www.w3.org/Graphics/SVG/1.1/DTD/svg11.dtd">
<!-- Generated by graphviz version 12.1.2 (20240928.0832)
 -->
<!-- Title: public.int_cesantias_payments Pages: 1 -->
<svg width="779pt" height="818pt"
 viewBox="0.00 0.00 778.80 817.60" xmlns="http://www.w3.org/2000/svg" xmlns:xlink="http://www.w3.org/1999/xlink">
<g id="graph0" class="graph" transform="scale(1 1) rotate(0) translate(4 813.6)">
<title>public.int_cesantias_payments</title>
<polygon fill="white" stroke="none" points="-4,4 -4,-813.6 774.8,-813.6 774.8,4 -4,4"/>
<!-- public.int_cesantias_payments -->
<g id="node1" class="node">
<title>public.int_cesantias_payments</title>
<polygon fill="#efefef" stroke="none" points="46.2,-727.8 46.2,-763.4 405.14,-763.4 405.14,-727.8 46.2,-727.8"/>
<polygon fill="none" stroke="black" points="46.2,-727.8 46.2,-763.4 405.14,-763.4 405.14,-727.8 46.2,-727.8"/>
<text text-anchor="start" x="53.2" y="-741.2" font-family="Arial Bold" font-size="18.00">public.int_cesantias_payments</text>
<text text-anchor="start" x="273.65" y="-741.2" font-family="Arial" font-size="14.00">    </text>
<text text-anchor="start" x="304.76" y="-741.2" font-family="Arial" font-size="14.00" fill="#666666">[BASE TABLE]</text>
<polygon fill="none" stroke="black" points="46.2,-697 46.2,-727.8 405.14,-727.8 405.14,-697 46.2,-697"/>
<text text-anchor="start" x="53.2" y="-709.2" font-family="Arial" font-size="14.00">id </text>
<text text-anchor="start" x="67.99" y="-709.2" font-family="Arial" font-size="14.00" fill="#666666">[uuid]</text>
<polygon fill="none" stroke="black" points="46.2,-666.2 46.2,-697 405.14,-697 405.14,-666.2 46.2,-666.2"/>
<text text-anchor="start" x="53.2" y="-678.4" font-family="Arial" font-size="14.00">tenant_id </text>
<text text-anchor="start" x="114.7" y="-678.4" font-family="Arial" font-size="14.00" fill="#666666">[uuid]</text>
<polygon fill="none" stroke="black" points="46.2,-635.4 46.2,-666.2 405.14,-666.2 405.14,-635.4 46.2,-635.4"/>
<text text-anchor="start" x="53.2" y="-647.6" font-family="Arial" font-size="14.00">tenant_member_id </text>
<text text-anchor="start" x="173.83" y="-647.6" font-family="Arial" font-size="14.00" fill="#666666">[uuid]</text>
<polygon fill="none" stroke="black" points="46.2,-604.6 46.2,-635.4 405.14,-635.4 405.14,-604.6 46.2,-604.6"/>
<text text-anchor="start" x="53.2" y="-616.8" font-family="Arial" font-size="14.00">anio </text>
<text text-anchor="start" x="83.56" y="-616.8" font-family="Arial" font-size="14.00" fill="#666666">[integer]</text>
<polygon fill="none" stroke="black" points="46.2,-573.8 46.2,-604.6 405.14,-604.6 405.14,-573.8 46.2,-573.8"/>
<text text-anchor="start" x="53.2" y="-586" font-family="Arial" font-size="14.00">cesantias_base </text>
<text text-anchor="start" x="154.38" y="-586" font-family="Arial" font-size="14.00" fill="#666666">[numeric(12,2)]</text>
<polygon fill="none" stroke="black" points="46.2,-543 46.2,-573.8 405.14,-573.8 405.14,-543 46.2,-543"/>
<text text-anchor="start" x="53.2" y="-555.2" font-family="Arial" font-size="14.00">int_cesantias_amount </text>
<text text-anchor="start" x="193.29" y="-555.2" font-family="Arial" font-size="14.00" fill="#666666">[numeric(12,2)]</text>
<polygon fill="none" stroke="black" points="46.2,-512.2 46.2,-543 405.14,-543 405.14,-512.2 46.2,-512.2"/>
<text text-anchor="start" x="53.2" y="-524.4" font-family="Arial" font-size="14.00">payment_method </text>
<text text-anchor="start" x="165.27" y="-524.4" font-family="Arial" font-size="14.00" fill="#666666">[varchar(50)]</text>
<polygon fill="none" stroke="black" points="46.2,-481.4 46.2,-512.2 405.14,-512.2 405.14,-481.4 46.2,-481.4"/>
<text text-anchor="start" x="53.2" y="-493.6" font-family="Arial" font-size="14.00">payment_date </text>
<text text-anchor="start" x="145.82" y="-493.6" font-family="Arial" font-size="14.00" fill="#666666">[timestamp with time zone]</text>
<polygon fill="none" stroke="black" points="46.2,-450.6 46.2,-481.4 405.14,-481.4 405.14,-450.6 46.2,-450.6"/>
<text text-anchor="start" x="53.2" y="-462.8" font-family="Arial" font-size="14.00">notes </text>
<text text-anchor="start" x="91.34" y="-462.8" font-family="Arial" font-size="14.00" fill="#666666">[text]</text>
<polygon fill="none" stroke="black" points="46.2,-419.8 46.2,-450.6 405.14,-450.6 405.14,-419.8 46.2,-419.8"/>
<text text-anchor="start" x="53.2" y="-432" font-family="Arial" font-size="14.00">created_at </text>
<text text-anchor="start" x="123.25" y="-432" font-family="Arial" font-size="14.00" fill="#666666">[timestamp with time zone]</text>
<polygon fill="none" stroke="black" stroke-width="3" points="44.7,-418.3 44.7,-764.9 406.64,-764.9 406.64,-418.3 44.7,-418.3"/>
</g>
<!-- public.tenants -->
<g id="node2" class="node">
<title>public.tenants</title>
<polygon fill="#efefef" stroke="none" points="98.02,-258.8 98.02,-294.4 353.31,-294.4 353.31,-258.8 98.02,-258.8"/>
<polygon fill="none" stroke="black" points="98.02,-258.8 98.02,-294.4 353.31,-294.4 353.31,-258.8 98.02,-258.8"/>
<text text-anchor="start" x="113.19" y="-272.2" font-family="Arial Bold" font-size="18.00">public.tenants</text>
<text text-anchor="start" x="213.66" y="-272.2" font-family="Arial" font-size="14.00">    </text>
<text text-anchor="start" x="244.78" y="-272.2" font-family="Arial" font-size="14.00" fill="#666666">[BASE TABLE]</text>
<polygon fill="none" stroke="black" points="98.02,-228 98.02,-258.8 353.31,-258.8 353.31,-228 98.02,-228"/>
<text text-anchor="start" x="105.02" y="-240.2" font-family="Arial" font-size="14.00">id </text>
<text text-anchor="start" x="119.81" y="-240.2" font-family="Arial" font-size="14.00" fill="#666666">[uuid]</text>
<polygon fill="none" stroke="black" points="98.02,-197.2 98.02,-228 353.31,-228 353.31,-197.2 98.02,-197.2"/>
<text text-anchor="start" x="105.02" y="-209.4" font-family="Arial" font-size="14.00">name </text>
<text text-anchor="start" x="143.93" y="-209.4" font-family="Arial" font-size="14.00" fill="#666666">[text]</text>
<polygon fill="none" stroke="black" points="98.02,-166.4 98.02,-197.2 353.31,-197.2 353.31,-166.4 98.02,-166.4"/>
<text text-anchor="start" x="105.02" y="-178.6" font-family="Arial" font-size="14.00">slug </text>
<text text-anchor="start" x="134.6" y="-178.6" font-family="Arial" font-size="14.00" fill="#666666">[text]</text>
<polygon fill="none" stroke="black" points="98.02,-135.6 98.02,-166.4 353.31,-166.4 353.31,-135.6 98.02,-135.6"/>
<text text-anchor="start" x="105.02" y="-147.8" font-family="Arial" font-size="14.00">created_at </text>
<text text-anchor="start" x="175.07" y="-147.8" font-family="Arial" font-size="14.00" fill="#666666">[timestamp with time zone]</text>
<polygon fill="none" stroke="black" points="98.02,-104.8 98.02,-135.6 353.31,-135.6 353.31,-104.8 98.02,-104.8"/>
<text text-anchor="start" x="105.02" y="-117" font-family="Arial" font-size="14.00">email </text>
<text text-anchor="start" x="142.37" y="-117" font-family="Arial" font-size="14.00" fill="#666666">[varchar(255)]</text>
<polygon fill="none" stroke="black" points="98.02,-74 98.02,-104.8 353.31,-104.8 353.31,-74 98.02,-74"/>
<text text-anchor="start" x="105.02" y="-86.2" font-family="Arial" font-size="14.00">electronic_invoicing_enabled </text>
<text text-anchor="start" x="288.71" y="-86.2" font-family="Arial" font-size="14.00" fill="#666666">[boolean]</text>
<polygon fill="none" stroke="black" points="98.02,-43.2 98.02,-74 353.31,-74 353.31,-43.2 98.02,-43.2"/>
<text text-anchor="start" x="105.02" y="-55.4" font-family="Arial" font-size="14.00">permissions_enforcement_mode </text>
<text text-anchor="start" x="312.02" y="-55.4" font-family="Arial" font-size="14.00" fill="#666666">[text]</text>
</g>
<!-- public.int_cesantias_payments&#45;&gt;public.tenants -->
<g id="edge1" class="edge">
<title>public.int_cesantias_payments:tenant_id&#45;&gt;public.tenants:id</title>
<path fill="none" stroke="black" d="M416.18,-679.93C500.39,-650.51 448.83,-243.4 354.31,-243.4"/>
<polygon fill="black" stroke="black" points="416.33,-679.9 405.73,-677.11 411.07,-680.78 406.8,-681.49 406.8,-681.49 406.8,-681.49 411.07,-680.78 407.21,-685.98 416.33,-679.9"/>
<text text-anchor="start" x="413.14" y="-691.6" font-family="Arial" font-size="10.00">FOREIGN KEY (tenant_id) REFERENCES tenants(id) ON DELETE CASCADE</text>
</g>
</g>
</svg>
