<?xml version="1.0" encoding="UTF-8" standalone="no"?>
<!DOCTYPE svg PUBLIC "-//W3C//DTD SVG 1.1//EN"
 "http://www.w3.org/Graphics/SVG/1.1/DTD/svg11.dtd">
<!-- Generated by graphviz version 12.1.2 (20240928.0832)
 -->
<!-- Title: public.otp_verifications Pages: 1 -->
<svg width="629pt" height="1126pt"
 viewBox="0.00 0.00 629.21 1125.60" xmlns="http://www.w3.org/2000/svg" xmlns:xlink="http://www.w3.org/1999/xlink">
<g id="graph0" class="graph" transform="scale(1 1) rotate(0) translate(4 1121.6)">
<title>public.otp_verifications</title>
<polygon fill="white" stroke="none" points="-4,4 -4,-1121.6 625.21,-1121.6 625.21,4 -4,4"/>
<!-- public.otp_verifications -->
<g id="node1" class="node">
<title>public.otp_verifications</title>
<polygon fill="#efefef" stroke="none" points="46.2,-1035.8 46.2,-1071.4 356.15,-1071.4 356.15,-1035.8 46.2,-1035.8"/>
<polygon fill="none" stroke="black" points="46.2,-1035.8 46.2,-1071.4 356.15,-1071.4 356.15,-1035.8 46.2,-1035.8"/>
<text text-anchor="start" x="53.2" y="-1049.2" font-family="Arial Bold" font-size="18.00">public.otp_verifications</text>
<text text-anchor="start" x="224.66" y="-1049.2" font-family="Arial" font-size="14.00">    </text>
<text text-anchor="start" x="255.77" y="-1049.2" font-family="Arial" font-size="14.00" fill="#666666">[BASE TABLE]</text>
<polygon fill="none" stroke="black" points="46.2,-1005 46.2,-1035.8 356.15,-1035.8 356.15,-1005 46.2,-1005"/>
<text text-anchor="start" x="53.2" y="-1017.2" font-family="Arial" font-size="14.00">id </text>
<text text-anchor="start" x="67.99" y="-1017.2" font-family="Arial" font-size="14.00" fill="#666666">[uuid]</text>
<polygon fill="none" stroke="black" points="46.2,-974.2 46.2,-1005 356.15,-1005 356.15,-974.2 46.2,-974.2"/>
<text text-anchor="start" x="53.2" y="-986.4" font-family="Arial" font-size="14.00">email </text>
<text text-anchor="start" x="90.54" y="-986.4" font-family="Arial" font-size="14.00" fill="#666666">[varchar]</text>
<polygon fill="none" stroke="black" points="46.2,-943.4 46.2,-974.2 356.15,-974.2 356.15,-943.4 46.2,-943.4"/>
<text text-anchor="start" x="53.2" y="-955.6" font-family="Arial" font-size="14.00">otp_code </text>
<text text-anchor="start" x="114.7" y="-955.6" font-family="Arial" font-size="14.00" fill="#666666">[varchar(6)]</text>
<polygon fill="none" stroke="black" points="46.2,-912.6 46.2,-943.4 356.15,-943.4 356.15,-912.6 46.2,-912.6"/>
<text text-anchor="start" x="53.2" y="-924.8" font-family="Arial" font-size="14.00">cart_id </text>
<text text-anchor="start" x="99.11" y="-924.8" font-family="Arial" font-size="14.00" fill="#666666">[uuid]</text>
<polygon fill="none" stroke="black" points="46.2,-881.8 46.2,-912.6 356.15,-912.6 356.15,-881.8 46.2,-881.8"/>
<text text-anchor="start" x="53.2" y="-894" font-family="Arial" font-size="14.00">is_verified </text>
<text text-anchor="start" x="120.12" y="-894" font-family="Arial" font-size="14.00" fill="#666666">[boolean]</text>
<polygon fill="none" stroke="black" points="46.2,-851 46.2,-881.8 356.15,-881.8 356.15,-851 46.2,-851"/>
<text text-anchor="start" x="53.2" y="-863.2" font-family="Arial" font-size="14.00">attempts </text>
<text text-anchor="start" x="110.78" y="-863.2" font-family="Arial" font-size="14.00" fill="#666666">[integer]</text>
<polygon fill="none" stroke="black" points="46.2,-820.2 46.2,-851 356.15,-851 356.15,-820.2 46.2,-820.2"/>
<text text-anchor="start" x="53.2" y="-832.4" font-family="Arial" font-size="14.00">max_attempts </text>
<text text-anchor="start" x="145.01" y="-832.4" font-family="Arial" font-size="14.00" fill="#666666">[integer]</text>
<polygon fill="none" stroke="black" points="46.2,-789.4 46.2,-820.2 356.15,-820.2 356.15,-789.4 46.2,-789.4"/>
<text text-anchor="start" x="53.2" y="-801.6" font-family="Arial" font-size="14.00">expires_at </text>
<text text-anchor="start" x="121.68" y="-801.6" font-family="Arial" font-size="14.00" fill="#666666">[timestamp with time zone]</text>
<polygon fill="none" stroke="black" points="46.2,-758.6 46.2,-789.4 356.15,-789.4 356.15,-758.6 46.2,-758.6"/>
<text text-anchor="start" x="53.2" y="-770.8" font-family="Arial" font-size="14.00">verified_at </text>
<text text-anchor="start" x="121.68" y="-770.8" font-family="Arial" font-size="14.00" fill="#666666">[timestamp with time zone]</text>
<polygon fill="none" stroke="black" points="46.2,-727.8 46.2,-758.6 356.15,-758.6 356.15,-727.8 46.2,-727.8"/>
<text text-anchor="start" x="53.2" y="-740" font-family="Arial" font-size="14.00">created_at </text>
<text text-anchor="start" x="123.25" y="-740" font-family="Arial" font-size="14.00" fill="#666666">[timestamp with time zone]</text>
<polygon fill="none" stroke="black" stroke-width="3" points="44.7,-726.3 44.7,-1072.9 357.65,-1072.9 357.65,-726.3 44.7,-726.3"/>
</g>
<!-- public.online_carts -->
<g id="node2" class="node">
<title>public.online_carts</title>
<polygon fill="#efefef" stroke="none" points="54.87,-566.8 54.87,-602.4 347.47,-602.4 347.47,-566.8 54.87,-566.8"/>
<polygon fill="none" stroke="black" points="54.87,-566.8 54.87,-602.4 347.47,-602.4 347.47,-566.8 54.87,-566.8"/>
<text text-anchor="start" x="70.2" y="-580.2" font-family="Arial Bold" font-size="18.00">public.online_carts</text>
<text text-anchor="start" x="207.66" y="-580.2" font-family="Arial" font-size="14.00">    </text>
<text text-anchor="start" x="238.78" y="-580.2" font-family="Arial" font-size="14.00" fill="#666666">[BASE TABLE]</text>
<polygon fill="none" stroke="black" points="54.87,-536 54.87,-566.8 347.47,-566.8 347.47,-536 54.87,-536"/>
<text text-anchor="start" x="61.87" y="-548.2" font-family="Arial" font-size="14.00">id </text>
<text text-anchor="start" x="76.66" y="-548.2" font-family="Arial" font-size="14.00" fill="#666666">[uuid]</text>
<polygon fill="none" stroke="black" points="54.87,-505.2 54.87,-536 347.47,-536 347.47,-505.2 54.87,-505.2"/>
<text text-anchor="start" x="61.87" y="-517.4" font-family="Arial" font-size="14.00">tenant_id </text>
<text text-anchor="start" x="123.37" y="-517.4" font-family="Arial" font-size="14.00" fill="#666666">[uuid]</text>
<polygon fill="none" stroke="black" points="54.87,-474.4 54.87,-505.2 347.47,-505.2 347.47,-474.4 54.87,-474.4"/>
<text text-anchor="start" x="61.87" y="-486.6" font-family="Arial" font-size="14.00">customer_id </text>
<text text-anchor="start" x="142.02" y="-486.6" font-family="Arial" font-size="14.00" fill="#666666">[uuid]</text>
<polygon fill="none" stroke="black" points="54.87,-443.6 54.87,-474.4 347.47,-474.4 347.47,-443.6 54.87,-443.6"/>
<text text-anchor="start" x="61.87" y="-455.8" font-family="Arial" font-size="14.00">session_id </text>
<text text-anchor="start" x="131.91" y="-455.8" font-family="Arial" font-size="14.00" fill="#666666">[varchar]</text>
<polygon fill="none" stroke="black" points="54.87,-412.8 54.87,-443.6 347.47,-443.6 347.47,-412.8 54.87,-412.8"/>
<text text-anchor="start" x="61.87" y="-425" font-family="Arial" font-size="14.00">order_type </text>
<text text-anchor="start" x="132.69" y="-425" font-family="Arial" font-size="14.00" fill="#666666">[varchar]</text>
<polygon fill="none" stroke="black" points="54.87,-382 54.87,-412.8 347.47,-412.8 347.47,-382 54.87,-382"/>
<text text-anchor="start" x="61.87" y="-394.2" font-family="Arial" font-size="14.00">delivery_address_id </text>
<text text-anchor="start" x="190.28" y="-394.2" font-family="Arial" font-size="14.00" fill="#666666">[uuid]</text>
<polygon fill="none" stroke="black" points="54.87,-351.2 54.87,-382 347.47,-382 347.47,-351.2 54.87,-351.2"/>
<text text-anchor="start" x="61.87" y="-363.4" font-family="Arial" font-size="14.00">scheduled_time </text>
<text text-anchor="start" x="163.82" y="-363.4" font-family="Arial" font-size="14.00" fill="#666666">[timestamp with time zone]</text>
<polygon fill="none" stroke="black" points="54.87,-320.4 54.87,-351.2 347.47,-351.2 347.47,-320.4 54.87,-320.4"/>
<text text-anchor="start" x="61.87" y="-332.6" font-family="Arial" font-size="14.00">delivery_instructions </text>
<text text-anchor="start" x="192.6" y="-332.6" font-family="Arial" font-size="14.00" fill="#666666">[text]</text>
<polygon fill="none" stroke="black" points="54.87,-289.6 54.87,-320.4 347.47,-320.4 347.47,-289.6 54.87,-289.6"/>
<text text-anchor="start" x="61.87" y="-301.8" font-family="Arial" font-size="14.00">pickup_pin </text>
<text text-anchor="start" x="132.7" y="-301.8" font-family="Arial" font-size="14.00" fill="#666666">[varchar(6)]</text>
<polygon fill="none" stroke="black" points="54.87,-258.8 54.87,-289.6 347.47,-289.6 347.47,-258.8 54.87,-258.8"/>
<text text-anchor="start" x="61.87" y="-271" font-family="Arial" font-size="14.00">pin_generated_at </text>
<text text-anchor="start" x="174.75" y="-271" font-family="Arial" font-size="14.00" fill="#666666">[timestamp with time zone]</text>
<polygon fill="none" stroke="black" points="54.87,-228 54.87,-258.8 347.47,-258.8 347.47,-228 54.87,-228"/>
<text text-anchor="start" x="61.87" y="-240.2" font-family="Arial" font-size="14.00">is_verified </text>
<text text-anchor="start" x="128.79" y="-240.2" font-family="Arial" font-size="14.00" fill="#666666">[boolean]</text>
<polygon fill="none" stroke="black" points="54.87,-197.2 54.87,-228 347.47,-228 347.47,-197.2 54.87,-197.2"/>
<text text-anchor="start" x="61.87" y="-209.4" font-family="Arial" font-size="14.00">verified_email </text>
<text text-anchor="start" x="152.14" y="-209.4" font-family="Arial" font-size="14.00" fill="#666666">[varchar]</text>
<polygon fill="none" stroke="black" points="54.87,-166.4 54.87,-197.2 347.47,-197.2 347.47,-166.4 54.87,-166.4"/>
<text text-anchor="start" x="61.87" y="-178.6" font-family="Arial" font-size="14.00">status </text>
<text text-anchor="start" x="103.12" y="-178.6" font-family="Arial" font-size="14.00" fill="#666666">[varchar]</text>
<polygon fill="none" stroke="black" points="54.87,-135.6 54.87,-166.4 347.47,-166.4 347.47,-135.6 54.87,-135.6"/>
<text text-anchor="start" x="61.87" y="-147.8" font-family="Arial" font-size="14.00">total_amount </text>
<text text-anchor="start" x="146.71" y="-147.8" font-family="Arial" font-size="14.00" fill="#666666">[numeric]</text>
<polygon fill="none" stroke="black" points="54.87,-104.8 54.87,-135.6 347.47,-135.6 347.47,-104.8 54.87,-104.8"/>
<text text-anchor="start" x="61.87" y="-117" font-family="Arial" font-size="14.00">created_at </text>
<text text-anchor="start" x="131.92" y="-117" font-family="Arial" font-size="14.00" fill="#666666">[timestamp with time zone]</text>
<polygon fill="none" stroke="black" points="54.87,-74 54.87,-104.8 347.47,-104.8 347.47,-74 54.87,-74"/>
<text text-anchor="start" x="61.87" y="-86.2" font-family="Arial" font-size="14.00">updated_at </text>
<text text-anchor="start" x="135.83" y="-86.2" font-family="Arial" font-size="14.00" fill="#666666">[timestamp with time zone]</text>
<polygon fill="none" stroke="black" points="54.87,-43.2 54.87,-74 347.47,-74 347.47,-43.2 54.87,-43.2"/>
<text text-anchor="start" x="61.87" y="-55.4" font-family="Arial" font-size="14.00">completed_at </text>
<text text-anchor="start" x="149.82" y="-55.4" font-family="Arial" font-size="14.00" fill="#666666">[timestamp with time zone]</text>
</g>
<!-- public.otp_verifications&#45;&gt;public.online_carts -->
<g id="edge1" class="edge">
<title>public.otp_verifications:cart_id&#45;&gt;public.online_carts:id</title>
<path fill="none" stroke="black" d="M366.98,-926.15C440.02,-897.74 428.75,-551.4 348.47,-551.4"/>
<polygon fill="black" stroke="black" points="367.3,-926.09 356.64,-923.52 362.06,-927.08 357.8,-927.88 357.8,-927.88 357.8,-927.88 362.06,-927.08 358.31,-932.36 367.3,-926.09"/>
<text text-anchor="start" x="364.15" y="-938" font-family="Arial" font-size="10.00">FOREIGN KEY (cart_id) REFERENCES online_carts(id)</text>
</g>
</g>
</svg>
