<?xml version="1.0" encoding="UTF-8" standalone="no"?>
<!DOCTYPE svg PUBLIC "-//W3C//DTD SVG 1.1//EN"
 "http://www.w3.org/Graphics/SVG/1.1/DTD/svg11.dtd">
<!-- Generated by graphviz version 12.1.2 (20240928.0832)
 -->
<!-- Title: public.promoter_codes Pages: 1 -->
<svg width="1806pt" height="1530pt"
 viewBox="0.00 0.00 1805.68 1530.00" xmlns="http://www.w3.org/2000/svg" xmlns:xlink="http://www.w3.org/1999/xlink">
<g id="graph0" class="graph" transform="scale(1 1) rotate(0) translate(4 1526)">
<title>public.promoter_codes</title>
<polygon fill="white" stroke="none" points="-4,4 -4,-1526 1801.68,-1526 1801.68,4 -4,4"/>
<!-- public.promoter_codes -->
<g id="node1" class="node">
<title>public.promoter_codes</title>
<polygon fill="#efefef" stroke="none" points="732.1,-666.2 732.1,-701.8 1036.04,-701.8 1036.04,-666.2 732.1,-666.2"/>
<polygon fill="none" stroke="black" points="732.1,-666.2 732.1,-701.8 1036.04,-701.8 1036.04,-666.2 732.1,-666.2"/>
<text text-anchor="start" x="739.1" y="-679.6" font-family="Arial Bold" font-size="18.00">public.promoter_codes</text>
<text text-anchor="start" x="904.55" y="-679.6" font-family="Arial" font-size="14.00">    </text>
<text text-anchor="start" x="935.67" y="-679.6" font-family="Arial" font-size="14.00" fill="#666666">[BASE TABLE]</text>
<polygon fill="none" stroke="black" points="732.1,-635.4 732.1,-666.2 1036.04,-666.2 1036.04,-635.4 732.1,-635.4"/>
<text text-anchor="start" x="739.1" y="-647.6" font-family="Arial" font-size="14.00">id </text>
<text text-anchor="start" x="753.89" y="-647.6" font-family="Arial" font-size="14.00" fill="#666666">[uuid]</text>
<polygon fill="none" stroke="black" points="732.1,-604.6 732.1,-635.4 1036.04,-635.4 1036.04,-604.6 732.1,-604.6"/>
<text text-anchor="start" x="739.1" y="-616.8" font-family="Arial" font-size="14.00">tenant_member_id </text>
<text text-anchor="start" x="859.73" y="-616.8" font-family="Arial" font-size="14.00" fill="#666666">[uuid]</text>
<polygon fill="none" stroke="black" points="732.1,-573.8 732.1,-604.6 1036.04,-604.6 1036.04,-573.8 732.1,-573.8"/>
<text text-anchor="start" x="739.1" y="-586" font-family="Arial" font-size="14.00">tenant_id </text>
<text text-anchor="start" x="800.6" y="-586" font-family="Arial" font-size="14.00" fill="#666666">[uuid]</text>
<polygon fill="none" stroke="black" points="732.1,-543 732.1,-573.8 1036.04,-573.8 1036.04,-543 732.1,-543"/>
<text text-anchor="start" x="739.1" y="-555.2" font-family="Arial" font-size="14.00">code </text>
<text text-anchor="start" x="773.35" y="-555.2" font-family="Arial" font-size="14.00" fill="#666666">[varchar(20)]</text>
<polygon fill="none" stroke="black" points="732.1,-512.2 732.1,-543 1036.04,-543 1036.04,-512.2 732.1,-512.2"/>
<text text-anchor="start" x="739.1" y="-524.4" font-family="Arial" font-size="14.00">commission_percentage </text>
<text text-anchor="start" x="894.73" y="-524.4" font-family="Arial" font-size="14.00" fill="#666666">[numeric]</text>
<polygon fill="none" stroke="black" points="732.1,-481.4 732.1,-512.2 1036.04,-512.2 1036.04,-481.4 732.1,-481.4"/>
<text text-anchor="start" x="739.1" y="-493.6" font-family="Arial" font-size="14.00">is_active </text>
<text text-anchor="start" x="797.46" y="-493.6" font-family="Arial" font-size="14.00" fill="#666666">[boolean]</text>
<polygon fill="none" stroke="black" points="732.1,-450.6 732.1,-481.4 1036.04,-481.4 1036.04,-450.6 732.1,-450.6"/>
<text text-anchor="start" x="739.1" y="-462.8" font-family="Arial" font-size="14.00">created_at </text>
<text text-anchor="start" x="809.15" y="-462.8" font-family="Arial" font-size="14.00" fill="#666666">[timestamp with time zone]</text>
<polygon fill="none" stroke="black" points="732.1,-419.8 732.1,-450.6 1036.04,-450.6 1036.04,-419.8 732.1,-419.8"/>
<text text-anchor="start" x="739.1" y="-432" font-family="Arial" font-size="14.00">updated_at </text>
<text text-anchor="start" x="813.06" y="-432" font-family="Arial" font-size="14.00" fill="#666666">[timestamp with time zone]</text>
<polygon fill="none" stroke="black" stroke-width="3" points="730.6,-418.3 730.6,-703.3 1037.54,-703.3 1037.54,-418.3 730.6,-418.3"/>
</g>
<!-- public.tenant_members -->
<g id="node6" class="node">
<title>public.tenant_members</title>
<polygon fill="#efefef" stroke="none" points="537.6,-243.4 537.6,-279 844.54,-279 844.54,-243.4 537.6,-243.4"/>
<polygon fill="none" stroke="black" points="537.6,-243.4 537.6,-279 844.54,-279 844.54,-243.4 537.6,-243.4"/>
<text text-anchor="start" x="544.6" y="-256.8" font-family="Arial Bold" font-size="18.00">public.tenant_members</text>
<text text-anchor="start" x="713.05" y="-256.8" font-family="Arial" font-size="14.00">    </text>
<text text-anchor="start" x="744.17" y="-256.8" font-family="Arial" font-size="14.00" fill="#666666">[BASE TABLE]</text>
<polygon fill="none" stroke="black" points="537.6,-212.6 537.6,-243.4 844.54,-243.4 844.54,-212.6 537.6,-212.6"/>
<text text-anchor="start" x="544.6" y="-224.8" font-family="Arial" font-size="14.00">id </text>
<text text-anchor="start" x="559.39" y="-224.8" font-family="Arial" font-size="14.00" fill="#666666">[uuid]</text>
<polygon fill="none" stroke="black" points="537.6,-181.8 537.6,-212.6 844.54,-212.6 844.54,-181.8 537.6,-181.8"/>
<text text-anchor="start" x="544.6" y="-194" font-family="Arial" font-size="14.00">tenant_id </text>
<text text-anchor="start" x="606.1" y="-194" font-family="Arial" font-size="14.00" fill="#666666">[uuid]</text>
<polygon fill="none" stroke="black" points="537.6,-151 537.6,-181.8 844.54,-181.8 844.54,-151 537.6,-151"/>
<text text-anchor="start" x="544.6" y="-163.2" font-family="Arial" font-size="14.00">user_id </text>
<text text-anchor="start" x="594.41" y="-163.2" font-family="Arial" font-size="14.00" fill="#666666">[uuid]</text>
<polygon fill="none" stroke="black" points="537.6,-120.2 537.6,-151 844.54,-151 844.54,-120.2 537.6,-120.2"/>
<text text-anchor="start" x="544.6" y="-132.4" font-family="Arial" font-size="14.00">role </text>
<text text-anchor="start" x="571.84" y="-132.4" font-family="Arial" font-size="14.00" fill="#666666">[text]</text>
<polygon fill="none" stroke="black" points="537.6,-89.4 537.6,-120.2 844.54,-120.2 844.54,-89.4 537.6,-89.4"/>
<text text-anchor="start" x="544.6" y="-101.6" font-family="Arial" font-size="14.00">is_active </text>
<text text-anchor="start" x="602.96" y="-101.6" font-family="Arial" font-size="14.00" fill="#666666">[boolean]</text>
<polygon fill="none" stroke="black" points="537.6,-58.6 537.6,-89.4 844.54,-89.4 844.54,-58.6 537.6,-58.6"/>
<text text-anchor="start" x="544.6" y="-70.8" font-family="Arial" font-size="14.00">terminated_at </text>
<text text-anchor="start" x="634.1" y="-70.8" font-family="Arial" font-size="14.00" fill="#666666">[timestamp with time zone]</text>
</g>
<!-- public.promoter_codes&#45;&gt;public.tenant_members -->
<g id="edge5" class="edge">
<title>public.promoter_codes:tenant_member_id&#45;&gt;public.tenant_members:id</title>
<path fill="none" stroke="black" d="M720.72,-619.5C624.99,-609.82 674.7,-462.56 732.1,-373.6 761.89,-327.43 814.6,-368.27 844.54,-322.2 867.36,-287.09 887.41,-228 845.54,-228"/>
<polygon fill="black" stroke="black" points="720.78,-619.5 730.55,-624.48 726.11,-619.76 730.43,-619.97 730.43,-619.97 730.43,-619.97 726.11,-619.76 730.98,-615.49 720.78,-619.5"/>
<text text-anchor="start" x="288.97" y="-630" font-family="Arial" font-size="10.00">FOREIGN KEY (tenant_member_id) REFERENCES tenant_members(id) ON DELETE CASCADE</text>
</g>
<!-- public.tenants -->
<g id="node7" class="node">
<title>public.tenants</title>
<polygon fill="#efefef" stroke="none" points="949.43,-258.8 949.43,-294.4 1204.72,-294.4 1204.72,-258.8 949.43,-258.8"/>
<polygon fill="none" stroke="black" points="949.43,-258.8 949.43,-294.4 1204.72,-294.4 1204.72,-258.8 949.43,-258.8"/>
<text text-anchor="start" x="964.59" y="-272.2" font-family="Arial Bold" font-size="18.00">public.tenants</text>
<text text-anchor="start" x="1065.07" y="-272.2" font-family="Arial" font-size="14.00">    </text>
<text text-anchor="start" x="1096.18" y="-272.2" font-family="Arial" font-size="14.00" fill="#666666">[BASE TABLE]</text>
<polygon fill="none" stroke="black" points="949.43,-228 949.43,-258.8 1204.72,-258.8 1204.72,-228 949.43,-228"/>
<text text-anchor="start" x="956.43" y="-240.2" font-family="Arial" font-size="14.00">id </text>
<text text-anchor="start" x="971.21" y="-240.2" font-family="Arial" font-size="14.00" fill="#666666">[uuid]</text>
<polygon fill="none" stroke="black" points="949.43,-197.2 949.43,-228 1204.72,-228 1204.72,-197.2 949.43,-197.2"/>
<text text-anchor="start" x="956.43" y="-209.4" font-family="Arial" font-size="14.00">name </text>
<text text-anchor="start" x="995.34" y="-209.4" font-family="Arial" font-size="14.00" fill="#666666">[text]</text>
<polygon fill="none" stroke="black" points="949.43,-166.4 949.43,-197.2 1204.72,-197.2 1204.72,-166.4 949.43,-166.4"/>
<text text-anchor="start" x="956.43" y="-178.6" font-family="Arial" font-size="14.00">slug </text>
<text text-anchor="start" x="986" y="-178.6" font-family="Arial" font-size="14.00" fill="#666666">[text]</text>
<polygon fill="none" stroke="black" points="949.43,-135.6 949.43,-166.4 1204.72,-166.4 1204.72,-135.6 949.43,-135.6"/>
<text text-anchor="start" x="956.43" y="-147.8" font-family="Arial" font-size="14.00">created_at </text>
<text text-anchor="start" x="1026.48" y="-147.8" font-family="Arial" font-size="14.00" fill="#666666">[timestamp with time zone]</text>
<polygon fill="none" stroke="black" points="949.43,-104.8 949.43,-135.6 1204.72,-135.6 1204.72,-104.8 949.43,-104.8"/>
<text text-anchor="start" x="956.43" y="-117" font-family="Arial" font-size="14.00">email </text>
<text text-anchor="start" x="993.77" y="-117" font-family="Arial" font-size="14.00" fill="#666666">[varchar(255)]</text>
<polygon fill="none" stroke="black" points="949.43,-74 949.43,-104.8 1204.72,-104.8 1204.72,-74 949.43,-74"/>
<text text-anchor="start" x="956.43" y="-86.2" font-family="Arial" font-size="14.00">electronic_invoicing_enabled </text>
<text text-anchor="start" x="1140.11" y="-86.2" font-family="Arial" font-size="14.00" fill="#666666">[boolean]</text>
<polygon fill="none" stroke="black" points="949.43,-43.2 949.43,-74 1204.72,-74 1204.72,-43.2 949.43,-43.2"/>
<text text-anchor="start" x="956.43" y="-55.4" font-family="Arial" font-size="14.00">permissions_enforcement_mode </text>
<text text-anchor="start" x="1163.42" y="-55.4" font-family="Arial" font-size="14.00" fill="#666666">[text]</text>
</g>
<!-- public.promoter_codes&#45;&gt;public.tenants -->
<g id="edge6" class="edge">
<title>public.promoter_codes:tenant_id&#45;&gt;public.tenants:id</title>
<path fill="none" stroke="black" d="M1047.39,-588.62C1129.54,-578.92 1087.38,-450.15 1036.04,-373.6 1012.82,-338.98 972.75,-372.15 949.43,-337.6 926,-302.9 906.56,-243.4 948.43,-243.4"/>
<polygon fill="black" stroke="black" points="1047.36,-588.62 1037.13,-584.69 1042.04,-588.92 1037.71,-589.16 1037.71,-589.16 1037.71,-589.16 1042.04,-588.92 1037.63,-593.67 1047.36,-588.62"/>
<text text-anchor="start" x="1044.04" y="-599.2" font-family="Arial" font-size="10.00">FOREIGN KEY (tenant_id) REFERENCES tenants(id) ON DELETE CASCADE</text>
</g>
<!-- public.reservations -->
<g id="node2" class="node">
<title>public.reservations</title>
<polygon fill="#efefef" stroke="none" points="154.12,-1273.8 154.12,-1309.4 442.02,-1309.4 442.02,-1273.8 154.12,-1273.8"/>
<polygon fill="none" stroke="black" points="154.12,-1273.8 154.12,-1309.4 442.02,-1309.4 442.02,-1273.8 154.12,-1273.8"/>
<text text-anchor="start" x="167.6" y="-1287.2" font-family="Arial Bold" font-size="18.00">public.reservations</text>
<text text-anchor="start" x="304.06" y="-1287.2" font-family="Arial" font-size="14.00">    </text>
<text text-anchor="start" x="335.17" y="-1287.2" font-family="Arial" font-size="14.00" fill="#666666">[BASE TABLE]</text>
<polygon fill="none" stroke="black" points="154.12,-1243 154.12,-1273.8 442.02,-1273.8 442.02,-1243 154.12,-1243"/>
<text text-anchor="start" x="161.12" y="-1255.2" font-family="Arial" font-size="14.00">id </text>
<text text-anchor="start" x="175.91" y="-1255.2" font-family="Arial" font-size="14.00" fill="#666666">[uuid]</text>
<polygon fill="none" stroke="black" points="154.12,-1212.2 154.12,-1243 442.02,-1243 442.02,-1212.2 154.12,-1212.2"/>
<text text-anchor="start" x="161.12" y="-1224.4" font-family="Arial" font-size="14.00">user_id </text>
<text text-anchor="start" x="210.93" y="-1224.4" font-family="Arial" font-size="14.00" fill="#666666">[uuid]</text>
<polygon fill="none" stroke="black" points="154.12,-1181.4 154.12,-1212.2 442.02,-1212.2 442.02,-1181.4 154.12,-1181.4"/>
<text text-anchor="start" x="161.12" y="-1193.6" font-family="Arial" font-size="14.00">reservation_date </text>
<text text-anchor="start" x="269.3" y="-1193.6" font-family="Arial" font-size="14.00" fill="#666666">[timestamp with time zone]</text>
<polygon fill="none" stroke="black" points="154.12,-1150.6 154.12,-1181.4 442.02,-1181.4 442.02,-1150.6 154.12,-1150.6"/>
<text text-anchor="start" x="161.12" y="-1162.8" font-family="Arial" font-size="14.00">start_date </text>
<text text-anchor="start" x="227.27" y="-1162.8" font-family="Arial" font-size="14.00" fill="#666666">[timestamp with time zone]</text>
<polygon fill="none" stroke="black" points="154.12,-1119.8 154.12,-1150.6 442.02,-1150.6 442.02,-1119.8 154.12,-1119.8"/>
<text text-anchor="start" x="161.12" y="-1132" font-family="Arial" font-size="14.00">end_date </text>
<text text-anchor="start" x="223.4" y="-1132" font-family="Arial" font-size="14.00" fill="#666666">[timestamp with time zone]</text>
<polygon fill="none" stroke="black" points="154.12,-1089 154.12,-1119.8 442.02,-1119.8 442.02,-1089 154.12,-1089"/>
<text text-anchor="start" x="161.12" y="-1101.2" font-family="Arial" font-size="14.00">extra_attributes </text>
<text text-anchor="start" x="261.51" y="-1101.2" font-family="Arial" font-size="14.00" fill="#666666">[jsonb]</text>
<polygon fill="none" stroke="black" points="154.12,-1058.2 154.12,-1089 442.02,-1089 442.02,-1058.2 154.12,-1058.2"/>
<text text-anchor="start" x="161.12" y="-1070.4" font-family="Arial" font-size="14.00">status </text>
<text text-anchor="start" x="202.36" y="-1070.4" font-family="Arial" font-size="14.00" fill="#666666">[varchar(50)]</text>
<polygon fill="none" stroke="black" points="154.12,-1027.4 154.12,-1058.2 442.02,-1058.2 442.02,-1027.4 154.12,-1027.4"/>
<text text-anchor="start" x="161.12" y="-1039.6" font-family="Arial" font-size="14.00">updated_at </text>
<text text-anchor="start" x="235.08" y="-1039.6" font-family="Arial" font-size="14.00" fill="#666666">[timestamp with time zone]</text>
<polygon fill="none" stroke="black" points="154.12,-996.6 154.12,-1027.4 442.02,-1027.4 442.02,-996.6 154.12,-996.6"/>
<text text-anchor="start" x="161.12" y="-1008.8" font-family="Arial" font-size="14.00">promoter_code_id </text>
<text text-anchor="start" x="277.86" y="-1008.8" font-family="Arial" font-size="14.00" fill="#666666">[uuid]</text>
</g>
<!-- public.reservations&#45;&gt;public.promoter_codes -->
<g id="edge1" class="edge">
<title>public.reservations:promoter_code_id&#45;&gt;public.promoter_codes:id</title>
<path fill="none" stroke="black" d="M453.44,-1011.44C538.8,-1001.62 434.34,-864.31 494.07,-784 566.19,-687.04 610.26,-650.8 731.1,-650.8"/>
<polygon fill="black" stroke="black" points="453.34,-1011.45 443.12,-1007.49 448.02,-1011.73 443.69,-1011.96 443.69,-1011.96 443.69,-1011.96 448.02,-1011.73 443.6,-1016.48 453.34,-1011.45"/>
<text text-anchor="start" x="7" y="-1022" font-family="Arial" font-size="10.00">FOREIGN KEY (promoter_code_id) REFERENCES promoter_codes(id) ON DELETE SET NULL</text>
</g>
<!-- public.ticket_carts -->
<g id="node3" class="node">
<title>public.ticket_carts</title>
<polygon fill="#efefef" stroke="none" points="546.6,-1289.2 546.6,-1324.8 817.54,-1324.8 817.54,-1289.2 546.6,-1289.2"/>
<polygon fill="none" stroke="black" points="546.6,-1289.2 546.6,-1324.8 817.54,-1324.8 817.54,-1289.2 546.6,-1289.2"/>
<text text-anchor="start" x="553.6" y="-1302.6" font-family="Arial Bold" font-size="18.00">public.ticket_carts</text>
<text text-anchor="start" x="686.05" y="-1302.6" font-family="Arial" font-size="14.00">    </text>
<text text-anchor="start" x="717.17" y="-1302.6" font-family="Arial" font-size="14.00" fill="#666666">[BASE TABLE]</text>
<polygon fill="none" stroke="black" points="546.6,-1258.4 546.6,-1289.2 817.54,-1289.2 817.54,-1258.4 546.6,-1258.4"/>
<text text-anchor="start" x="553.6" y="-1270.6" font-family="Arial" font-size="14.00">id </text>
<text text-anchor="start" x="568.39" y="-1270.6" font-family="Arial" font-size="14.00" fill="#666666">[uuid]</text>
<polygon fill="none" stroke="black" points="546.6,-1227.6 546.6,-1258.4 817.54,-1258.4 817.54,-1227.6 546.6,-1227.6"/>
<text text-anchor="start" x="553.6" y="-1239.8" font-family="Arial" font-size="14.00">tenant_id </text>
<text text-anchor="start" x="615.1" y="-1239.8" font-family="Arial" font-size="14.00" fill="#666666">[uuid]</text>
<polygon fill="none" stroke="black" points="546.6,-1196.8 546.6,-1227.6 817.54,-1227.6 817.54,-1196.8 546.6,-1196.8"/>
<text text-anchor="start" x="553.6" y="-1209" font-family="Arial" font-size="14.00">session_id </text>
<text text-anchor="start" x="623.64" y="-1209" font-family="Arial" font-size="14.00" fill="#666666">[varchar(255)]</text>
<polygon fill="none" stroke="black" points="546.6,-1166 546.6,-1196.8 817.54,-1196.8 817.54,-1166 546.6,-1166"/>
<text text-anchor="start" x="553.6" y="-1178.2" font-family="Arial" font-size="14.00">user_id </text>
<text text-anchor="start" x="603.41" y="-1178.2" font-family="Arial" font-size="14.00" fill="#666666">[uuid]</text>
<polygon fill="none" stroke="black" points="546.6,-1135.2 546.6,-1166 817.54,-1166 817.54,-1135.2 546.6,-1135.2"/>
<text text-anchor="start" x="553.6" y="-1147.4" font-family="Arial" font-size="14.00">cluster_id </text>
<text text-anchor="start" x="617.41" y="-1147.4" font-family="Arial" font-size="14.00" fill="#666666">[integer]</text>
<polygon fill="none" stroke="black" points="546.6,-1104.4 546.6,-1135.2 817.54,-1135.2 817.54,-1104.4 546.6,-1104.4"/>
<text text-anchor="start" x="553.6" y="-1116.6" font-family="Arial" font-size="14.00">status </text>
<text text-anchor="start" x="594.84" y="-1116.6" font-family="Arial" font-size="14.00" fill="#666666">[varchar(50)]</text>
<polygon fill="none" stroke="black" points="546.6,-1073.6 546.6,-1104.4 817.54,-1104.4 817.54,-1073.6 546.6,-1073.6"/>
<text text-anchor="start" x="553.6" y="-1085.8" font-family="Arial" font-size="14.00">expires_at </text>
<text text-anchor="start" x="622.08" y="-1085.8" font-family="Arial" font-size="14.00" fill="#666666">[timestamp with time zone]</text>
<polygon fill="none" stroke="black" points="546.6,-1042.8 546.6,-1073.6 817.54,-1073.6 817.54,-1042.8 546.6,-1042.8"/>
<text text-anchor="start" x="553.6" y="-1055" font-family="Arial" font-size="14.00">created_at </text>
<text text-anchor="start" x="623.65" y="-1055" font-family="Arial" font-size="14.00" fill="#666666">[timestamp with time zone]</text>
<polygon fill="none" stroke="black" points="546.6,-1012 546.6,-1042.8 817.54,-1042.8 817.54,-1012 546.6,-1012"/>
<text text-anchor="start" x="553.6" y="-1024.2" font-family="Arial" font-size="14.00">updated_at </text>
<text text-anchor="start" x="627.56" y="-1024.2" font-family="Arial" font-size="14.00" fill="#666666">[timestamp with time zone]</text>
<polygon fill="none" stroke="black" points="546.6,-981.2 546.6,-1012 817.54,-1012 817.54,-981.2 546.6,-981.2"/>
<text text-anchor="start" x="553.6" y="-993.4" font-family="Arial" font-size="14.00">promoter_code_id </text>
<text text-anchor="start" x="670.34" y="-993.4" font-family="Arial" font-size="14.00" fill="#666666">[uuid]</text>
</g>
<!-- public.ticket_carts&#45;&gt;public.promoter_codes -->
<g id="edge2" class="edge">
<title>public.ticket_carts:promoter_code_id&#45;&gt;public.promoter_codes:id</title>
<path fill="none" stroke="black" d="M828.78,-996.04C958.42,-980.58 576.29,-650.8 731.1,-650.8"/>
<polygon fill="black" stroke="black" points="828.86,-996.03 818.63,-992.09 823.53,-996.33 819.21,-996.56 819.21,-996.56 819.21,-996.56 823.53,-996.33 819.12,-1001.07 828.86,-996.03"/>
<text text-anchor="start" x="825.54" y="-1006.6" font-family="Arial" font-size="10.00">FOREIGN KEY (promoter_code_id) REFERENCES promoter_codes(id) ON DELETE SET NULL</text>
</g>
<!-- public.order_commissions -->
<g id="node4" class="node">
<title>public.order_commissions</title>
<polygon fill="#efefef" stroke="none" points="921.59,-1443.2 921.59,-1478.8 1250.56,-1478.8 1250.56,-1443.2 921.59,-1443.2"/>
<polygon fill="none" stroke="black" points="921.59,-1443.2 921.59,-1478.8 1250.56,-1478.8 1250.56,-1443.2 921.59,-1443.2"/>
<text text-anchor="start" x="928.59" y="-1456.6" font-family="Arial Bold" font-size="18.00">public.order_commissions</text>
<text text-anchor="start" x="1119.07" y="-1456.6" font-family="Arial" font-size="14.00">    </text>
<text text-anchor="start" x="1150.18" y="-1456.6" font-family="Arial" font-size="14.00" fill="#666666">[BASE TABLE]</text>
<polygon fill="none" stroke="black" points="921.59,-1412.4 921.59,-1443.2 1250.56,-1443.2 1250.56,-1412.4 921.59,-1412.4"/>
<text text-anchor="start" x="928.59" y="-1424.6" font-family="Arial" font-size="14.00">id </text>
<text text-anchor="start" x="943.38" y="-1424.6" font-family="Arial" font-size="14.00" fill="#666666">[uuid]</text>
<polygon fill="none" stroke="black" points="921.59,-1381.6 921.59,-1412.4 1250.56,-1412.4 1250.56,-1381.6 921.59,-1381.6"/>
<text text-anchor="start" x="928.59" y="-1393.8" font-family="Arial" font-size="14.00">reservation_id </text>
<text text-anchor="start" x="1020.42" y="-1393.8" font-family="Arial" font-size="14.00" fill="#666666">[uuid]</text>
<polygon fill="none" stroke="black" points="921.59,-1350.8 921.59,-1381.6 1250.56,-1381.6 1250.56,-1350.8 921.59,-1350.8"/>
<text text-anchor="start" x="928.59" y="-1363" font-family="Arial" font-size="14.00">payment_id </text>
<text text-anchor="start" x="1004.86" y="-1363" font-family="Arial" font-size="14.00" fill="#666666">[integer]</text>
<polygon fill="none" stroke="black" points="921.59,-1320 921.59,-1350.8 1250.56,-1350.8 1250.56,-1320 921.59,-1320"/>
<text text-anchor="start" x="928.59" y="-1332.2" font-family="Arial" font-size="14.00">promoter_code_id </text>
<text text-anchor="start" x="1045.33" y="-1332.2" font-family="Arial" font-size="14.00" fill="#666666">[uuid]</text>
<polygon fill="none" stroke="black" points="921.59,-1289.2 921.59,-1320 1250.56,-1320 1250.56,-1289.2 921.59,-1289.2"/>
<text text-anchor="start" x="928.59" y="-1301.4" font-family="Arial" font-size="14.00">tenant_member_id </text>
<text text-anchor="start" x="1049.22" y="-1301.4" font-family="Arial" font-size="14.00" fill="#666666">[uuid]</text>
<polygon fill="none" stroke="black" points="921.59,-1258.4 921.59,-1289.2 1250.56,-1289.2 1250.56,-1258.4 921.59,-1258.4"/>
<text text-anchor="start" x="928.59" y="-1270.6" font-family="Arial" font-size="14.00">tenant_id </text>
<text text-anchor="start" x="990.09" y="-1270.6" font-family="Arial" font-size="14.00" fill="#666666">[uuid]</text>
<polygon fill="none" stroke="black" points="921.59,-1227.6 921.59,-1258.4 1250.56,-1258.4 1250.56,-1227.6 921.59,-1227.6"/>
<text text-anchor="start" x="928.59" y="-1239.8" font-family="Arial" font-size="14.00">cluster_id </text>
<text text-anchor="start" x="992.4" y="-1239.8" font-family="Arial" font-size="14.00" fill="#666666">[integer]</text>
<polygon fill="none" stroke="black" points="921.59,-1196.8 921.59,-1227.6 1250.56,-1227.6 1250.56,-1196.8 921.59,-1196.8"/>
<text text-anchor="start" x="928.59" y="-1209" font-family="Arial" font-size="14.00">total_base_price </text>
<text text-anchor="start" x="1035.22" y="-1209" font-family="Arial" font-size="14.00" fill="#666666">[numeric]</text>
<polygon fill="none" stroke="black" points="921.59,-1166 921.59,-1196.8 1250.56,-1196.8 1250.56,-1166 921.59,-1166"/>
<text text-anchor="start" x="928.59" y="-1178.2" font-family="Arial" font-size="14.00">tickets_count </text>
<text text-anchor="start" x="1014.19" y="-1178.2" font-family="Arial" font-size="14.00" fill="#666666">[integer]</text>
<polygon fill="none" stroke="black" points="921.59,-1135.2 921.59,-1166 1250.56,-1166 1250.56,-1135.2 921.59,-1135.2"/>
<text text-anchor="start" x="928.59" y="-1147.4" font-family="Arial" font-size="14.00">commission_percentage </text>
<text text-anchor="start" x="1084.22" y="-1147.4" font-family="Arial" font-size="14.00" fill="#666666">[numeric]</text>
<polygon fill="none" stroke="black" points="921.59,-1104.4 921.59,-1135.2 1250.56,-1135.2 1250.56,-1104.4 921.59,-1104.4"/>
<text text-anchor="start" x="928.59" y="-1116.6" font-family="Arial" font-size="14.00">commission_amount </text>
<text text-anchor="start" x="1060.86" y="-1116.6" font-family="Arial" font-size="14.00" fill="#666666">[numeric]</text>
<polygon fill="none" stroke="black" points="921.59,-1073.6 921.59,-1104.4 1250.56,-1104.4 1250.56,-1073.6 921.59,-1073.6"/>
<text text-anchor="start" x="928.59" y="-1085.8" font-family="Arial" font-size="14.00">status </text>
<text text-anchor="start" x="969.83" y="-1085.8" font-family="Arial" font-size="14.00" fill="#666666">[varchar]</text>
<polygon fill="none" stroke="black" points="921.59,-1042.8 921.59,-1073.6 1250.56,-1073.6 1250.56,-1042.8 921.59,-1042.8"/>
<text text-anchor="start" x="928.59" y="-1055" font-family="Arial" font-size="14.00">approved_at </text>
<text text-anchor="start" x="1010.32" y="-1055" font-family="Arial" font-size="14.00" fill="#666666">[timestamp with time zone]</text>
<polygon fill="none" stroke="black" points="921.59,-1012 921.59,-1042.8 1250.56,-1042.8 1250.56,-1012 921.59,-1012"/>
<text text-anchor="start" x="928.59" y="-1024.2" font-family="Arial" font-size="14.00">approved_by </text>
<text text-anchor="start" x="1013.43" y="-1024.2" font-family="Arial" font-size="14.00" fill="#666666">[uuid]</text>
<polygon fill="none" stroke="black" points="921.59,-981.2 921.59,-1012 1250.56,-1012 1250.56,-981.2 921.59,-981.2"/>
<text text-anchor="start" x="928.59" y="-993.4" font-family="Arial" font-size="14.00">paid_at </text>
<text text-anchor="start" x="978.41" y="-993.4" font-family="Arial" font-size="14.00" fill="#666666">[timestamp with time zone]</text>
<polygon fill="none" stroke="black" points="921.59,-950.4 921.59,-981.2 1250.56,-981.2 1250.56,-950.4 921.59,-950.4"/>
<text text-anchor="start" x="928.59" y="-962.6" font-family="Arial" font-size="14.00">payment_reference </text>
<text text-anchor="start" x="1053.11" y="-962.6" font-family="Arial" font-size="14.00" fill="#666666">[varchar(255)]</text>
<polygon fill="none" stroke="black" points="921.59,-919.6 921.59,-950.4 1250.56,-950.4 1250.56,-919.6 921.59,-919.6"/>
<text text-anchor="start" x="928.59" y="-931.8" font-family="Arial" font-size="14.00">notes </text>
<text text-anchor="start" x="966.73" y="-931.8" font-family="Arial" font-size="14.00" fill="#666666">[text]</text>
<polygon fill="none" stroke="black" points="921.59,-888.8 921.59,-919.6 1250.56,-919.6 1250.56,-888.8 921.59,-888.8"/>
<text text-anchor="start" x="928.59" y="-901" font-family="Arial" font-size="14.00">extra_attributes </text>
<text text-anchor="start" x="1028.98" y="-901" font-family="Arial" font-size="14.00" fill="#666666">[jsonb]</text>
<polygon fill="none" stroke="black" points="921.59,-858 921.59,-888.8 1250.56,-888.8 1250.56,-858 921.59,-858"/>
<text text-anchor="start" x="928.59" y="-870.2" font-family="Arial" font-size="14.00">created_at </text>
<text text-anchor="start" x="998.64" y="-870.2" font-family="Arial" font-size="14.00" fill="#666666">[timestamp with time zone]</text>
<polygon fill="none" stroke="black" points="921.59,-827.2 921.59,-858 1250.56,-858 1250.56,-827.2 921.59,-827.2"/>
<text text-anchor="start" x="928.59" y="-839.4" font-family="Arial" font-size="14.00">updated_at </text>
<text text-anchor="start" x="1002.55" y="-839.4" font-family="Arial" font-size="14.00" fill="#666666">[timestamp with time zone]</text>
</g>
<!-- public.order_commissions&#45;&gt;public.promoter_codes -->
<g id="edge3" class="edge">
<title>public.order_commissions:promoter_code_id&#45;&gt;public.promoter_codes:id</title>
<path fill="none" stroke="black" d="M911.31,-1331.05C862.19,-1281.84 887.28,-830.66 921.59,-784 953.18,-741.04 1004.28,-790.83 1036.04,-748 1061.78,-713.3 1080.25,-650.8 1037.04,-650.8"/>
<polygon fill="black" stroke="black" points="911.23,-1331.02 918.38,-1339.33 916.06,-1333.28 919.98,-1335.12 919.98,-1335.12 919.98,-1335.12 916.06,-1333.28 922.2,-1331.18 911.23,-1331.02"/>
<text text-anchor="start" x="927.59" y="-1345.4" font-family="Arial" font-size="10.00">FOREIGN KEY (promoter_code_id) REFERENCES promoter_codes(id) ON DELETE CASCADE</text>
</g>
<!-- public.promoter_event_configs -->
<g id="node5" class="node">
<title>public.promoter_event_configs</title>
<polygon fill="#efefef" stroke="none" points="1355.11,-1258.4 1355.11,-1294 1719.04,-1294 1719.04,-1258.4 1355.11,-1258.4"/>
<polygon fill="none" stroke="black" points="1355.11,-1258.4 1355.11,-1294 1719.04,-1294 1719.04,-1258.4 1355.11,-1258.4"/>
<text text-anchor="start" x="1362.11" y="-1271.8" font-family="Arial Bold" font-size="18.00">public.promoter_event_configs</text>
<text text-anchor="start" x="1587.55" y="-1271.8" font-family="Arial" font-size="14.00">    </text>
<text text-anchor="start" x="1618.66" y="-1271.8" font-family="Arial" font-size="14.00" fill="#666666">[BASE TABLE]</text>
<polygon fill="none" stroke="black" points="1355.11,-1227.6 1355.11,-1258.4 1719.04,-1258.4 1719.04,-1227.6 1355.11,-1227.6"/>
<text text-anchor="start" x="1362.11" y="-1239.8" font-family="Arial" font-size="14.00">id </text>
<text text-anchor="start" x="1376.89" y="-1239.8" font-family="Arial" font-size="14.00" fill="#666666">[uuid]</text>
<polygon fill="none" stroke="black" points="1355.11,-1196.8 1355.11,-1227.6 1719.04,-1227.6 1719.04,-1196.8 1355.11,-1196.8"/>
<text text-anchor="start" x="1362.11" y="-1209" font-family="Arial" font-size="14.00">promoter_code_id </text>
<text text-anchor="start" x="1478.85" y="-1209" font-family="Arial" font-size="14.00" fill="#666666">[uuid]</text>
<polygon fill="none" stroke="black" points="1355.11,-1166 1355.11,-1196.8 1719.04,-1196.8 1719.04,-1166 1355.11,-1166"/>
<text text-anchor="start" x="1362.11" y="-1178.2" font-family="Arial" font-size="14.00">cluster_id </text>
<text text-anchor="start" x="1425.91" y="-1178.2" font-family="Arial" font-size="14.00" fill="#666666">[integer]</text>
<polygon fill="none" stroke="black" points="1355.11,-1135.2 1355.11,-1166 1719.04,-1166 1719.04,-1135.2 1355.11,-1135.2"/>
<text text-anchor="start" x="1362.11" y="-1147.4" font-family="Arial" font-size="14.00">tenant_id </text>
<text text-anchor="start" x="1423.6" y="-1147.4" font-family="Arial" font-size="14.00" fill="#666666">[uuid]</text>
<polygon fill="none" stroke="black" points="1355.11,-1104.4 1355.11,-1135.2 1719.04,-1135.2 1719.04,-1104.4 1355.11,-1104.4"/>
<text text-anchor="start" x="1362.11" y="-1116.6" font-family="Arial" font-size="14.00">commission_percentage </text>
<text text-anchor="start" x="1517.74" y="-1116.6" font-family="Arial" font-size="14.00" fill="#666666">[numeric]</text>
<polygon fill="none" stroke="black" points="1355.11,-1073.6 1355.11,-1104.4 1719.04,-1104.4 1719.04,-1073.6 1355.11,-1073.6"/>
<text text-anchor="start" x="1362.11" y="-1085.8" font-family="Arial" font-size="14.00">is_active </text>
<text text-anchor="start" x="1420.47" y="-1085.8" font-family="Arial" font-size="14.00" fill="#666666">[boolean]</text>
<polygon fill="none" stroke="black" points="1355.11,-1042.8 1355.11,-1073.6 1719.04,-1073.6 1719.04,-1042.8 1355.11,-1042.8"/>
<text text-anchor="start" x="1362.11" y="-1055" font-family="Arial" font-size="14.00">created_at </text>
<text text-anchor="start" x="1432.16" y="-1055" font-family="Arial" font-size="14.00" fill="#666666">[timestamp with time zone]</text>
<polygon fill="none" stroke="black" points="1355.11,-1012 1355.11,-1042.8 1719.04,-1042.8 1719.04,-1012 1355.11,-1012"/>
<text text-anchor="start" x="1362.11" y="-1024.2" font-family="Arial" font-size="14.00">updated_at </text>
<text text-anchor="start" x="1436.07" y="-1024.2" font-family="Arial" font-size="14.00" fill="#666666">[timestamp with time zone]</text>
</g>
<!-- public.promoter_event_configs&#45;&gt;public.promoter_codes -->
<g id="edge4" class="edge">
<title>public.promoter_event_configs:promoter_code_id&#45;&gt;public.promoter_codes:id</title>
<path fill="none" stroke="black" d="M1344.23,-1210.79C1265.48,-1186.61 1356.13,-859.49 1303.07,-784 1227.04,-675.82 1169.27,-650.8 1037.04,-650.8"/>
<polygon fill="black" stroke="black" points="1343.88,-1210.74 1353.14,-1216.61 1349.16,-1211.49 1353.45,-1212.11 1353.45,-1212.11 1353.45,-1212.11 1349.16,-1211.49 1354.41,-1207.7 1343.88,-1210.74"/>
<text text-anchor="start" x="1361.11" y="-1222.2" font-family="Arial" font-size="10.00">FOREIGN KEY (promoter_code_id) REFERENCES promoter_codes(id) ON DELETE CASCADE</text>
</g>
</g>
</svg>
