<?xml version="1.0" encoding="UTF-8" standalone="no"?>
<!DOCTYPE svg PUBLIC "-//W3C//DTD SVG 1.1//EN"
 "http://www.w3.org/Graphics/SVG/1.1/DTD/svg11.dtd">
<!-- Generated by graphviz version 12.1.2 (20240928.0832)
 -->
<!-- Title: public.reservation_units Pages: 1 -->
<svg width="1418pt" height="1900pt"
 viewBox="0.00 0.00 1417.84 1899.60" xmlns="http://www.w3.org/2000/svg" xmlns:xlink="http://www.w3.org/1999/xlink">
<g id="graph0" class="graph" transform="scale(1 1) rotate(0) translate(4 1895.6)">
<title>public.reservation_units</title>
<polygon fill="white" stroke="none" points="-4,4 -4,-1895.6 1413.84,-1895.6 1413.84,4 -4,4"/>
<!-- public.reservation_units -->
<g id="node1" class="node">
<title>public.reservation_units</title>
<polygon fill="#efefef" stroke="none" points="536.69,-1343.8 536.69,-1379.4 848.64,-1379.4 848.64,-1343.8 536.69,-1343.8"/>
<polygon fill="none" stroke="black" points="536.69,-1343.8 536.69,-1379.4 848.64,-1379.4 848.64,-1343.8 536.69,-1343.8"/>
<text text-anchor="start" x="543.69" y="-1357.2" font-family="Arial Bold" font-size="18.00">public.reservation_units</text>
<text text-anchor="start" x="717.15" y="-1357.2" font-family="Arial" font-size="14.00">    </text>
<text text-anchor="start" x="748.27" y="-1357.2" font-family="Arial" font-size="14.00" fill="#666666">[BASE TABLE]</text>
<polygon fill="none" stroke="black" points="536.69,-1313 536.69,-1343.8 848.64,-1343.8 848.64,-1313 536.69,-1313"/>
<text text-anchor="start" x="543.69" y="-1325.2" font-family="Arial" font-size="14.00">id </text>
<text text-anchor="start" x="558.47" y="-1325.2" font-family="Arial" font-size="14.00" fill="#666666">[integer]</text>
<polygon fill="none" stroke="black" points="536.69,-1282.2 536.69,-1313 848.64,-1313 848.64,-1282.2 536.69,-1282.2"/>
<text text-anchor="start" x="543.69" y="-1294.4" font-family="Arial" font-size="14.00">reservation_id </text>
<text text-anchor="start" x="635.51" y="-1294.4" font-family="Arial" font-size="14.00" fill="#666666">[uuid]</text>
<polygon fill="none" stroke="black" points="536.69,-1251.4 536.69,-1282.2 848.64,-1282.2 848.64,-1251.4 536.69,-1251.4"/>
<text text-anchor="start" x="543.69" y="-1263.6" font-family="Arial" font-size="14.00">unit_id </text>
<text text-anchor="start" x="588.83" y="-1263.6" font-family="Arial" font-size="14.00" fill="#666666">[integer]</text>
<polygon fill="none" stroke="black" points="536.69,-1220.6 536.69,-1251.4 848.64,-1251.4 848.64,-1220.6 536.69,-1220.6"/>
<text text-anchor="start" x="543.69" y="-1232.8" font-family="Arial" font-size="14.00">status </text>
<text text-anchor="start" x="584.93" y="-1232.8" font-family="Arial" font-size="14.00" fill="#666666">[varchar(50)]</text>
<polygon fill="none" stroke="black" points="536.69,-1189.8 536.69,-1220.6 848.64,-1220.6 848.64,-1189.8 536.69,-1189.8"/>
<text text-anchor="start" x="543.69" y="-1202" font-family="Arial" font-size="14.00">original_user_id </text>
<text text-anchor="start" x="646.42" y="-1202" font-family="Arial" font-size="14.00" fill="#666666">[uuid]</text>
<polygon fill="none" stroke="black" points="536.69,-1159 536.69,-1189.8 848.64,-1189.8 848.64,-1159 536.69,-1159"/>
<text text-anchor="start" x="543.69" y="-1171.2" font-family="Arial" font-size="14.00">transfer_date </text>
<text text-anchor="start" x="630.07" y="-1171.2" font-family="Arial" font-size="14.00" fill="#666666">[timestamp with time zone]</text>
<polygon fill="none" stroke="black" points="536.69,-1128.2 536.69,-1159 848.64,-1159 848.64,-1128.2 536.69,-1128.2"/>
<text text-anchor="start" x="543.69" y="-1140.4" font-family="Arial" font-size="14.00">updated_at </text>
<text text-anchor="start" x="617.65" y="-1140.4" font-family="Arial" font-size="14.00" fill="#666666">[timestamp with time zone]</text>
<polygon fill="none" stroke="black" points="536.69,-1097.4 536.69,-1128.2 848.64,-1128.2 848.64,-1097.4 536.69,-1097.4"/>
<text text-anchor="start" x="543.69" y="-1109.6" font-family="Arial" font-size="14.00">applied_area_sale_stage_id </text>
<text text-anchor="start" x="722.72" y="-1109.6" font-family="Arial" font-size="14.00" fill="#666666">[uuid]</text>
<polygon fill="none" stroke="black" points="536.69,-1066.6 536.69,-1097.4 848.64,-1097.4 848.64,-1066.6 536.69,-1066.6"/>
<text text-anchor="start" x="543.69" y="-1078.8" font-family="Arial" font-size="14.00">applied_promotion_id </text>
<text text-anchor="start" x="681.45" y="-1078.8" font-family="Arial" font-size="14.00" fill="#666666">[uuid]</text>
<polygon fill="none" stroke="black" points="536.69,-1035.8 536.69,-1066.6 848.64,-1066.6 848.64,-1035.8 536.69,-1035.8"/>
<text text-anchor="start" x="543.69" y="-1048" font-family="Arial" font-size="14.00">qr_code </text>
<text text-anchor="start" x="598.17" y="-1048" font-family="Arial" font-size="14.00" fill="#666666">[varchar(64)]</text>
<polygon fill="none" stroke="black" points="536.69,-1005 536.69,-1035.8 848.64,-1035.8 848.64,-1005 536.69,-1005"/>
<text text-anchor="start" x="543.69" y="-1017.2" font-family="Arial" font-size="14.00">qr_data </text>
<text text-anchor="start" x="595.06" y="-1017.2" font-family="Arial" font-size="14.00" fill="#666666">[jsonb]</text>
<polygon fill="none" stroke="black" points="536.69,-974.2 536.69,-1005 848.64,-1005 848.64,-974.2 536.69,-974.2"/>
<text text-anchor="start" x="543.69" y="-986.4" font-family="Arial" font-size="14.00">unit_price_paid </text>
<text text-anchor="start" x="642.53" y="-986.4" font-family="Arial" font-size="14.00" fill="#666666">[numeric]</text>
<polygon fill="none" stroke="black" points="536.69,-943.4 536.69,-974.2 848.64,-974.2 848.64,-943.4 536.69,-943.4"/>
<text text-anchor="start" x="543.69" y="-955.6" font-family="Arial" font-size="14.00">pricing_snapshot </text>
<text text-anchor="start" x="653.42" y="-955.6" font-family="Arial" font-size="14.00" fill="#666666">[jsonb]</text>
<polygon fill="none" stroke="black" stroke-width="3" points="535.19,-941.9 535.19,-1380.9 850.14,-1380.9 850.14,-941.9 535.19,-941.9"/>
</g>
<!-- public.reservations -->
<g id="node5" class="node">
<title>public.reservations</title>
<polygon fill="#efefef" stroke="none" points="171.71,-551.4 171.71,-587 459.61,-587 459.61,-551.4 171.71,-551.4"/>
<polygon fill="none" stroke="black" points="171.71,-551.4 171.71,-587 459.61,-587 459.61,-551.4 171.71,-551.4"/>
<text text-anchor="start" x="185.19" y="-564.8" font-family="Arial Bold" font-size="18.00">public.reservations</text>
<text text-anchor="start" x="321.65" y="-564.8" font-family="Arial" font-size="14.00">    </text>
<text text-anchor="start" x="352.76" y="-564.8" font-family="Arial" font-size="14.00" fill="#666666">[BASE TABLE]</text>
<polygon fill="none" stroke="black" points="171.71,-520.6 171.71,-551.4 459.61,-551.4 459.61,-520.6 171.71,-520.6"/>
<text text-anchor="start" x="178.71" y="-532.8" font-family="Arial" font-size="14.00">id </text>
<text text-anchor="start" x="193.5" y="-532.8" font-family="Arial" font-size="14.00" fill="#666666">[uuid]</text>
<polygon fill="none" stroke="black" points="171.71,-489.8 171.71,-520.6 459.61,-520.6 459.61,-489.8 171.71,-489.8"/>
<text text-anchor="start" x="178.71" y="-502" font-family="Arial" font-size="14.00">user_id </text>
<text text-anchor="start" x="228.52" y="-502" font-family="Arial" font-size="14.00" fill="#666666">[uuid]</text>
<polygon fill="none" stroke="black" points="171.71,-459 171.71,-489.8 459.61,-489.8 459.61,-459 171.71,-459"/>
<text text-anchor="start" x="178.71" y="-471.2" font-family="Arial" font-size="14.00">reservation_date </text>
<text text-anchor="start" x="286.89" y="-471.2" font-family="Arial" font-size="14.00" fill="#666666">[timestamp with time zone]</text>
<polygon fill="none" stroke="black" points="171.71,-428.2 171.71,-459 459.61,-459 459.61,-428.2 171.71,-428.2"/>
<text text-anchor="start" x="178.71" y="-440.4" font-family="Arial" font-size="14.00">start_date </text>
<text text-anchor="start" x="244.86" y="-440.4" font-family="Arial" font-size="14.00" fill="#666666">[timestamp with time zone]</text>
<polygon fill="none" stroke="black" points="171.71,-397.4 171.71,-428.2 459.61,-428.2 459.61,-397.4 171.71,-397.4"/>
<text text-anchor="start" x="178.71" y="-409.6" font-family="Arial" font-size="14.00">end_date </text>
<text text-anchor="start" x="240.99" y="-409.6" font-family="Arial" font-size="14.00" fill="#666666">[timestamp with time zone]</text>
<polygon fill="none" stroke="black" points="171.71,-366.6 171.71,-397.4 459.61,-397.4 459.61,-366.6 171.71,-366.6"/>
<text text-anchor="start" x="178.71" y="-378.8" font-family="Arial" font-size="14.00">extra_attributes </text>
<text text-anchor="start" x="279.1" y="-378.8" font-family="Arial" font-size="14.00" fill="#666666">[jsonb]</text>
<polygon fill="none" stroke="black" points="171.71,-335.8 171.71,-366.6 459.61,-366.6 459.61,-335.8 171.71,-335.8"/>
<text text-anchor="start" x="178.71" y="-348" font-family="Arial" font-size="14.00">status </text>
<text text-anchor="start" x="219.95" y="-348" font-family="Arial" font-size="14.00" fill="#666666">[varchar(50)]</text>
<polygon fill="none" stroke="black" points="171.71,-305 171.71,-335.8 459.61,-335.8 459.61,-305 171.71,-305"/>
<text text-anchor="start" x="178.71" y="-317.2" font-family="Arial" font-size="14.00">updated_at </text>
<text text-anchor="start" x="252.67" y="-317.2" font-family="Arial" font-size="14.00" fill="#666666">[timestamp with time zone]</text>
<polygon fill="none" stroke="black" points="171.71,-274.2 171.71,-305 459.61,-305 459.61,-274.2 171.71,-274.2"/>
<text text-anchor="start" x="178.71" y="-286.4" font-family="Arial" font-size="14.00">promoter_code_id </text>
<text text-anchor="start" x="295.45" y="-286.4" font-family="Arial" font-size="14.00" fill="#666666">[uuid]</text>
</g>
<!-- public.reservation_units&#45;&gt;public.reservations -->
<g id="edge4" class="edge">
<title>public.reservation_units:reservation_id&#45;&gt;public.reservations:id</title>
<path fill="none" stroke="black" d="M526.11,-1293.86C458.14,-1236.41 542.16,-536 460.61,-536"/>
<polygon fill="black" stroke="black" points="526.06,-1293.84 533.74,-1301.67 531.03,-1295.78 535.06,-1297.36 535.06,-1297.36 535.06,-1297.36 531.03,-1295.78 537.01,-1293.29 526.06,-1293.84"/>
<text text-anchor="start" x="134.7" y="-1307.6" font-family="Arial" font-size="10.00">FOREIGN KEY (reservation_id) REFERENCES reservations(id) ON DELETE CASCADE</text>
</g>
<!-- public.units -->
<g id="node6" class="node">
<title>public.units</title>
<polygon fill="#efefef" stroke="none" points="564.27,-551.4 564.27,-587 821.06,-587 821.06,-551.4 564.27,-551.4"/>
<polygon fill="none" stroke="black" points="564.27,-551.4 564.27,-587 821.06,-587 821.06,-551.4 564.27,-551.4"/>
<text text-anchor="start" x="588.17" y="-564.8" font-family="Arial Bold" font-size="18.00">public.units</text>
<text text-anchor="start" x="672.67" y="-564.8" font-family="Arial" font-size="14.00">    </text>
<text text-anchor="start" x="703.78" y="-564.8" font-family="Arial" font-size="14.00" fill="#666666">[BASE TABLE]</text>
<polygon fill="none" stroke="black" points="564.27,-520.6 564.27,-551.4 821.06,-551.4 821.06,-520.6 564.27,-520.6"/>
<text text-anchor="start" x="571.27" y="-532.8" font-family="Arial" font-size="14.00">id </text>
<text text-anchor="start" x="586.05" y="-532.8" font-family="Arial" font-size="14.00" fill="#666666">[integer]</text>
<polygon fill="none" stroke="black" points="564.27,-489.8 564.27,-520.6 821.06,-520.6 821.06,-489.8 564.27,-489.8"/>
<text text-anchor="start" x="571.27" y="-502" font-family="Arial" font-size="14.00">area_id </text>
<text text-anchor="start" x="621.86" y="-502" font-family="Arial" font-size="14.00" fill="#666666">[integer]</text>
<polygon fill="none" stroke="black" points="564.27,-459 564.27,-489.8 821.06,-489.8 821.06,-459 564.27,-459"/>
<text text-anchor="start" x="571.27" y="-471.2" font-family="Arial" font-size="14.00">status </text>
<text text-anchor="start" x="612.51" y="-471.2" font-family="Arial" font-size="14.00" fill="#666666">[varchar(50)]</text>
<polygon fill="none" stroke="black" points="564.27,-428.2 564.27,-459 821.06,-459 821.06,-428.2 564.27,-428.2"/>
<text text-anchor="start" x="571.27" y="-440.4" font-family="Arial" font-size="14.00">extra_attributes </text>
<text text-anchor="start" x="671.65" y="-440.4" font-family="Arial" font-size="14.00" fill="#666666">[jsonb]</text>
<polygon fill="none" stroke="black" points="564.27,-397.4 564.27,-428.2 821.06,-428.2 821.06,-397.4 564.27,-397.4"/>
<text text-anchor="start" x="571.27" y="-409.6" font-family="Arial" font-size="14.00">created_at </text>
<text text-anchor="start" x="641.31" y="-409.6" font-family="Arial" font-size="14.00" fill="#666666">[timestamp with time zone]</text>
<polygon fill="none" stroke="black" points="564.27,-366.6 564.27,-397.4 821.06,-397.4 821.06,-366.6 564.27,-366.6"/>
<text text-anchor="start" x="571.27" y="-378.8" font-family="Arial" font-size="14.00">nomenclature_letter_area </text>
<text text-anchor="start" x="734.7" y="-378.8" font-family="Arial" font-size="14.00" fill="#666666">[varchar(10)]</text>
<polygon fill="none" stroke="black" points="564.27,-335.8 564.27,-366.6 821.06,-366.6 821.06,-335.8 564.27,-335.8"/>
<text text-anchor="start" x="571.27" y="-348" font-family="Arial" font-size="14.00">nomenclature_number_area </text>
<text text-anchor="start" x="751.04" y="-348" font-family="Arial" font-size="14.00" fill="#666666">[integer]</text>
<polygon fill="none" stroke="black" points="564.27,-305 564.27,-335.8 821.06,-335.8 821.06,-305 564.27,-305"/>
<text text-anchor="start" x="571.27" y="-317.2" font-family="Arial" font-size="14.00">nomenclature_number_unit </text>
<text text-anchor="start" x="745.6" y="-317.2" font-family="Arial" font-size="14.00" fill="#666666">[integer]</text>
<polygon fill="none" stroke="black" points="564.27,-274.2 564.27,-305 821.06,-305 821.06,-274.2 564.27,-274.2"/>
<text text-anchor="start" x="571.27" y="-286.4" font-family="Arial" font-size="14.00">updated_at </text>
<text text-anchor="start" x="645.22" y="-286.4" font-family="Arial" font-size="14.00" fill="#666666">[timestamp with time zone]</text>
</g>
<!-- public.reservation_units&#45;&gt;public.units -->
<g id="edge5" class="edge">
<title>public.reservation_units:unit_id&#45;&gt;public.units:id</title>
<path fill="none" stroke="black" d="M856.28,-1259.09C886.88,-1180.98 860.23,-536 822.06,-536"/>
<polygon fill="black" stroke="black" points="856.38,-1258.97 846.45,-1263.61 852.9,-1263.01 850.07,-1266.29 850.07,-1266.29 850.07,-1266.29 852.9,-1263.01 853.27,-1269.48 856.38,-1258.97"/>
<text text-anchor="start" x="856.64" y="-1276.8" font-family="Arial" font-size="10.00">FOREIGN KEY (unit_id) REFERENCES units(id) ON DELETE CASCADE</text>
</g>
<!-- public.profile -->
<g id="node7" class="node">
<title>public.profile</title>
<polygon fill="#efefef" stroke="none" points="925.82,-782.4 925.82,-818 1179.5,-818 1179.5,-782.4 925.82,-782.4"/>
<polygon fill="none" stroke="black" points="925.82,-782.4 925.82,-818 1179.5,-818 1179.5,-782.4 925.82,-782.4"/>
<text text-anchor="start" x="941.68" y="-795.8" font-family="Arial Bold" font-size="18.00">public.profile</text>
<text text-anchor="start" x="1039.15" y="-795.8" font-family="Arial" font-size="14.00">    </text>
<text text-anchor="start" x="1070.27" y="-795.8" font-family="Arial" font-size="14.00" fill="#666666">[BASE TABLE]</text>
<polygon fill="none" stroke="black" points="925.82,-751.6 925.82,-782.4 1179.5,-782.4 1179.5,-751.6 925.82,-751.6"/>
<text text-anchor="start" x="932.82" y="-763.8" font-family="Arial" font-size="14.00">name </text>
<text text-anchor="start" x="971.73" y="-763.8" font-family="Arial" font-size="14.00" fill="#666666">[varchar]</text>
<polygon fill="none" stroke="black" points="925.82,-720.8 925.82,-751.6 1179.5,-751.6 1179.5,-720.8 925.82,-720.8"/>
<text text-anchor="start" x="932.82" y="-733" font-family="Arial" font-size="14.00">logo_avatar </text>
<text text-anchor="start" x="1009.88" y="-733" font-family="Arial" font-size="14.00" fill="#666666">[varchar]</text>
<polygon fill="none" stroke="black" points="925.82,-690 925.82,-720.8 1179.5,-720.8 1179.5,-690 925.82,-690"/>
<text text-anchor="start" x="932.82" y="-702.2" font-family="Arial" font-size="14.00">description </text>
<text text-anchor="start" x="1004.41" y="-702.2" font-family="Arial" font-size="14.00" fill="#666666">[varchar]</text>
<polygon fill="none" stroke="black" points="925.82,-659.2 925.82,-690 1179.5,-690 1179.5,-659.2 925.82,-659.2"/>
<text text-anchor="start" x="932.82" y="-671.4" font-family="Arial" font-size="14.00">website </text>
<text text-anchor="start" x="984.18" y="-671.4" font-family="Arial" font-size="14.00" fill="#666666">[varchar]</text>
<polygon fill="none" stroke="black" points="925.82,-628.4 925.82,-659.2 1179.5,-659.2 1179.5,-628.4 925.82,-628.4"/>
<text text-anchor="start" x="932.82" y="-640.6" font-family="Arial" font-size="14.00">status </text>
<text text-anchor="start" x="974.06" y="-640.6" font-family="Arial" font-size="14.00" fill="#666666">[boolean]</text>
<polygon fill="none" stroke="black" points="925.82,-597.6 925.82,-628.4 1179.5,-628.4 1179.5,-597.6 925.82,-597.6"/>
<text text-anchor="start" x="932.82" y="-609.8" font-family="Arial" font-size="14.00">city </text>
<text text-anchor="start" x="957.71" y="-609.8" font-family="Arial" font-size="14.00" fill="#666666">[varchar]</text>
<polygon fill="none" stroke="black" points="925.82,-566.8 925.82,-597.6 1179.5,-597.6 1179.5,-566.8 925.82,-566.8"/>
<text text-anchor="start" x="932.82" y="-579" font-family="Arial" font-size="14.00">banner </text>
<text text-anchor="start" x="980.3" y="-579" font-family="Arial" font-size="14.00" fill="#666666">[varchar]</text>
<polygon fill="none" stroke="black" points="925.82,-536 925.82,-566.8 1179.5,-566.8 1179.5,-536 925.82,-536"/>
<text text-anchor="start" x="932.82" y="-548.2" font-family="Arial" font-size="14.00">category </text>
<text text-anchor="start" x="990.41" y="-548.2" font-family="Arial" font-size="14.00" fill="#666666">[varchar]</text>
<polygon fill="none" stroke="black" points="925.82,-505.2 925.82,-536 1179.5,-536 1179.5,-505.2 925.82,-505.2"/>
<text text-anchor="start" x="932.82" y="-517.4" font-family="Arial" font-size="14.00">shadowban </text>
<text text-anchor="start" x="1008.32" y="-517.4" font-family="Arial" font-size="14.00" fill="#666666">[boolean]</text>
<polygon fill="none" stroke="black" points="925.82,-474.4 925.82,-505.2 1179.5,-505.2 1179.5,-474.4 925.82,-474.4"/>
<text text-anchor="start" x="932.82" y="-486.6" font-family="Arial" font-size="14.00">id </text>
<text text-anchor="start" x="947.61" y="-486.6" font-family="Arial" font-size="14.00" fill="#666666">[uuid]</text>
<polygon fill="none" stroke="black" points="925.82,-443.6 925.82,-474.4 1179.5,-474.4 1179.5,-443.6 925.82,-443.6"/>
<text text-anchor="start" x="932.82" y="-455.8" font-family="Arial" font-size="14.00">email </text>
<text text-anchor="start" x="970.17" y="-455.8" font-family="Arial" font-size="14.00" fill="#666666">[varchar(255)]</text>
<polygon fill="none" stroke="black" points="925.82,-412.8 925.82,-443.6 1179.5,-443.6 1179.5,-412.8 925.82,-412.8"/>
<text text-anchor="start" x="932.82" y="-425" font-family="Arial" font-size="14.00">enterprise </text>
<text text-anchor="start" x="998.97" y="-425" font-family="Arial" font-size="14.00" fill="#666666">[varchar(255)]</text>
<polygon fill="none" stroke="black" points="925.82,-382 925.82,-412.8 1179.5,-412.8 1179.5,-382 925.82,-382"/>
<text text-anchor="start" x="932.82" y="-394.2" font-family="Arial" font-size="14.00">user_name </text>
<text text-anchor="start" x="1006.75" y="-394.2" font-family="Arial" font-size="14.00" fill="#666666">[varchar]</text>
<polygon fill="none" stroke="black" points="925.82,-351.2 925.82,-382 1179.5,-382 1179.5,-351.2 925.82,-351.2"/>
<text text-anchor="start" x="932.82" y="-363.4" font-family="Arial" font-size="14.00">created_at </text>
<text text-anchor="start" x="1002.87" y="-363.4" font-family="Arial" font-size="14.00" fill="#666666">[timestamp with time zone]</text>
<polygon fill="none" stroke="black" points="925.82,-320.4 925.82,-351.2 1179.5,-351.2 1179.5,-320.4 925.82,-320.4"/>
<text text-anchor="start" x="932.82" y="-332.6" font-family="Arial" font-size="14.00">planet </text>
<text text-anchor="start" x="974.86" y="-332.6" font-family="Arial" font-size="14.00" fill="#666666">[varchar]</text>
<polygon fill="none" stroke="black" points="925.82,-289.6 925.82,-320.4 1179.5,-320.4 1179.5,-289.6 925.82,-289.6"/>
<text text-anchor="start" x="932.82" y="-301.8" font-family="Arial" font-size="14.00">country </text>
<text text-anchor="start" x="982.62" y="-301.8" font-family="Arial" font-size="14.00" fill="#666666">[varchar]</text>
<polygon fill="none" stroke="black" points="925.82,-258.8 925.82,-289.6 1179.5,-289.6 1179.5,-258.8 925.82,-258.8"/>
<text text-anchor="start" x="932.82" y="-271" font-family="Arial" font-size="14.00">nationality_id </text>
<text text-anchor="start" x="1018.43" y="-271" font-family="Arial" font-size="14.00" fill="#666666">[integer]</text>
<polygon fill="none" stroke="black" points="925.82,-228 925.82,-258.8 1179.5,-258.8 1179.5,-228 925.82,-228"/>
<text text-anchor="start" x="932.82" y="-240.2" font-family="Arial" font-size="14.00">phone_number </text>
<text text-anchor="start" x="1030.9" y="-240.2" font-family="Arial" font-size="14.00" fill="#666666">[varchar(20)]</text>
<polygon fill="none" stroke="black" points="925.82,-197.2 925.82,-228 1179.5,-228 1179.5,-197.2 925.82,-197.2"/>
<text text-anchor="start" x="932.82" y="-209.4" font-family="Arial" font-size="14.00">updated_at </text>
<text text-anchor="start" x="1006.78" y="-209.4" font-family="Arial" font-size="14.00" fill="#666666">[timestamp with time zone]</text>
<polygon fill="none" stroke="black" points="925.82,-166.4 925.82,-197.2 1179.5,-197.2 1179.5,-166.4 925.82,-166.4"/>
<text text-anchor="start" x="932.82" y="-178.6" font-family="Arial" font-size="14.00">phone_country_code </text>
<text text-anchor="start" x="1067.48" y="-178.6" font-family="Arial" font-size="14.00" fill="#666666">[integer]</text>
<polygon fill="none" stroke="black" points="925.82,-135.6 925.82,-166.4 1179.5,-166.4 1179.5,-135.6 925.82,-135.6"/>
<text text-anchor="start" x="932.82" y="-147.8" font-family="Arial" font-size="14.00">fiscal_id_type </text>
<text text-anchor="start" x="1021.54" y="-147.8" font-family="Arial" font-size="14.00" fill="#666666">[text]</text>
<polygon fill="none" stroke="black" points="925.82,-104.8 925.82,-135.6 1179.5,-135.6 1179.5,-104.8 925.82,-104.8"/>
<text text-anchor="start" x="932.82" y="-117" font-family="Arial" font-size="14.00">fiscal_id </text>
<text text-anchor="start" x="987.29" y="-117" font-family="Arial" font-size="14.00" fill="#666666">[text]</text>
<polygon fill="none" stroke="black" points="925.82,-74 925.82,-104.8 1179.5,-104.8 1179.5,-74 925.82,-74"/>
<text text-anchor="start" x="932.82" y="-86.2" font-family="Arial" font-size="14.00">fiscal_business_name </text>
<text text-anchor="start" x="1074.46" y="-86.2" font-family="Arial" font-size="14.00" fill="#666666">[text]</text>
<polygon fill="none" stroke="black" points="925.82,-43.2 925.82,-74 1179.5,-74 1179.5,-43.2 925.82,-43.2"/>
<text text-anchor="start" x="932.82" y="-55.4" font-family="Arial" font-size="14.00">fiscal_email </text>
<text text-anchor="start" x="1009.85" y="-55.4" font-family="Arial" font-size="14.00" fill="#666666">[text]</text>
</g>
<!-- public.reservation_units&#45;&gt;public.profile -->
<g id="edge6" class="edge">
<title>public.reservation_units:original_user_id&#45;&gt;public.profile:id</title>
<path fill="none" stroke="black" d="M859.05,-1201.35C922.59,-1145.04 848.33,-489.8 924.82,-489.8"/>
<polygon fill="black" stroke="black" points="859.2,-1201.29 848.24,-1200.91 854.27,-1203.31 850.26,-1204.95 850.26,-1204.95 850.26,-1204.95 854.27,-1203.31 851.65,-1209.24 859.2,-1201.29"/>
<text text-anchor="start" x="856.64" y="-1215.2" font-family="Arial" font-size="10.00">FOREIGN KEY (original_user_id) REFERENCES profile(id) ON DELETE CASCADE</text>
</g>
<!-- public.reservation_unit_qr_images -->
<g id="node2" class="node">
<title>public.reservation_unit_qr_images</title>
<polygon fill="#efefef" stroke="none" points="43.2,-1720.4 43.2,-1756 432.12,-1756 432.12,-1720.4 43.2,-1720.4"/>
<polygon fill="none" stroke="black" points="43.2,-1720.4 43.2,-1756 432.12,-1756 432.12,-1720.4 43.2,-1720.4"/>
<text text-anchor="start" x="50.2" y="-1733.8" font-family="Arial Bold" font-size="18.00">public.reservation_unit_qr_images</text>
<text text-anchor="start" x="300.64" y="-1733.8" font-family="Arial" font-size="14.00">    </text>
<text text-anchor="start" x="331.75" y="-1733.8" font-family="Arial" font-size="14.00" fill="#666666">[BASE TABLE]</text>
<polygon fill="none" stroke="black" points="43.2,-1689.6 43.2,-1720.4 432.12,-1720.4 432.12,-1689.6 43.2,-1689.6"/>
<text text-anchor="start" x="50.2" y="-1701.8" font-family="Arial" font-size="14.00">id </text>
<text text-anchor="start" x="64.99" y="-1701.8" font-family="Arial" font-size="14.00" fill="#666666">[bigint]</text>
<polygon fill="none" stroke="black" points="43.2,-1658.8 43.2,-1689.6 432.12,-1689.6 432.12,-1658.8 43.2,-1658.8"/>
<text text-anchor="start" x="50.2" y="-1671" font-family="Arial" font-size="14.00">reservation_unit_id </text>
<text text-anchor="start" x="172.39" y="-1671" font-family="Arial" font-size="14.00" fill="#666666">[integer]</text>
<polygon fill="none" stroke="black" points="43.2,-1628 43.2,-1658.8 432.12,-1658.8 432.12,-1628 43.2,-1628"/>
<text text-anchor="start" x="50.2" y="-1640.2" font-family="Arial" font-size="14.00">image_id </text>
<text text-anchor="start" x="110.9" y="-1640.2" font-family="Arial" font-size="14.00" fill="#666666">[uuid]</text>
<polygon fill="none" stroke="black" points="43.2,-1597.2 43.2,-1628 432.12,-1628 432.12,-1597.2 43.2,-1597.2"/>
<text text-anchor="start" x="50.2" y="-1609.4" font-family="Arial" font-size="14.00">type_image </text>
<text text-anchor="start" x="126.47" y="-1609.4" font-family="Arial" font-size="14.00" fill="#666666">[varchar(50)]</text>
</g>
<!-- public.reservation_unit_qr_images&#45;&gt;public.reservation_units -->
<g id="edge1" class="edge">
<title>public.reservation_unit_qr_images:reservation_unit_id&#45;&gt;public.reservation_units:id</title>
<path fill="none" stroke="black" d="M442.99,-1671.57C480.17,-1650.19 471.28,-1504.57 484.66,-1461.6 503.51,-1401.07 472.29,-1328.4 535.69,-1328.4"/>
<polygon fill="black" stroke="black" points="443.11,-1671.54 432.29,-1669.77 437.96,-1672.91 433.77,-1674.03 433.77,-1674.03 433.77,-1674.03 437.96,-1672.91 434.61,-1678.46 443.11,-1671.54"/>
<text text-anchor="start" x="440.12" y="-1684.2" font-family="Arial" font-size="10.00">FOREIGN KEY (reservation_unit_id) REFERENCES reservation_units(id) ON DELETE CASCADE</text>
</g>
<!-- public.unit_transfer_log -->
<g id="node3" class="node">
<title>public.unit_transfer_log</title>
<polygon fill="#efefef" stroke="none" points="536.69,-1751.2 536.69,-1786.8 848.64,-1786.8 848.64,-1751.2 536.69,-1751.2"/>
<polygon fill="none" stroke="black" points="536.69,-1751.2 536.69,-1786.8 848.64,-1786.8 848.64,-1751.2 536.69,-1751.2"/>
<text text-anchor="start" x="543.69" y="-1764.6" font-family="Arial Bold" font-size="18.00">public.unit_transfer_log</text>
<text text-anchor="start" x="717.15" y="-1764.6" font-family="Arial" font-size="14.00">    </text>
<text text-anchor="start" x="748.27" y="-1764.6" font-family="Arial" font-size="14.00" fill="#666666">[BASE TABLE]</text>
<polygon fill="none" stroke="black" points="536.69,-1720.4 536.69,-1751.2 848.64,-1751.2 848.64,-1720.4 536.69,-1720.4"/>
<text text-anchor="start" x="543.69" y="-1732.6" font-family="Arial" font-size="14.00">id </text>
<text text-anchor="start" x="558.47" y="-1732.6" font-family="Arial" font-size="14.00" fill="#666666">[integer]</text>
<polygon fill="none" stroke="black" points="536.69,-1689.6 536.69,-1720.4 848.64,-1720.4 848.64,-1689.6 536.69,-1689.6"/>
<text text-anchor="start" x="543.69" y="-1701.8" font-family="Arial" font-size="14.00">reservation_unit_id </text>
<text text-anchor="start" x="665.87" y="-1701.8" font-family="Arial" font-size="14.00" fill="#666666">[integer]</text>
<polygon fill="none" stroke="black" points="536.69,-1658.8 536.69,-1689.6 848.64,-1689.6 848.64,-1658.8 536.69,-1658.8"/>
<text text-anchor="start" x="543.69" y="-1671" font-family="Arial" font-size="14.00">from_user_id </text>
<text text-anchor="start" x="629.28" y="-1671" font-family="Arial" font-size="14.00" fill="#666666">[uuid]</text>
<polygon fill="none" stroke="black" points="536.69,-1628 536.69,-1658.8 848.64,-1658.8 848.64,-1628 536.69,-1628"/>
<text text-anchor="start" x="543.69" y="-1640.2" font-family="Arial" font-size="14.00">to_user_id </text>
<text text-anchor="start" x="612.96" y="-1640.2" font-family="Arial" font-size="14.00" fill="#666666">[uuid]</text>
<polygon fill="none" stroke="black" points="536.69,-1597.2 536.69,-1628 848.64,-1628 848.64,-1597.2 536.69,-1597.2"/>
<text text-anchor="start" x="543.69" y="-1609.4" font-family="Arial" font-size="14.00">transfer_date </text>
<text text-anchor="start" x="630.07" y="-1609.4" font-family="Arial" font-size="14.00" fill="#666666">[timestamp with time zone]</text>
<polygon fill="none" stroke="black" points="536.69,-1566.4 536.69,-1597.2 848.64,-1597.2 848.64,-1566.4 536.69,-1566.4"/>
<text text-anchor="start" x="543.69" y="-1578.6" font-family="Arial" font-size="14.00">transfer_reason </text>
<text text-anchor="start" x="645.63" y="-1578.6" font-family="Arial" font-size="14.00" fill="#666666">[varchar(255)]</text>
</g>
<!-- public.unit_transfer_log&#45;&gt;public.reservation_units -->
<g id="edge2" class="edge">
<title>public.unit_transfer_log:reservation_unit_id&#45;&gt;public.reservation_units:id</title>
<path fill="none" stroke="black" d="M858.05,-1699.38C891.26,-1652.54 888.46,-1328.4 849.64,-1328.4"/>
<polygon fill="black" stroke="black" points="858.23,-1699.26 847.42,-1701.07 853.8,-1702.22 850.19,-1704.63 850.19,-1704.63 850.19,-1704.63 853.8,-1702.22 852.41,-1708.56 858.23,-1699.26"/>
<text text-anchor="start" x="405.28" y="-1715" font-family="Arial" font-size="10.00">FOREIGN KEY (reservation_unit_id) REFERENCES reservation_units(id) ON DELETE CASCADE</text>
</g>
<!-- public.reservation_unit_status_history -->
<g id="node4" class="node">
<title>public.reservation_unit_status_history</title>
<polygon fill="#efefef" stroke="none" points="952.69,-1812.8 952.69,-1848.4 1366.64,-1848.4 1366.64,-1812.8 952.69,-1812.8"/>
<polygon fill="none" stroke="black" points="952.69,-1812.8 952.69,-1848.4 1366.64,-1848.4 1366.64,-1812.8 952.69,-1812.8"/>
<text text-anchor="start" x="959.69" y="-1826.2" font-family="Arial Bold" font-size="18.00">public.reservation_unit_status_history</text>
<text text-anchor="start" x="1235.15" y="-1826.2" font-family="Arial" font-size="14.00">    </text>
<text text-anchor="start" x="1266.26" y="-1826.2" font-family="Arial" font-size="14.00" fill="#666666">[BASE TABLE]</text>
<polygon fill="none" stroke="black" points="952.69,-1782 952.69,-1812.8 1366.64,-1812.8 1366.64,-1782 952.69,-1782"/>
<text text-anchor="start" x="959.69" y="-1794.2" font-family="Arial" font-size="14.00">id </text>
<text text-anchor="start" x="974.47" y="-1794.2" font-family="Arial" font-size="14.00" fill="#666666">[uuid]</text>
<polygon fill="none" stroke="black" points="952.69,-1751.2 952.69,-1782 1366.64,-1782 1366.64,-1751.2 952.69,-1751.2"/>
<text text-anchor="start" x="959.69" y="-1763.4" font-family="Arial" font-size="14.00">reservation_unit_id </text>
<text text-anchor="start" x="1081.87" y="-1763.4" font-family="Arial" font-size="14.00" fill="#666666">[integer]</text>
<polygon fill="none" stroke="black" points="952.69,-1720.4 952.69,-1751.2 1366.64,-1751.2 1366.64,-1720.4 952.69,-1720.4"/>
<text text-anchor="start" x="959.69" y="-1732.6" font-family="Arial" font-size="14.00">reservation_id </text>
<text text-anchor="start" x="1051.52" y="-1732.6" font-family="Arial" font-size="14.00" fill="#666666">[uuid]</text>
<polygon fill="none" stroke="black" points="952.69,-1689.6 952.69,-1720.4 1366.64,-1720.4 1366.64,-1689.6 952.69,-1689.6"/>
<text text-anchor="start" x="959.69" y="-1701.8" font-family="Arial" font-size="14.00">old_status </text>
<text text-anchor="start" x="1027.4" y="-1701.8" font-family="Arial" font-size="14.00" fill="#666666">[varchar(50)]</text>
<polygon fill="none" stroke="black" points="952.69,-1658.8 952.69,-1689.6 1366.64,-1689.6 1366.64,-1658.8 952.69,-1658.8"/>
<text text-anchor="start" x="959.69" y="-1671" font-family="Arial" font-size="14.00">new_status </text>
<text text-anchor="start" x="1034.4" y="-1671" font-family="Arial" font-size="14.00" fill="#666666">[varchar(50)]</text>
<polygon fill="none" stroke="black" points="952.69,-1628 952.69,-1658.8 1366.64,-1658.8 1366.64,-1628 952.69,-1628"/>
<text text-anchor="start" x="959.69" y="-1640.2" font-family="Arial" font-size="14.00">change_date </text>
<text text-anchor="start" x="1044.54" y="-1640.2" font-family="Arial" font-size="14.00" fill="#666666">[timestamp with time zone]</text>
<polygon fill="none" stroke="black" points="952.69,-1597.2 952.69,-1628 1366.64,-1628 1366.64,-1597.2 952.69,-1597.2"/>
<text text-anchor="start" x="959.69" y="-1609.4" font-family="Arial" font-size="14.00">changed_by </text>
<text text-anchor="start" x="1039.87" y="-1609.4" font-family="Arial" font-size="14.00" fill="#666666">[uuid]</text>
<polygon fill="none" stroke="black" points="952.69,-1566.4 952.69,-1597.2 1366.64,-1597.2 1366.64,-1566.4 952.69,-1566.4"/>
<text text-anchor="start" x="959.69" y="-1578.6" font-family="Arial" font-size="14.00">reason </text>
<text text-anchor="start" x="1006.39" y="-1578.6" font-family="Arial" font-size="14.00" fill="#666666">[text]</text>
<polygon fill="none" stroke="black" points="952.69,-1535.6 952.69,-1566.4 1366.64,-1566.4 1366.64,-1535.6 952.69,-1535.6"/>
<text text-anchor="start" x="959.69" y="-1547.8" font-family="Arial" font-size="14.00">metadata </text>
<text text-anchor="start" x="1021.95" y="-1547.8" font-family="Arial" font-size="14.00" fill="#666666">[jsonb]</text>
<polygon fill="none" stroke="black" points="952.69,-1504.8 952.69,-1535.6 1366.64,-1535.6 1366.64,-1504.8 952.69,-1504.8"/>
<text text-anchor="start" x="959.69" y="-1517" font-family="Arial" font-size="14.00">created_at </text>
<text text-anchor="start" x="1029.74" y="-1517" font-family="Arial" font-size="14.00" fill="#666666">[timestamp with time zone]</text>
</g>
<!-- public.reservation_unit_status_history&#45;&gt;public.reservation_units -->
<g id="edge3" class="edge">
<title>public.reservation_unit_status_history:reservation_unit_id&#45;&gt;public.reservation_units:id</title>
<path fill="none" stroke="black" d="M941.67,-1764.67C886.59,-1741.9 917.76,-1524.41 900.66,-1461.6 884.01,-1400.43 913.03,-1328.4 849.64,-1328.4"/>
<polygon fill="black" stroke="black" points="941.54,-1764.64 950.51,-1770.96 946.78,-1765.65 951.03,-1766.47 951.03,-1766.47 951.03,-1766.47 946.78,-1765.65 952.21,-1762.12 941.54,-1764.64"/>
<text text-anchor="start" x="620.17" y="-1750.6" font-family="Arial" font-size="10.00">FOREIGN KEY (reservation_unit_id) REFERENCES reservation_units(id) ON DELETE CASCADE</text>
</g>
</g>
</svg>
