<?xml version="1.0" encoding="UTF-8" standalone="no"?>
<!DOCTYPE svg PUBLIC "-//W3C//DTD SVG 1.1//EN"
 "http://www.w3.org/Graphics/SVG/1.1/DTD/svg11.dtd">
<!-- Generated by graphviz version 12.1.2 (20240928.0832)
 -->
<!-- Title: public.modifiers Pages: 1 -->
<svg width="2292pt" height="1930pt"
 viewBox="0.00 0.00 2291.83 1930.40" xmlns="http://www.w3.org/2000/svg" xmlns:xlink="http://www.w3.org/1999/xlink">
<g id="graph0" class="graph" transform="scale(1 1) rotate(0) translate(4 1926.4)">
<title>public.modifiers</title>
<polygon fill="white" stroke="none" points="-4,4 -4,-1926.4 2287.83,-1926.4 2287.83,4 -4,4"/>
<!-- public.modifiers -->
<g id="node1" class="node">
<title>public.modifiers</title>
<polygon fill="#efefef" stroke="none" points="975.18,-1251.4 975.18,-1287 1232.15,-1287 1232.15,-1251.4 975.18,-1251.4"/>
<polygon fill="none" stroke="black" points="975.18,-1251.4 975.18,-1287 1232.15,-1287 1232.15,-1251.4 975.18,-1251.4"/>
<text text-anchor="start" x="982.18" y="-1264.8" font-family="Arial Bold" font-size="18.00">public.modifiers</text>
<text text-anchor="start" x="1100.66" y="-1264.8" font-family="Arial" font-size="14.00">    </text>
<text text-anchor="start" x="1131.78" y="-1264.8" font-family="Arial" font-size="14.00" fill="#666666">[BASE TABLE]</text>
<polygon fill="none" stroke="black" points="975.18,-1220.6 975.18,-1251.4 1232.15,-1251.4 1232.15,-1220.6 975.18,-1220.6"/>
<text text-anchor="start" x="982.18" y="-1232.8" font-family="Arial" font-size="14.00">id </text>
<text text-anchor="start" x="996.97" y="-1232.8" font-family="Arial" font-size="14.00" fill="#666666">[uuid]</text>
<polygon fill="none" stroke="black" points="975.18,-1189.8 975.18,-1220.6 1232.15,-1220.6 1232.15,-1189.8 975.18,-1189.8"/>
<text text-anchor="start" x="982.18" y="-1202" font-family="Arial" font-size="14.00">modifier_group_id </text>
<text text-anchor="start" x="1098.14" y="-1202" font-family="Arial" font-size="14.00" fill="#666666">[uuid]</text>
<polygon fill="none" stroke="black" points="975.18,-1159 975.18,-1189.8 1232.15,-1189.8 1232.15,-1159 975.18,-1159"/>
<text text-anchor="start" x="982.18" y="-1171.2" font-family="Arial" font-size="14.00">name </text>
<text text-anchor="start" x="1021.09" y="-1171.2" font-family="Arial" font-size="14.00" fill="#666666">[varchar(255)]</text>
<polygon fill="none" stroke="black" points="975.18,-1128.2 975.18,-1159 1232.15,-1159 1232.15,-1128.2 975.18,-1128.2"/>
<text text-anchor="start" x="982.18" y="-1140.4" font-family="Arial" font-size="14.00">price </text>
<text text-anchor="start" x="1016.42" y="-1140.4" font-family="Arial" font-size="14.00" fill="#666666">[numeric(10,2)]</text>
<polygon fill="none" stroke="black" points="975.18,-1097.4 975.18,-1128.2 1232.15,-1128.2 1232.15,-1097.4 975.18,-1097.4"/>
<text text-anchor="start" x="982.18" y="-1109.6" font-family="Arial" font-size="14.00">max_limit </text>
<text text-anchor="start" x="1045.19" y="-1109.6" font-family="Arial" font-size="14.00" fill="#666666">[integer]</text>
<polygon fill="none" stroke="black" points="975.18,-1066.6 975.18,-1097.4 1232.15,-1097.4 1232.15,-1066.6 975.18,-1066.6"/>
<text text-anchor="start" x="982.18" y="-1078.8" font-family="Arial" font-size="14.00">is_default </text>
<text text-anchor="start" x="1046" y="-1078.8" font-family="Arial" font-size="14.00" fill="#666666">[boolean]</text>
<polygon fill="none" stroke="black" points="975.18,-1035.8 975.18,-1066.6 1232.15,-1066.6 1232.15,-1035.8 975.18,-1035.8"/>
<text text-anchor="start" x="982.18" y="-1048" font-family="Arial" font-size="14.00">is_available </text>
<text text-anchor="start" x="1059.23" y="-1048" font-family="Arial" font-size="14.00" fill="#666666">[boolean]</text>
<polygon fill="none" stroke="black" points="975.18,-1005 975.18,-1035.8 1232.15,-1035.8 1232.15,-1005 975.18,-1005"/>
<text text-anchor="start" x="982.18" y="-1017.2" font-family="Arial" font-size="14.00">sort_order </text>
<text text-anchor="start" x="1049.88" y="-1017.2" font-family="Arial" font-size="14.00" fill="#666666">[integer]</text>
<polygon fill="none" stroke="black" points="975.18,-974.2 975.18,-1005 1232.15,-1005 1232.15,-974.2 975.18,-974.2"/>
<text text-anchor="start" x="982.18" y="-986.4" font-family="Arial" font-size="14.00">created_at </text>
<text text-anchor="start" x="1052.23" y="-986.4" font-family="Arial" font-size="14.00" fill="#666666">[timestamp with time zone]</text>
<polygon fill="none" stroke="black" points="975.18,-943.4 975.18,-974.2 1232.15,-974.2 1232.15,-943.4 975.18,-943.4"/>
<text text-anchor="start" x="982.18" y="-955.6" font-family="Arial" font-size="14.00">updated_at </text>
<text text-anchor="start" x="1056.14" y="-955.6" font-family="Arial" font-size="14.00" fill="#666666">[timestamp with time zone]</text>
<polygon fill="none" stroke="black" points="975.18,-912.6 975.18,-943.4 1232.15,-943.4 1232.15,-912.6 975.18,-912.6"/>
<text text-anchor="start" x="982.18" y="-924.8" font-family="Arial" font-size="14.00">ingredient_id </text>
<text text-anchor="start" x="1066.24" y="-924.8" font-family="Arial" font-size="14.00" fill="#666666">[uuid]</text>
<polygon fill="none" stroke="black" points="975.18,-881.8 975.18,-912.6 1232.15,-912.6 1232.15,-881.8 975.18,-881.8"/>
<text text-anchor="start" x="982.18" y="-894" font-family="Arial" font-size="14.00">ingredient_quantity </text>
<text text-anchor="start" x="1104.38" y="-894" font-family="Arial" font-size="14.00" fill="#666666">[numeric]</text>
<polygon fill="none" stroke="black" points="975.18,-851 975.18,-881.8 1232.15,-881.8 1232.15,-851 975.18,-851"/>
<text text-anchor="start" x="982.18" y="-863.2" font-family="Arial" font-size="14.00">ingredient_unit </text>
<text text-anchor="start" x="1077.92" y="-863.2" font-family="Arial" font-size="14.00" fill="#666666">[varchar(20)]</text>
<polygon fill="none" stroke="black" stroke-width="3" points="973.68,-849.5 973.68,-1288.5 1233.65,-1288.5 1233.65,-849.5 973.68,-849.5"/>
</g>
<!-- public.modifier_groups -->
<g id="node7" class="node">
<title>public.modifier_groups</title>
<polygon fill="#efefef" stroke="none" points="749.68,-520.6 749.68,-556.2 1057.64,-556.2 1057.64,-520.6 749.68,-520.6"/>
<polygon fill="none" stroke="black" points="749.68,-520.6 749.68,-556.2 1057.64,-556.2 1057.64,-520.6 749.68,-520.6"/>
<text text-anchor="start" x="756.68" y="-534" font-family="Arial Bold" font-size="18.00">public.modifier_groups</text>
<text text-anchor="start" x="926.16" y="-534" font-family="Arial" font-size="14.00">    </text>
<text text-anchor="start" x="957.27" y="-534" font-family="Arial" font-size="14.00" fill="#666666">[BASE TABLE]</text>
<polygon fill="none" stroke="black" points="749.68,-489.8 749.68,-520.6 1057.64,-520.6 1057.64,-489.8 749.68,-489.8"/>
<text text-anchor="start" x="756.68" y="-502" font-family="Arial" font-size="14.00">id </text>
<text text-anchor="start" x="771.47" y="-502" font-family="Arial" font-size="14.00" fill="#666666">[uuid]</text>
<polygon fill="none" stroke="black" points="749.68,-459 749.68,-489.8 1057.64,-489.8 1057.64,-459 749.68,-459"/>
<text text-anchor="start" x="756.68" y="-471.2" font-family="Arial" font-size="14.00">product_id </text>
<text text-anchor="start" x="825.95" y="-471.2" font-family="Arial" font-size="14.00" fill="#666666">[uuid]</text>
<polygon fill="none" stroke="black" points="749.68,-428.2 749.68,-459 1057.64,-459 1057.64,-428.2 749.68,-428.2"/>
<text text-anchor="start" x="756.68" y="-440.4" font-family="Arial" font-size="14.00">tenant_id </text>
<text text-anchor="start" x="818.18" y="-440.4" font-family="Arial" font-size="14.00" fill="#666666">[uuid]</text>
<polygon fill="none" stroke="black" points="749.68,-397.4 749.68,-428.2 1057.64,-428.2 1057.64,-397.4 749.68,-397.4"/>
<text text-anchor="start" x="756.68" y="-409.6" font-family="Arial" font-size="14.00">name </text>
<text text-anchor="start" x="795.6" y="-409.6" font-family="Arial" font-size="14.00" fill="#666666">[varchar(255)]</text>
<polygon fill="none" stroke="black" points="749.68,-366.6 749.68,-397.4 1057.64,-397.4 1057.64,-366.6 749.68,-366.6"/>
<text text-anchor="start" x="756.68" y="-378.8" font-family="Arial" font-size="14.00">min_qty </text>
<text text-anchor="start" x="809.6" y="-378.8" font-family="Arial" font-size="14.00" fill="#666666">[integer]</text>
<polygon fill="none" stroke="black" points="749.68,-335.8 749.68,-366.6 1057.64,-366.6 1057.64,-335.8 749.68,-335.8"/>
<text text-anchor="start" x="756.68" y="-348" font-family="Arial" font-size="14.00">max_qty </text>
<text text-anchor="start" x="813.48" y="-348" font-family="Arial" font-size="14.00" fill="#666666">[integer]</text>
<polygon fill="none" stroke="black" points="749.68,-305 749.68,-335.8 1057.64,-335.8 1057.64,-305 749.68,-305"/>
<text text-anchor="start" x="756.68" y="-317.2" font-family="Arial" font-size="14.00">is_required </text>
<text text-anchor="start" x="829.84" y="-317.2" font-family="Arial" font-size="14.00" fill="#666666">[boolean]</text>
<polygon fill="none" stroke="black" points="749.68,-274.2 749.68,-305 1057.64,-305 1057.64,-274.2 749.68,-274.2"/>
<text text-anchor="start" x="756.68" y="-286.4" font-family="Arial" font-size="14.00">sort_order </text>
<text text-anchor="start" x="824.38" y="-286.4" font-family="Arial" font-size="14.00" fill="#666666">[integer]</text>
<polygon fill="none" stroke="black" points="749.68,-243.4 749.68,-274.2 1057.64,-274.2 1057.64,-243.4 749.68,-243.4"/>
<text text-anchor="start" x="756.68" y="-255.6" font-family="Arial" font-size="14.00">created_at </text>
<text text-anchor="start" x="826.73" y="-255.6" font-family="Arial" font-size="14.00" fill="#666666">[timestamp with time zone]</text>
<polygon fill="none" stroke="black" points="749.68,-212.6 749.68,-243.4 1057.64,-243.4 1057.64,-212.6 749.68,-212.6"/>
<text text-anchor="start" x="756.68" y="-224.8" font-family="Arial" font-size="14.00">updated_at </text>
<text text-anchor="start" x="830.64" y="-224.8" font-family="Arial" font-size="14.00" fill="#666666">[timestamp with time zone]</text>
</g>
<!-- public.modifiers&#45;&gt;public.modifier_groups -->
<g id="edge6" class="edge">
<title>public.modifiers:modifier_group_id&#45;&gt;public.modifier_groups:id</title>
<path fill="none" stroke="black" d="M964.12,-1204.94C801.85,-1196.4 941.86,-976.07 975.18,-804.8 993.97,-708.24 1038.47,-695.88 1057.64,-599.4 1065.81,-558.33 1100.51,-505.2 1058.64,-505.2"/>
<polygon fill="black" stroke="black" points="963.85,-1204.94 973.73,-1209.69 969.18,-1205.07 973.51,-1205.18 973.51,-1205.18 973.51,-1205.18 969.18,-1205.07 973.96,-1200.69 963.85,-1204.94"/>
<text text-anchor="start" x="538.72" y="-1215.2" font-family="Arial" font-size="10.00">FOREIGN KEY (modifier_group_id) REFERENCES modifier_groups(id) ON DELETE CASCADE</text>
</g>
<!-- public.ingredients -->
<g id="node8" class="node">
<title>public.ingredients</title>
<polygon fill="#efefef" stroke="none" points="1162.26,-690 1162.26,-725.6 1447.07,-725.6 1447.07,-690 1162.26,-690"/>
<polygon fill="none" stroke="black" points="1162.26,-690 1162.26,-725.6 1447.07,-725.6 1447.07,-690 1162.26,-690"/>
<text text-anchor="start" x="1177.68" y="-703.4" font-family="Arial Bold" font-size="18.00">public.ingredients</text>
<text text-anchor="start" x="1307.16" y="-703.4" font-family="Arial" font-size="14.00">    </text>
<text text-anchor="start" x="1338.27" y="-703.4" font-family="Arial" font-size="14.00" fill="#666666">[BASE TABLE]</text>
<polygon fill="none" stroke="black" points="1162.26,-659.2 1162.26,-690 1447.07,-690 1447.07,-659.2 1162.26,-659.2"/>
<text text-anchor="start" x="1169.26" y="-671.4" font-family="Arial" font-size="14.00">id </text>
<text text-anchor="start" x="1184.04" y="-671.4" font-family="Arial" font-size="14.00" fill="#666666">[uuid]</text>
<polygon fill="none" stroke="black" points="1162.26,-628.4 1162.26,-659.2 1447.07,-659.2 1447.07,-628.4 1162.26,-628.4"/>
<text text-anchor="start" x="1169.26" y="-640.6" font-family="Arial" font-size="14.00">name </text>
<text text-anchor="start" x="1208.17" y="-640.6" font-family="Arial" font-size="14.00" fill="#666666">[varchar(255)]</text>
<polygon fill="none" stroke="black" points="1162.26,-597.6 1162.26,-628.4 1447.07,-628.4 1447.07,-597.6 1162.26,-597.6"/>
<text text-anchor="start" x="1169.26" y="-609.8" font-family="Arial" font-size="14.00">unit </text>
<text text-anchor="start" x="1195.72" y="-609.8" font-family="Arial" font-size="14.00" fill="#666666">[varchar(20)]</text>
<polygon fill="none" stroke="black" points="1162.26,-566.8 1162.26,-597.6 1447.07,-597.6 1447.07,-566.8 1162.26,-566.8"/>
<text text-anchor="start" x="1169.26" y="-579" font-family="Arial" font-size="14.00">created_at </text>
<text text-anchor="start" x="1239.31" y="-579" font-family="Arial" font-size="14.00" fill="#666666">[timestamp with time zone]</text>
<polygon fill="none" stroke="black" points="1162.26,-536 1162.26,-566.8 1447.07,-566.8 1447.07,-536 1162.26,-536"/>
<text text-anchor="start" x="1169.26" y="-548.2" font-family="Arial" font-size="14.00">updated_at </text>
<text text-anchor="start" x="1243.22" y="-548.2" font-family="Arial" font-size="14.00" fill="#666666">[timestamp with time zone]</text>
<polygon fill="none" stroke="black" points="1162.26,-505.2 1162.26,-536 1447.07,-536 1447.07,-505.2 1162.26,-505.2"/>
<text text-anchor="start" x="1169.26" y="-517.4" font-family="Arial" font-size="14.00">tenant_id </text>
<text text-anchor="start" x="1230.75" y="-517.4" font-family="Arial" font-size="14.00" fill="#666666">[uuid]</text>
<polygon fill="none" stroke="black" points="1162.26,-474.4 1162.26,-505.2 1447.07,-505.2 1447.07,-474.4 1162.26,-474.4"/>
<text text-anchor="start" x="1169.26" y="-486.6" font-family="Arial" font-size="14.00">category </text>
<text text-anchor="start" x="1226.84" y="-486.6" font-family="Arial" font-size="14.00" fill="#666666">[varchar]</text>
<polygon fill="none" stroke="black" points="1162.26,-443.6 1162.26,-474.4 1447.07,-474.4 1447.07,-443.6 1162.26,-443.6"/>
<text text-anchor="start" x="1169.26" y="-455.8" font-family="Arial" font-size="14.00">description </text>
<text text-anchor="start" x="1240.85" y="-455.8" font-family="Arial" font-size="14.00" fill="#666666">[text]</text>
<polygon fill="none" stroke="black" points="1162.26,-412.8 1162.26,-443.6 1447.07,-443.6 1447.07,-412.8 1162.26,-412.8"/>
<text text-anchor="start" x="1169.26" y="-425" font-family="Arial" font-size="14.00">minimum_order_quantity </text>
<text text-anchor="start" x="1327.22" y="-425" font-family="Arial" font-size="14.00" fill="#666666">[numeric]</text>
<polygon fill="none" stroke="black" points="1162.26,-382 1162.26,-412.8 1447.07,-412.8 1447.07,-382 1162.26,-382"/>
<text text-anchor="start" x="1169.26" y="-394.2" font-family="Arial" font-size="14.00">controla_inventario </text>
<text text-anchor="start" x="1291.44" y="-394.2" font-family="Arial" font-size="14.00" fill="#666666">[boolean]</text>
<polygon fill="none" stroke="black" points="1162.26,-351.2 1162.26,-382 1447.07,-382 1447.07,-351.2 1162.26,-351.2"/>
<text text-anchor="start" x="1169.26" y="-363.4" font-family="Arial" font-size="14.00">costo_unitario </text>
<text text-anchor="start" x="1260.31" y="-363.4" font-family="Arial" font-size="14.00" fill="#666666">[numeric(10,2)]</text>
<polygon fill="none" stroke="black" points="1162.26,-320.4 1162.26,-351.2 1447.07,-351.2 1447.07,-320.4 1162.26,-320.4"/>
<text text-anchor="start" x="1169.26" y="-332.6" font-family="Arial" font-size="14.00">metodo_valoracion </text>
<text text-anchor="start" x="1291.44" y="-332.6" font-family="Arial" font-size="14.00" fill="#666666">[varchar(20)]</text>
<polygon fill="none" stroke="black" points="1162.26,-289.6 1162.26,-320.4 1447.07,-320.4 1447.07,-289.6 1162.26,-289.6"/>
<text text-anchor="start" x="1169.26" y="-301.8" font-family="Arial" font-size="14.00">permite_vencimiento </text>
<text text-anchor="start" x="1302.32" y="-301.8" font-family="Arial" font-size="14.00" fill="#666666">[boolean]</text>
<polygon fill="none" stroke="black" points="1162.26,-258.8 1162.26,-289.6 1447.07,-289.6 1447.07,-258.8 1162.26,-258.8"/>
<text text-anchor="start" x="1169.26" y="-271" font-family="Arial" font-size="14.00">type </text>
<text text-anchor="start" x="1199.61" y="-271" font-family="Arial" font-size="14.00" fill="#666666">[varchar(20)]</text>
<polygon fill="none" stroke="black" points="1162.26,-228 1162.26,-258.8 1447.07,-258.8 1447.07,-228 1162.26,-228"/>
<text text-anchor="start" x="1169.26" y="-240.2" font-family="Arial" font-size="14.00">is_resale </text>
<text text-anchor="start" x="1229.18" y="-240.2" font-family="Arial" font-size="14.00" fill="#666666">[boolean]</text>
<polygon fill="none" stroke="black" points="1162.26,-197.2 1162.26,-228 1447.07,-228 1447.07,-197.2 1162.26,-197.2"/>
<text text-anchor="start" x="1169.26" y="-209.4" font-family="Arial" font-size="14.00">unit_weight_gr </text>
<text text-anchor="start" x="1264.21" y="-209.4" font-family="Arial" font-size="14.00" fill="#666666">[numeric]</text>
<polygon fill="none" stroke="black" points="1162.26,-166.4 1162.26,-197.2 1447.07,-197.2 1447.07,-166.4 1162.26,-166.4"/>
<text text-anchor="start" x="1169.26" y="-178.6" font-family="Arial" font-size="14.00">ai_generated </text>
<text text-anchor="start" x="1254.89" y="-178.6" font-family="Arial" font-size="14.00" fill="#666666">[boolean]</text>
<polygon fill="none" stroke="black" points="1162.26,-135.6 1162.26,-166.4 1447.07,-166.4 1447.07,-135.6 1162.26,-135.6"/>
<text text-anchor="start" x="1169.26" y="-147.8" font-family="Arial" font-size="14.00">ai_generated_at </text>
<text text-anchor="start" x="1274.35" y="-147.8" font-family="Arial" font-size="14.00" fill="#666666">[timestamp with time zone]</text>
<polygon fill="none" stroke="black" points="1162.26,-104.8 1162.26,-135.6 1447.07,-135.6 1447.07,-104.8 1162.26,-104.8"/>
<text text-anchor="start" x="1169.26" y="-117" font-family="Arial" font-size="14.00">parent_id </text>
<text text-anchor="start" x="1231.53" y="-117" font-family="Arial" font-size="14.00" fill="#666666">[uuid]</text>
<polygon fill="none" stroke="black" points="1162.26,-74 1162.26,-104.8 1447.07,-104.8 1447.07,-74 1162.26,-74"/>
<text text-anchor="start" x="1169.26" y="-86.2" font-family="Arial" font-size="14.00">is_active </text>
<text text-anchor="start" x="1227.62" y="-86.2" font-family="Arial" font-size="14.00" fill="#666666">[boolean]</text>
<polygon fill="none" stroke="black" points="1162.26,-43.2 1162.26,-74 1447.07,-74 1447.07,-43.2 1162.26,-43.2"/>
<text text-anchor="start" x="1169.26" y="-55.4" font-family="Arial" font-size="14.00">unit_weight_unit </text>
<text text-anchor="start" x="1274.33" y="-55.4" font-family="Arial" font-size="14.00" fill="#666666">[varchar(5)]</text>
</g>
<!-- public.modifiers&#45;&gt;public.ingredients -->
<g id="edge7" class="edge">
<title>public.modifiers:ingredient_id&#45;&gt;public.ingredients:id</title>
<path fill="none" stroke="black" d="M1243.51,-926.9C1284.09,-917.38 1258.83,-848.16 1232.15,-804.8 1213.84,-775.04 1180.61,-798.53 1162.26,-768.8 1140.27,-733.17 1119.39,-674.6 1161.26,-674.6"/>
<polygon fill="black" stroke="black" points="1243.42,-926.91 1233.01,-923.49 1238.12,-927.47 1233.81,-927.93 1233.81,-927.93 1233.81,-927.93 1238.12,-927.47 1233.95,-932.44 1243.42,-926.91"/>
<text text-anchor="start" x="1240.15" y="-938" font-family="Arial" font-size="10.00">FOREIGN KEY (ingredient_id) REFERENCES ingredients(id) ON DELETE SET NULL</text>
</g>
<!-- public.modifier_change_history -->
<g id="node2" class="node">
<title>public.modifier_change_history</title>
<polygon fill="#efefef" stroke="none" points="43.2,-1843.6 43.2,-1879.2 412.13,-1879.2 412.13,-1843.6 43.2,-1843.6"/>
<polygon fill="none" stroke="black" points="43.2,-1843.6 43.2,-1879.2 412.13,-1879.2 412.13,-1843.6 43.2,-1843.6"/>
<text text-anchor="start" x="50.2" y="-1857" font-family="Arial Bold" font-size="18.00">public.modifier_change_history</text>
<text text-anchor="start" x="280.64" y="-1857" font-family="Arial" font-size="14.00">    </text>
<text text-anchor="start" x="311.76" y="-1857" font-family="Arial" font-size="14.00" fill="#666666">[BASE TABLE]</text>
<polygon fill="none" stroke="black" points="43.2,-1812.8 43.2,-1843.6 412.13,-1843.6 412.13,-1812.8 43.2,-1812.8"/>
<text text-anchor="start" x="50.2" y="-1825" font-family="Arial" font-size="14.00">id </text>
<text text-anchor="start" x="64.99" y="-1825" font-family="Arial" font-size="14.00" fill="#666666">[uuid]</text>
<polygon fill="none" stroke="black" points="43.2,-1782 43.2,-1812.8 412.13,-1812.8 412.13,-1782 43.2,-1782"/>
<text text-anchor="start" x="50.2" y="-1794.2" font-family="Arial" font-size="14.00">tenant_id </text>
<text text-anchor="start" x="111.7" y="-1794.2" font-family="Arial" font-size="14.00" fill="#666666">[uuid]</text>
<polygon fill="none" stroke="black" points="43.2,-1751.2 43.2,-1782 412.13,-1782 412.13,-1751.2 43.2,-1751.2"/>
<text text-anchor="start" x="50.2" y="-1763.4" font-family="Arial" font-size="14.00">entity_type </text>
<text text-anchor="start" x="121.8" y="-1763.4" font-family="Arial" font-size="14.00" fill="#666666">[varchar(20)]</text>
<polygon fill="none" stroke="black" points="43.2,-1720.4 43.2,-1751.2 412.13,-1751.2 412.13,-1720.4 43.2,-1720.4"/>
<text text-anchor="start" x="50.2" y="-1732.6" font-family="Arial" font-size="14.00">modifier_group_id </text>
<text text-anchor="start" x="166.16" y="-1732.6" font-family="Arial" font-size="14.00" fill="#666666">[uuid]</text>
<polygon fill="none" stroke="black" points="43.2,-1689.6 43.2,-1720.4 412.13,-1720.4 412.13,-1689.6 43.2,-1689.6"/>
<text text-anchor="start" x="50.2" y="-1701.8" font-family="Arial" font-size="14.00">modifier_id </text>
<text text-anchor="start" x="122.57" y="-1701.8" font-family="Arial" font-size="14.00" fill="#666666">[uuid]</text>
<polygon fill="none" stroke="black" points="43.2,-1658.8 43.2,-1689.6 412.13,-1689.6 412.13,-1658.8 43.2,-1658.8"/>
<text text-anchor="start" x="50.2" y="-1671" font-family="Arial" font-size="14.00">entity_name </text>
<text text-anchor="start" x="130.36" y="-1671" font-family="Arial" font-size="14.00" fill="#666666">[varchar(255)]</text>
<polygon fill="none" stroke="black" points="43.2,-1628 43.2,-1658.8 412.13,-1658.8 412.13,-1628 43.2,-1628"/>
<text text-anchor="start" x="50.2" y="-1640.2" font-family="Arial" font-size="14.00">change_type </text>
<text text-anchor="start" x="134.27" y="-1640.2" font-family="Arial" font-size="14.00" fill="#666666">[varchar(20)]</text>
<polygon fill="none" stroke="black" points="43.2,-1597.2 43.2,-1628 412.13,-1628 412.13,-1597.2 43.2,-1597.2"/>
<text text-anchor="start" x="50.2" y="-1609.4" font-family="Arial" font-size="14.00">field_changed </text>
<text text-anchor="start" x="141.28" y="-1609.4" font-family="Arial" font-size="14.00" fill="#666666">[varchar(100)]</text>
<polygon fill="none" stroke="black" points="43.2,-1566.4 43.2,-1597.2 412.13,-1597.2 412.13,-1566.4 43.2,-1566.4"/>
<text text-anchor="start" x="50.2" y="-1578.6" font-family="Arial" font-size="14.00">old_value </text>
<text text-anchor="start" x="114.03" y="-1578.6" font-family="Arial" font-size="14.00" fill="#666666">[jsonb]</text>
<polygon fill="none" stroke="black" points="43.2,-1535.6 43.2,-1566.4 412.13,-1566.4 412.13,-1535.6 43.2,-1535.6"/>
<text text-anchor="start" x="50.2" y="-1547.8" font-family="Arial" font-size="14.00">new_value </text>
<text text-anchor="start" x="121.03" y="-1547.8" font-family="Arial" font-size="14.00" fill="#666666">[jsonb]</text>
<polygon fill="none" stroke="black" points="43.2,-1504.8 43.2,-1535.6 412.13,-1535.6 412.13,-1504.8 43.2,-1504.8"/>
<text text-anchor="start" x="50.2" y="-1517" font-family="Arial" font-size="14.00">modifier_snapshot </text>
<text text-anchor="start" x="168.49" y="-1517" font-family="Arial" font-size="14.00" fill="#666666">[jsonb]</text>
<polygon fill="none" stroke="black" points="43.2,-1474 43.2,-1504.8 412.13,-1504.8 412.13,-1474 43.2,-1474"/>
<text text-anchor="start" x="50.2" y="-1486.2" font-family="Arial" font-size="14.00">changed_by </text>
<text text-anchor="start" x="130.38" y="-1486.2" font-family="Arial" font-size="14.00" fill="#666666">[uuid]</text>
<polygon fill="none" stroke="black" points="43.2,-1443.2 43.2,-1474 412.13,-1474 412.13,-1443.2 43.2,-1443.2"/>
<text text-anchor="start" x="50.2" y="-1455.4" font-family="Arial" font-size="14.00">reason </text>
<text text-anchor="start" x="96.9" y="-1455.4" font-family="Arial" font-size="14.00" fill="#666666">[text]</text>
<polygon fill="none" stroke="black" points="43.2,-1412.4 43.2,-1443.2 412.13,-1443.2 412.13,-1412.4 43.2,-1412.4"/>
<text text-anchor="start" x="50.2" y="-1424.6" font-family="Arial" font-size="14.00">created_at </text>
<text text-anchor="start" x="120.25" y="-1424.6" font-family="Arial" font-size="14.00" fill="#666666">[timestamp with time zone]</text>
</g>
<!-- public.modifier_change_history&#45;&gt;public.modifiers -->
<g id="edge1" class="edge">
<title>public.modifier_change_history:modifier_id&#45;&gt;public.modifiers:id</title>
<path fill="none" stroke="black" d="M423.15,-1703.06C481.65,-1678.22 416.58,-1422.53 464.66,-1369.2 543.03,-1282.28 857.15,-1236 974.18,-1236"/>
<polygon fill="black" stroke="black" points="423.28,-1703.03 412.6,-1700.52 418.04,-1704.05 413.79,-1704.87 413.79,-1704.87 413.79,-1704.87 418.04,-1704.05 414.31,-1709.35 423.28,-1703.03"/>
<text text-anchor="start" x="230.04" y="-1689" font-family="Arial" font-size="10.00">FOREIGN KEY (modifier_id) REFERENCES modifiers(id) ON DELETE CASCADE</text>
</g>
<!-- public.modifier_recipes -->
<g id="node3" class="node">
<title>public.modifier_recipes</title>
<polygon fill="#efefef" stroke="none" points="516.7,-1720.4 516.7,-1756 826.63,-1756 826.63,-1720.4 516.7,-1720.4"/>
<polygon fill="none" stroke="black" points="516.7,-1720.4 516.7,-1756 826.63,-1756 826.63,-1720.4 516.7,-1720.4"/>
<text text-anchor="start" x="523.7" y="-1733.8" font-family="Arial Bold" font-size="18.00">public.modifier_recipes</text>
<text text-anchor="start" x="695.14" y="-1733.8" font-family="Arial" font-size="14.00">    </text>
<text text-anchor="start" x="726.26" y="-1733.8" font-family="Arial" font-size="14.00" fill="#666666">[BASE TABLE]</text>
<polygon fill="none" stroke="black" points="516.7,-1689.6 516.7,-1720.4 826.63,-1720.4 826.63,-1689.6 516.7,-1689.6"/>
<text text-anchor="start" x="523.7" y="-1701.8" font-family="Arial" font-size="14.00">id </text>
<text text-anchor="start" x="538.49" y="-1701.8" font-family="Arial" font-size="14.00" fill="#666666">[uuid]</text>
<polygon fill="none" stroke="black" points="516.7,-1658.8 516.7,-1689.6 826.63,-1689.6 826.63,-1658.8 516.7,-1658.8"/>
<text text-anchor="start" x="523.7" y="-1671" font-family="Arial" font-size="14.00">modifier_id </text>
<text text-anchor="start" x="596.07" y="-1671" font-family="Arial" font-size="14.00" fill="#666666">[uuid]</text>
<polygon fill="none" stroke="black" points="516.7,-1628 516.7,-1658.8 826.63,-1658.8 826.63,-1628 516.7,-1628"/>
<text text-anchor="start" x="523.7" y="-1640.2" font-family="Arial" font-size="14.00">ingredient_id </text>
<text text-anchor="start" x="607.76" y="-1640.2" font-family="Arial" font-size="14.00" fill="#666666">[uuid]</text>
<polygon fill="none" stroke="black" points="516.7,-1597.2 516.7,-1628 826.63,-1628 826.63,-1597.2 516.7,-1597.2"/>
<text text-anchor="start" x="523.7" y="-1609.4" font-family="Arial" font-size="14.00">quantity </text>
<text text-anchor="start" x="576.62" y="-1609.4" font-family="Arial" font-size="14.00" fill="#666666">[numeric(10,3)]</text>
<polygon fill="none" stroke="black" points="516.7,-1566.4 516.7,-1597.2 826.63,-1597.2 826.63,-1566.4 516.7,-1566.4"/>
<text text-anchor="start" x="523.7" y="-1578.6" font-family="Arial" font-size="14.00">unit </text>
<text text-anchor="start" x="550.16" y="-1578.6" font-family="Arial" font-size="14.00" fill="#666666">[varchar(50)]</text>
<polygon fill="none" stroke="black" points="516.7,-1535.6 516.7,-1566.4 826.63,-1566.4 826.63,-1535.6 516.7,-1535.6"/>
<text text-anchor="start" x="523.7" y="-1547.8" font-family="Arial" font-size="14.00">created_at </text>
<text text-anchor="start" x="593.75" y="-1547.8" font-family="Arial" font-size="14.00" fill="#666666">[timestamp with time zone]</text>
</g>
<!-- public.modifier_recipes&#45;&gt;public.modifiers -->
<g id="edge2" class="edge">
<title>public.modifier_recipes:modifier_id&#45;&gt;public.modifiers:id</title>
<path fill="none" stroke="black" d="M837.59,-1672.25C891.9,-1649.22 853.68,-1429.31 878.66,-1369.2 906.63,-1301.93 901.33,-1236 974.18,-1236"/>
<polygon fill="black" stroke="black" points="837.77,-1672.21 827.09,-1669.72 832.54,-1673.24 828.29,-1674.07 828.29,-1674.07 828.29,-1674.07 832.54,-1673.24 828.82,-1678.55 837.77,-1672.21"/>
<text text-anchor="start" x="834.63" y="-1684.2" font-family="Arial" font-size="10.00">FOREIGN KEY (modifier_id) REFERENCES modifiers(id) ON DELETE CASCADE</text>
</g>
<!-- public.order_item_modifiers -->
<g id="node4" class="node">
<title>public.order_item_modifiers</title>
<polygon fill="#efefef" stroke="none" points="931.2,-1735.8 931.2,-1771.4 1276.13,-1771.4 1276.13,-1735.8 931.2,-1735.8"/>
<polygon fill="none" stroke="black" points="931.2,-1735.8 931.2,-1771.4 1276.13,-1771.4 1276.13,-1735.8 931.2,-1735.8"/>
<text text-anchor="start" x="938.2" y="-1749.2" font-family="Arial Bold" font-size="18.00">public.order_item_modifiers</text>
<text text-anchor="start" x="1144.64" y="-1749.2" font-family="Arial" font-size="14.00">    </text>
<text text-anchor="start" x="1175.76" y="-1749.2" font-family="Arial" font-size="14.00" fill="#666666">[BASE TABLE]</text>
<polygon fill="none" stroke="black" points="931.2,-1705 931.2,-1735.8 1276.13,-1735.8 1276.13,-1705 931.2,-1705"/>
<text text-anchor="start" x="938.2" y="-1717.2" font-family="Arial" font-size="14.00">id </text>
<text text-anchor="start" x="952.98" y="-1717.2" font-family="Arial" font-size="14.00" fill="#666666">[uuid]</text>
<polygon fill="none" stroke="black" points="931.2,-1674.2 931.2,-1705 1276.13,-1705 1276.13,-1674.2 931.2,-1674.2"/>
<text text-anchor="start" x="938.2" y="-1686.4" font-family="Arial" font-size="14.00">order_item_id </text>
<text text-anchor="start" x="1027.69" y="-1686.4" font-family="Arial" font-size="14.00" fill="#666666">[uuid]</text>
<polygon fill="none" stroke="black" points="931.2,-1643.4 931.2,-1674.2 1276.13,-1674.2 1276.13,-1643.4 931.2,-1643.4"/>
<text text-anchor="start" x="938.2" y="-1655.6" font-family="Arial" font-size="14.00">modifier_id </text>
<text text-anchor="start" x="1010.56" y="-1655.6" font-family="Arial" font-size="14.00" fill="#666666">[uuid]</text>
<polygon fill="none" stroke="black" points="931.2,-1612.6 931.2,-1643.4 1276.13,-1643.4 1276.13,-1612.6 931.2,-1612.6"/>
<text text-anchor="start" x="938.2" y="-1624.8" font-family="Arial" font-size="14.00">quantity </text>
<text text-anchor="start" x="991.12" y="-1624.8" font-family="Arial" font-size="14.00" fill="#666666">[numeric(10,4)]</text>
<polygon fill="none" stroke="black" points="931.2,-1581.8 931.2,-1612.6 1276.13,-1612.6 1276.13,-1581.8 931.2,-1581.8"/>
<text text-anchor="start" x="938.2" y="-1594" font-family="Arial" font-size="14.00">price_at_purchase </text>
<text text-anchor="start" x="1057.27" y="-1594" font-family="Arial" font-size="14.00" fill="#666666">[numeric(10,2)]</text>
<polygon fill="none" stroke="black" points="931.2,-1551 931.2,-1581.8 1276.13,-1581.8 1276.13,-1551 931.2,-1551"/>
<text text-anchor="start" x="938.2" y="-1563.2" font-family="Arial" font-size="14.00">created_at </text>
<text text-anchor="start" x="1008.24" y="-1563.2" font-family="Arial" font-size="14.00" fill="#666666">[timestamp with time zone]</text>
<polygon fill="none" stroke="black" points="931.2,-1520.2 931.2,-1551 1276.13,-1551 1276.13,-1520.2 931.2,-1520.2"/>
<text text-anchor="start" x="938.2" y="-1532.4" font-family="Arial" font-size="14.00">modifier_name </text>
<text text-anchor="start" x="1034.69" y="-1532.4" font-family="Arial" font-size="14.00" fill="#666666">[varchar(255)]</text>
</g>
<!-- public.order_item_modifiers&#45;&gt;public.modifiers -->
<g id="edge3" class="edge">
<title>public.order_item_modifiers:modifier_id&#45;&gt;public.modifiers:id</title>
<path fill="none" stroke="black" d="M1285.57,-1653.14C1318.34,-1602.97 1277.15,-1236 1233.15,-1236"/>
<polygon fill="black" stroke="black" points="1285.72,-1653.04 1274.9,-1654.88 1281.29,-1656.02 1277.69,-1658.43 1277.69,-1658.43 1277.69,-1658.43 1281.29,-1656.02 1279.92,-1662.35 1285.72,-1653.04"/>
<text text-anchor="start" x="1149.33" y="-1642.8" font-family="Arial" font-size="10.00">FOREIGN KEY (modifier_id) REFERENCES modifiers(id)</text>
</g>
<!-- public.pos_cart_item_modifiers -->
<g id="node5" class="node">
<title>public.pos_cart_item_modifiers</title>
<polygon fill="#efefef" stroke="none" points="1380.7,-1720.4 1380.7,-1756 1748.63,-1756 1748.63,-1720.4 1380.7,-1720.4"/>
<polygon fill="none" stroke="black" points="1380.7,-1720.4 1380.7,-1756 1748.63,-1756 1748.63,-1720.4 1380.7,-1720.4"/>
<text text-anchor="start" x="1387.7" y="-1733.8" font-family="Arial Bold" font-size="18.00">public.pos_cart_item_modifiers</text>
<text text-anchor="start" x="1617.14" y="-1733.8" font-family="Arial" font-size="14.00">    </text>
<text text-anchor="start" x="1648.26" y="-1733.8" font-family="Arial" font-size="14.00" fill="#666666">[BASE TABLE]</text>
<polygon fill="none" stroke="black" points="1380.7,-1689.6 1380.7,-1720.4 1748.63,-1720.4 1748.63,-1689.6 1380.7,-1689.6"/>
<text text-anchor="start" x="1387.7" y="-1701.8" font-family="Arial" font-size="14.00">id </text>
<text text-anchor="start" x="1402.48" y="-1701.8" font-family="Arial" font-size="14.00" fill="#666666">[uuid]</text>
<polygon fill="none" stroke="black" points="1380.7,-1658.8 1380.7,-1689.6 1748.63,-1689.6 1748.63,-1658.8 1380.7,-1658.8"/>
<text text-anchor="start" x="1387.7" y="-1671" font-family="Arial" font-size="14.00">cart_item_id </text>
<text text-anchor="start" x="1467.84" y="-1671" font-family="Arial" font-size="14.00" fill="#666666">[uuid]</text>
<polygon fill="none" stroke="black" points="1380.7,-1628 1380.7,-1658.8 1748.63,-1658.8 1748.63,-1628 1380.7,-1628"/>
<text text-anchor="start" x="1387.7" y="-1640.2" font-family="Arial" font-size="14.00">modifier_id </text>
<text text-anchor="start" x="1460.06" y="-1640.2" font-family="Arial" font-size="14.00" fill="#666666">[uuid]</text>
<polygon fill="none" stroke="black" points="1380.7,-1597.2 1380.7,-1628 1748.63,-1628 1748.63,-1597.2 1380.7,-1597.2"/>
<text text-anchor="start" x="1387.7" y="-1609.4" font-family="Arial" font-size="14.00">modifier_name </text>
<text text-anchor="start" x="1484.19" y="-1609.4" font-family="Arial" font-size="14.00" fill="#666666">[varchar(255)]</text>
<polygon fill="none" stroke="black" points="1380.7,-1566.4 1380.7,-1597.2 1748.63,-1597.2 1748.63,-1566.4 1380.7,-1566.4"/>
<text text-anchor="start" x="1387.7" y="-1578.6" font-family="Arial" font-size="14.00">price </text>
<text text-anchor="start" x="1421.93" y="-1578.6" font-family="Arial" font-size="14.00" fill="#666666">[numeric(10,2)]</text>
<polygon fill="none" stroke="black" points="1380.7,-1535.6 1380.7,-1566.4 1748.63,-1566.4 1748.63,-1535.6 1380.7,-1535.6"/>
<text text-anchor="start" x="1387.7" y="-1547.8" font-family="Arial" font-size="14.00">created_at </text>
<text text-anchor="start" x="1457.74" y="-1547.8" font-family="Arial" font-size="14.00" fill="#666666">[timestamp with time zone]</text>
</g>
<!-- public.pos_cart_item_modifiers&#45;&gt;public.modifiers -->
<g id="edge4" class="edge">
<title>public.pos_cart_item_modifiers:modifier_id&#45;&gt;public.modifiers:id</title>
<path fill="none" stroke="black" d="M1369.77,-1641.24C1321.64,-1618.5 1351.55,-1422.87 1328.66,-1369.2 1300.09,-1302.19 1306,-1236 1233.15,-1236"/>
<polygon fill="black" stroke="black" points="1369.6,-1641.2 1378.41,-1647.73 1374.81,-1642.34 1379.04,-1643.26 1379.04,-1643.26 1379.04,-1643.26 1374.81,-1642.34 1380.33,-1638.93 1369.6,-1641.2"/>
<text text-anchor="start" x="1006.51" y="-1653.4" font-family="Arial" font-size="10.00">FOREIGN KEY (modifier_id) REFERENCES modifiers(id) ON DELETE CASCADE</text>
</g>
<!-- public.online_cart_item_modifiers -->
<g id="node6" class="node">
<title>public.online_cart_item_modifiers</title>
<polygon fill="#efefef" stroke="none" points="1852.7,-1720.4 1852.7,-1756 2240.63,-1756 2240.63,-1720.4 1852.7,-1720.4"/>
<polygon fill="none" stroke="black" points="1852.7,-1720.4 1852.7,-1756 2240.63,-1756 2240.63,-1720.4 1852.7,-1720.4"/>
<text text-anchor="start" x="1859.7" y="-1733.8" font-family="Arial Bold" font-size="18.00">public.online_cart_item_modifiers</text>
<text text-anchor="start" x="2109.14" y="-1733.8" font-family="Arial" font-size="14.00">    </text>
<text text-anchor="start" x="2140.25" y="-1733.8" font-family="Arial" font-size="14.00" fill="#666666">[BASE TABLE]</text>
<polygon fill="none" stroke="black" points="1852.7,-1689.6 1852.7,-1720.4 2240.63,-1720.4 2240.63,-1689.6 1852.7,-1689.6"/>
<text text-anchor="start" x="1859.7" y="-1701.8" font-family="Arial" font-size="14.00">id </text>
<text text-anchor="start" x="1874.49" y="-1701.8" font-family="Arial" font-size="14.00" fill="#666666">[uuid]</text>
<polygon fill="none" stroke="black" points="1852.7,-1658.8 1852.7,-1689.6 2240.63,-1689.6 2240.63,-1658.8 1852.7,-1658.8"/>
<text text-anchor="start" x="1859.7" y="-1671" font-family="Arial" font-size="14.00">cart_item_id </text>
<text text-anchor="start" x="1939.85" y="-1671" font-family="Arial" font-size="14.00" fill="#666666">[uuid]</text>
<polygon fill="none" stroke="black" points="1852.7,-1628 1852.7,-1658.8 2240.63,-1658.8 2240.63,-1628 1852.7,-1628"/>
<text text-anchor="start" x="1859.7" y="-1640.2" font-family="Arial" font-size="14.00">modifier_id </text>
<text text-anchor="start" x="1932.07" y="-1640.2" font-family="Arial" font-size="14.00" fill="#666666">[uuid]</text>
<polygon fill="none" stroke="black" points="1852.7,-1597.2 1852.7,-1628 2240.63,-1628 2240.63,-1597.2 1852.7,-1597.2"/>
<text text-anchor="start" x="1859.7" y="-1609.4" font-family="Arial" font-size="14.00">modifier_name </text>
<text text-anchor="start" x="1956.19" y="-1609.4" font-family="Arial" font-size="14.00" fill="#666666">[varchar]</text>
<polygon fill="none" stroke="black" points="1852.7,-1566.4 1852.7,-1597.2 2240.63,-1597.2 2240.63,-1566.4 1852.7,-1566.4"/>
<text text-anchor="start" x="1859.7" y="-1578.6" font-family="Arial" font-size="14.00">price </text>
<text text-anchor="start" x="1893.94" y="-1578.6" font-family="Arial" font-size="14.00" fill="#666666">[numeric]</text>
<polygon fill="none" stroke="black" points="1852.7,-1535.6 1852.7,-1566.4 2240.63,-1566.4 2240.63,-1535.6 1852.7,-1535.6"/>
<text text-anchor="start" x="1859.7" y="-1547.8" font-family="Arial" font-size="14.00">created_at </text>
<text text-anchor="start" x="1929.75" y="-1547.8" font-family="Arial" font-size="14.00" fill="#666666">[timestamp with time zone]</text>
</g>
<!-- public.online_cart_item_modifiers&#45;&gt;public.modifiers -->
<g id="edge5" class="edge">
<title>public.online_cart_item_modifiers:modifier_id&#45;&gt;public.modifiers:id</title>
<path fill="none" stroke="black" d="M1841.52,-1642.93C1736.82,-1632.67 1883.75,-1456.24 1800.66,-1369.2 1711.22,-1275.5 1362.69,-1236 1233.15,-1236"/>
<polygon fill="black" stroke="black" points="1841.38,-1642.93 1851.16,-1647.88 1846.71,-1643.17 1851.04,-1643.37 1851.04,-1643.37 1851.04,-1643.37 1846.71,-1643.17 1851.58,-1638.89 1841.38,-1642.93"/>
<text text-anchor="start" x="1589.1" y="-1653.4" font-family="Arial" font-size="10.00">FOREIGN KEY (modifier_id) REFERENCES modifiers(id)</text>
</g>
</g>
</svg>
