<?xml version="1.0" encoding="UTF-8" standalone="no"?>
<!DOCTYPE svg PUBLIC "-//W3C//DTD SVG 1.1//EN"
 "http://www.w3.org/Graphics/SVG/1.1/DTD/svg11.dtd">
<!-- Generated by graphviz version 12.1.2 (20240928.0832)
 -->
<!-- Title: public.modifier_change_history Pages: 1 -->
<svg width="1482pt" height="1464pt"
 viewBox="0.00 0.00 1481.88 1464.40" xmlns="http://www.w3.org/2000/svg" xmlns:xlink="http://www.w3.org/1999/xlink">
<g id="graph0" class="graph" transform="scale(1 1) rotate(0) translate(4 1460.4)">
<title>public.modifier_change_history</title>
<polygon fill="white" stroke="none" points="-4,4 -4,-1460.4 1477.88,-1460.4 1477.88,4 -4,4"/>
<!-- public.modifier_change_history -->
<g id="node1" class="node">
<title>public.modifier_change_history</title>
<polygon fill="#efefef" stroke="none" points="565.38,-1374.6 565.38,-1410.2 934.31,-1410.2 934.31,-1374.6 565.38,-1374.6"/>
<polygon fill="none" stroke="black" points="565.38,-1374.6 565.38,-1410.2 934.31,-1410.2 934.31,-1374.6 565.38,-1374.6"/>
<text text-anchor="start" x="572.38" y="-1388" font-family="Arial Bold" font-size="18.00">public.modifier_change_history</text>
<text text-anchor="start" x="802.82" y="-1388" font-family="Arial" font-size="14.00">    </text>
<text text-anchor="start" x="833.94" y="-1388" font-family="Arial" font-size="14.00" fill="#666666">[BASE TABLE]</text>
<polygon fill="none" stroke="black" points="565.38,-1343.8 565.38,-1374.6 934.31,-1374.6 934.31,-1343.8 565.38,-1343.8"/>
<text text-anchor="start" x="572.38" y="-1356" font-family="Arial" font-size="14.00">id </text>
<text text-anchor="start" x="587.17" y="-1356" font-family="Arial" font-size="14.00" fill="#666666">[uuid]</text>
<polygon fill="none" stroke="black" points="565.38,-1313 565.38,-1343.8 934.31,-1343.8 934.31,-1313 565.38,-1313"/>
<text text-anchor="start" x="572.38" y="-1325.2" font-family="Arial" font-size="14.00">tenant_id </text>
<text text-anchor="start" x="633.88" y="-1325.2" font-family="Arial" font-size="14.00" fill="#666666">[uuid]</text>
<polygon fill="none" stroke="black" points="565.38,-1282.2 565.38,-1313 934.31,-1313 934.31,-1282.2 565.38,-1282.2"/>
<text text-anchor="start" x="572.38" y="-1294.4" font-family="Arial" font-size="14.00">entity_type </text>
<text text-anchor="start" x="643.98" y="-1294.4" font-family="Arial" font-size="14.00" fill="#666666">[varchar(20)]</text>
<polygon fill="none" stroke="black" points="565.38,-1251.4 565.38,-1282.2 934.31,-1282.2 934.31,-1251.4 565.38,-1251.4"/>
<text text-anchor="start" x="572.38" y="-1263.6" font-family="Arial" font-size="14.00">modifier_group_id </text>
<text text-anchor="start" x="688.34" y="-1263.6" font-family="Arial" font-size="14.00" fill="#666666">[uuid]</text>
<polygon fill="none" stroke="black" points="565.38,-1220.6 565.38,-1251.4 934.31,-1251.4 934.31,-1220.6 565.38,-1220.6"/>
<text text-anchor="start" x="572.38" y="-1232.8" font-family="Arial" font-size="14.00">modifier_id </text>
<text text-anchor="start" x="644.74" y="-1232.8" font-family="Arial" font-size="14.00" fill="#666666">[uuid]</text>
<polygon fill="none" stroke="black" points="565.38,-1189.8 565.38,-1220.6 934.31,-1220.6 934.31,-1189.8 565.38,-1189.8"/>
<text text-anchor="start" x="572.38" y="-1202" font-family="Arial" font-size="14.00">entity_name </text>
<text text-anchor="start" x="652.54" y="-1202" font-family="Arial" font-size="14.00" fill="#666666">[varchar(255)]</text>
<polygon fill="none" stroke="black" points="565.38,-1159 565.38,-1189.8 934.31,-1189.8 934.31,-1159 565.38,-1159"/>
<text text-anchor="start" x="572.38" y="-1171.2" font-family="Arial" font-size="14.00">change_type </text>
<text text-anchor="start" x="656.45" y="-1171.2" font-family="Arial" font-size="14.00" fill="#666666">[varchar(20)]</text>
<polygon fill="none" stroke="black" points="565.38,-1128.2 565.38,-1159 934.31,-1159 934.31,-1128.2 565.38,-1128.2"/>
<text text-anchor="start" x="572.38" y="-1140.4" font-family="Arial" font-size="14.00">field_changed </text>
<text text-anchor="start" x="663.45" y="-1140.4" font-family="Arial" font-size="14.00" fill="#666666">[varchar(100)]</text>
<polygon fill="none" stroke="black" points="565.38,-1097.4 565.38,-1128.2 934.31,-1128.2 934.31,-1097.4 565.38,-1097.4"/>
<text text-anchor="start" x="572.38" y="-1109.6" font-family="Arial" font-size="14.00">old_value </text>
<text text-anchor="start" x="636.21" y="-1109.6" font-family="Arial" font-size="14.00" fill="#666666">[jsonb]</text>
<polygon fill="none" stroke="black" points="565.38,-1066.6 565.38,-1097.4 934.31,-1097.4 934.31,-1066.6 565.38,-1066.6"/>
<text text-anchor="start" x="572.38" y="-1078.8" font-family="Arial" font-size="14.00">new_value </text>
<text text-anchor="start" x="643.21" y="-1078.8" font-family="Arial" font-size="14.00" fill="#666666">[jsonb]</text>
<polygon fill="none" stroke="black" points="565.38,-1035.8 565.38,-1066.6 934.31,-1066.6 934.31,-1035.8 565.38,-1035.8"/>
<text text-anchor="start" x="572.38" y="-1048" font-family="Arial" font-size="14.00">modifier_snapshot </text>
<text text-anchor="start" x="690.67" y="-1048" font-family="Arial" font-size="14.00" fill="#666666">[jsonb]</text>
<polygon fill="none" stroke="black" points="565.38,-1005 565.38,-1035.8 934.31,-1035.8 934.31,-1005 565.38,-1005"/>
<text text-anchor="start" x="572.38" y="-1017.2" font-family="Arial" font-size="14.00">changed_by </text>
<text text-anchor="start" x="652.56" y="-1017.2" font-family="Arial" font-size="14.00" fill="#666666">[uuid]</text>
<polygon fill="none" stroke="black" points="565.38,-974.2 565.38,-1005 934.31,-1005 934.31,-974.2 565.38,-974.2"/>
<text text-anchor="start" x="572.38" y="-986.4" font-family="Arial" font-size="14.00">reason </text>
<text text-anchor="start" x="619.08" y="-986.4" font-family="Arial" font-size="14.00" fill="#666666">[text]</text>
<polygon fill="none" stroke="black" points="565.38,-943.4 565.38,-974.2 934.31,-974.2 934.31,-943.4 565.38,-943.4"/>
<text text-anchor="start" x="572.38" y="-955.6" font-family="Arial" font-size="14.00">created_at </text>
<text text-anchor="start" x="642.43" y="-955.6" font-family="Arial" font-size="14.00" fill="#666666">[timestamp with time zone]</text>
<polygon fill="none" stroke="black" stroke-width="3" points="563.88,-941.9 563.88,-1411.7 935.81,-1411.7 935.81,-941.9 563.88,-941.9"/>
</g>
<!-- public.tenants -->
<g id="node2" class="node">
<title>public.tenants</title>
<polygon fill="#efefef" stroke="none" points="43.2,-520.6 43.2,-556.2 298.49,-556.2 298.49,-520.6 43.2,-520.6"/>
<polygon fill="none" stroke="black" points="43.2,-520.6 43.2,-556.2 298.49,-556.2 298.49,-520.6 43.2,-520.6"/>
<text text-anchor="start" x="58.36" y="-534" font-family="Arial Bold" font-size="18.00">public.tenants</text>
<text text-anchor="start" x="158.84" y="-534" font-family="Arial" font-size="14.00">    </text>
<text text-anchor="start" x="189.95" y="-534" font-family="Arial" font-size="14.00" fill="#666666">[BASE TABLE]</text>
<polygon fill="none" stroke="black" points="43.2,-489.8 43.2,-520.6 298.49,-520.6 298.49,-489.8 43.2,-489.8"/>
<text text-anchor="start" x="50.2" y="-502" font-family="Arial" font-size="14.00">id </text>
<text text-anchor="start" x="64.99" y="-502" font-family="Arial" font-size="14.00" fill="#666666">[uuid]</text>
<polygon fill="none" stroke="black" points="43.2,-459 43.2,-489.8 298.49,-489.8 298.49,-459 43.2,-459"/>
<text text-anchor="start" x="50.2" y="-471.2" font-family="Arial" font-size="14.00">name </text>
<text text-anchor="start" x="89.11" y="-471.2" font-family="Arial" font-size="14.00" fill="#666666">[text]</text>
<polygon fill="none" stroke="black" points="43.2,-428.2 43.2,-459 298.49,-459 298.49,-428.2 43.2,-428.2"/>
<text text-anchor="start" x="50.2" y="-440.4" font-family="Arial" font-size="14.00">slug </text>
<text text-anchor="start" x="79.77" y="-440.4" font-family="Arial" font-size="14.00" fill="#666666">[text]</text>
<polygon fill="none" stroke="black" points="43.2,-397.4 43.2,-428.2 298.49,-428.2 298.49,-397.4 43.2,-397.4"/>
<text text-anchor="start" x="50.2" y="-409.6" font-family="Arial" font-size="14.00">created_at </text>
<text text-anchor="start" x="120.25" y="-409.6" font-family="Arial" font-size="14.00" fill="#666666">[timestamp with time zone]</text>
<polygon fill="none" stroke="black" points="43.2,-366.6 43.2,-397.4 298.49,-397.4 298.49,-366.6 43.2,-366.6"/>
<text text-anchor="start" x="50.2" y="-378.8" font-family="Arial" font-size="14.00">email </text>
<text text-anchor="start" x="87.54" y="-378.8" font-family="Arial" font-size="14.00" fill="#666666">[varchar(255)]</text>
<polygon fill="none" stroke="black" points="43.2,-335.8 43.2,-366.6 298.49,-366.6 298.49,-335.8 43.2,-335.8"/>
<text text-anchor="start" x="50.2" y="-348" font-family="Arial" font-size="14.00">electronic_invoicing_enabled </text>
<text text-anchor="start" x="233.88" y="-348" font-family="Arial" font-size="14.00" fill="#666666">[boolean]</text>
<polygon fill="none" stroke="black" points="43.2,-305 43.2,-335.8 298.49,-335.8 298.49,-305 43.2,-305"/>
<text text-anchor="start" x="50.2" y="-317.2" font-family="Arial" font-size="14.00">permissions_enforcement_mode </text>
<text text-anchor="start" x="257.19" y="-317.2" font-family="Arial" font-size="14.00" fill="#666666">[text]</text>
</g>
<!-- public.modifier_change_history&#45;&gt;public.tenants -->
<g id="edge1" class="edge">
<title>public.modifier_change_history:tenant_id&#45;&gt;public.tenants:id</title>
<path fill="none" stroke="black" d="M554.22,-1328.23C338.44,-1320.89 414.27,-1076.92 350.84,-861.2 328.3,-784.52 379.42,-505.2 299.49,-505.2"/>
<polygon fill="black" stroke="black" points="554.05,-1328.23 563.97,-1332.89 559.38,-1328.32 563.71,-1328.39 563.71,-1328.39 563.71,-1328.39 559.38,-1328.32 564.12,-1323.9 554.05,-1328.23"/>
<text text-anchor="start" x="317.3" y="-1338.4" font-family="Arial" font-size="10.00">FOREIGN KEY (tenant_id) REFERENCES tenants(id)</text>
</g>
<!-- public.modifier_groups -->
<g id="node3" class="node">
<title>public.modifier_groups</title>
<polygon fill="#efefef" stroke="none" points="402.86,-566.8 402.86,-602.4 710.82,-602.4 710.82,-566.8 402.86,-566.8"/>
<polygon fill="none" stroke="black" points="402.86,-566.8 402.86,-602.4 710.82,-602.4 710.82,-566.8 402.86,-566.8"/>
<text text-anchor="start" x="409.86" y="-580.2" font-family="Arial Bold" font-size="18.00">public.modifier_groups</text>
<text text-anchor="start" x="579.33" y="-580.2" font-family="Arial" font-size="14.00">    </text>
<text text-anchor="start" x="610.45" y="-580.2" font-family="Arial" font-size="14.00" fill="#666666">[BASE TABLE]</text>
<polygon fill="none" stroke="black" points="402.86,-536 402.86,-566.8 710.82,-566.8 710.82,-536 402.86,-536"/>
<text text-anchor="start" x="409.86" y="-548.2" font-family="Arial" font-size="14.00">id </text>
<text text-anchor="start" x="424.65" y="-548.2" font-family="Arial" font-size="14.00" fill="#666666">[uuid]</text>
<polygon fill="none" stroke="black" points="402.86,-505.2 402.86,-536 710.82,-536 710.82,-505.2 402.86,-505.2"/>
<text text-anchor="start" x="409.86" y="-517.4" font-family="Arial" font-size="14.00">product_id </text>
<text text-anchor="start" x="479.13" y="-517.4" font-family="Arial" font-size="14.00" fill="#666666">[uuid]</text>
<polygon fill="none" stroke="black" points="402.86,-474.4 402.86,-505.2 710.82,-505.2 710.82,-474.4 402.86,-474.4"/>
<text text-anchor="start" x="409.86" y="-486.6" font-family="Arial" font-size="14.00">tenant_id </text>
<text text-anchor="start" x="471.36" y="-486.6" font-family="Arial" font-size="14.00" fill="#666666">[uuid]</text>
<polygon fill="none" stroke="black" points="402.86,-443.6 402.86,-474.4 710.82,-474.4 710.82,-443.6 402.86,-443.6"/>
<text text-anchor="start" x="409.86" y="-455.8" font-family="Arial" font-size="14.00">name </text>
<text text-anchor="start" x="448.77" y="-455.8" font-family="Arial" font-size="14.00" fill="#666666">[varchar(255)]</text>
<polygon fill="none" stroke="black" points="402.86,-412.8 402.86,-443.6 710.82,-443.6 710.82,-412.8 402.86,-412.8"/>
<text text-anchor="start" x="409.86" y="-425" font-family="Arial" font-size="14.00">min_qty </text>
<text text-anchor="start" x="462.77" y="-425" font-family="Arial" font-size="14.00" fill="#666666">[integer]</text>
<polygon fill="none" stroke="black" points="402.86,-382 402.86,-412.8 710.82,-412.8 710.82,-382 402.86,-382"/>
<text text-anchor="start" x="409.86" y="-394.2" font-family="Arial" font-size="14.00">max_qty </text>
<text text-anchor="start" x="466.66" y="-394.2" font-family="Arial" font-size="14.00" fill="#666666">[integer]</text>
<polygon fill="none" stroke="black" points="402.86,-351.2 402.86,-382 710.82,-382 710.82,-351.2 402.86,-351.2"/>
<text text-anchor="start" x="409.86" y="-363.4" font-family="Arial" font-size="14.00">is_required </text>
<text text-anchor="start" x="483.02" y="-363.4" font-family="Arial" font-size="14.00" fill="#666666">[boolean]</text>
<polygon fill="none" stroke="black" points="402.86,-320.4 402.86,-351.2 710.82,-351.2 710.82,-320.4 402.86,-320.4"/>
<text text-anchor="start" x="409.86" y="-332.6" font-family="Arial" font-size="14.00">sort_order </text>
<text text-anchor="start" x="477.56" y="-332.6" font-family="Arial" font-size="14.00" fill="#666666">[integer]</text>
<polygon fill="none" stroke="black" points="402.86,-289.6 402.86,-320.4 710.82,-320.4 710.82,-289.6 402.86,-289.6"/>
<text text-anchor="start" x="409.86" y="-301.8" font-family="Arial" font-size="14.00">created_at </text>
<text text-anchor="start" x="479.91" y="-301.8" font-family="Arial" font-size="14.00" fill="#666666">[timestamp with time zone]</text>
<polygon fill="none" stroke="black" points="402.86,-258.8 402.86,-289.6 710.82,-289.6 710.82,-258.8 402.86,-258.8"/>
<text text-anchor="start" x="409.86" y="-271" font-family="Arial" font-size="14.00">updated_at </text>
<text text-anchor="start" x="483.82" y="-271" font-family="Arial" font-size="14.00" fill="#666666">[timestamp with time zone]</text>
</g>
<!-- public.modifier_change_history&#45;&gt;public.modifier_groups -->
<g id="edge2" class="edge">
<title>public.modifier_change_history:modifier_group_id&#45;&gt;public.modifier_groups:id</title>
<path fill="none" stroke="black" d="M554.19,-1266.51C405.34,-1257.76 523.52,-1052.39 565.38,-897.2 599.01,-772.49 676.7,-770.17 710.82,-645.6 721.89,-605.22 753.69,-551.4 711.82,-551.4"/>
<polygon fill="black" stroke="black" points="554.05,-1266.51 563.92,-1271.29 559.38,-1266.66 563.71,-1266.78 563.71,-1266.78 563.71,-1266.78 559.38,-1266.66 564.17,-1262.29 554.05,-1266.51"/>
<text text-anchor="start" x="128.92" y="-1276.8" font-family="Arial" font-size="10.00">FOREIGN KEY (modifier_group_id) REFERENCES modifier_groups(id) ON DELETE CASCADE</text>
</g>
<!-- public.modifiers -->
<g id="node4" class="node">
<title>public.modifiers</title>
<polygon fill="#efefef" stroke="none" points="815.36,-613 815.36,-648.6 1072.33,-648.6 1072.33,-613 815.36,-613"/>
<polygon fill="none" stroke="black" points="815.36,-613 815.36,-648.6 1072.33,-648.6 1072.33,-613 815.36,-613"/>
<text text-anchor="start" x="822.36" y="-626.4" font-family="Arial Bold" font-size="18.00">public.modifiers</text>
<text text-anchor="start" x="940.84" y="-626.4" font-family="Arial" font-size="14.00">    </text>
<text text-anchor="start" x="971.95" y="-626.4" font-family="Arial" font-size="14.00" fill="#666666">[BASE TABLE]</text>
<polygon fill="none" stroke="black" points="815.36,-582.2 815.36,-613 1072.33,-613 1072.33,-582.2 815.36,-582.2"/>
<text text-anchor="start" x="822.36" y="-594.4" font-family="Arial" font-size="14.00">id </text>
<text text-anchor="start" x="837.15" y="-594.4" font-family="Arial" font-size="14.00" fill="#666666">[uuid]</text>
<polygon fill="none" stroke="black" points="815.36,-551.4 815.36,-582.2 1072.33,-582.2 1072.33,-551.4 815.36,-551.4"/>
<text text-anchor="start" x="822.36" y="-563.6" font-family="Arial" font-size="14.00">modifier_group_id </text>
<text text-anchor="start" x="938.32" y="-563.6" font-family="Arial" font-size="14.00" fill="#666666">[uuid]</text>
<polygon fill="none" stroke="black" points="815.36,-520.6 815.36,-551.4 1072.33,-551.4 1072.33,-520.6 815.36,-520.6"/>
<text text-anchor="start" x="822.36" y="-532.8" font-family="Arial" font-size="14.00">name </text>
<text text-anchor="start" x="861.27" y="-532.8" font-family="Arial" font-size="14.00" fill="#666666">[varchar(255)]</text>
<polygon fill="none" stroke="black" points="815.36,-489.8 815.36,-520.6 1072.33,-520.6 1072.33,-489.8 815.36,-489.8"/>
<text text-anchor="start" x="822.36" y="-502" font-family="Arial" font-size="14.00">price </text>
<text text-anchor="start" x="856.6" y="-502" font-family="Arial" font-size="14.00" fill="#666666">[numeric(10,2)]</text>
<polygon fill="none" stroke="black" points="815.36,-459 815.36,-489.8 1072.33,-489.8 1072.33,-459 815.36,-459"/>
<text text-anchor="start" x="822.36" y="-471.2" font-family="Arial" font-size="14.00">max_limit </text>
<text text-anchor="start" x="885.37" y="-471.2" font-family="Arial" font-size="14.00" fill="#666666">[integer]</text>
<polygon fill="none" stroke="black" points="815.36,-428.2 815.36,-459 1072.33,-459 1072.33,-428.2 815.36,-428.2"/>
<text text-anchor="start" x="822.36" y="-440.4" font-family="Arial" font-size="14.00">is_default </text>
<text text-anchor="start" x="886.18" y="-440.4" font-family="Arial" font-size="14.00" fill="#666666">[boolean]</text>
<polygon fill="none" stroke="black" points="815.36,-397.4 815.36,-428.2 1072.33,-428.2 1072.33,-397.4 815.36,-397.4"/>
<text text-anchor="start" x="822.36" y="-409.6" font-family="Arial" font-size="14.00">is_available </text>
<text text-anchor="start" x="899.41" y="-409.6" font-family="Arial" font-size="14.00" fill="#666666">[boolean]</text>
<polygon fill="none" stroke="black" points="815.36,-366.6 815.36,-397.4 1072.33,-397.4 1072.33,-366.6 815.36,-366.6"/>
<text text-anchor="start" x="822.36" y="-378.8" font-family="Arial" font-size="14.00">sort_order </text>
<text text-anchor="start" x="890.06" y="-378.8" font-family="Arial" font-size="14.00" fill="#666666">[integer]</text>
<polygon fill="none" stroke="black" points="815.36,-335.8 815.36,-366.6 1072.33,-366.6 1072.33,-335.8 815.36,-335.8"/>
<text text-anchor="start" x="822.36" y="-348" font-family="Arial" font-size="14.00">created_at </text>
<text text-anchor="start" x="892.41" y="-348" font-family="Arial" font-size="14.00" fill="#666666">[timestamp with time zone]</text>
<polygon fill="none" stroke="black" points="815.36,-305 815.36,-335.8 1072.33,-335.8 1072.33,-305 815.36,-305"/>
<text text-anchor="start" x="822.36" y="-317.2" font-family="Arial" font-size="14.00">updated_at </text>
<text text-anchor="start" x="896.32" y="-317.2" font-family="Arial" font-size="14.00" fill="#666666">[timestamp with time zone]</text>
<polygon fill="none" stroke="black" points="815.36,-274.2 815.36,-305 1072.33,-305 1072.33,-274.2 815.36,-274.2"/>
<text text-anchor="start" x="822.36" y="-286.4" font-family="Arial" font-size="14.00">ingredient_id </text>
<text text-anchor="start" x="906.42" y="-286.4" font-family="Arial" font-size="14.00" fill="#666666">[uuid]</text>
<polygon fill="none" stroke="black" points="815.36,-243.4 815.36,-274.2 1072.33,-274.2 1072.33,-243.4 815.36,-243.4"/>
<text text-anchor="start" x="822.36" y="-255.6" font-family="Arial" font-size="14.00">ingredient_quantity </text>
<text text-anchor="start" x="944.56" y="-255.6" font-family="Arial" font-size="14.00" fill="#666666">[numeric]</text>
<polygon fill="none" stroke="black" points="815.36,-212.6 815.36,-243.4 1072.33,-243.4 1072.33,-212.6 815.36,-212.6"/>
<text text-anchor="start" x="822.36" y="-224.8" font-family="Arial" font-size="14.00">ingredient_unit </text>
<text text-anchor="start" x="918.1" y="-224.8" font-family="Arial" font-size="14.00" fill="#666666">[varchar(20)]</text>
</g>
<!-- public.modifier_change_history&#45;&gt;public.modifiers -->
<g id="edge3" class="edge">
<title>public.modifier_change_history:modifier_id&#45;&gt;public.modifiers:id</title>
<path fill="none" stroke="black" d="M945.47,-1235.68C1080.66,-1226.96 972.67,-1039.16 934.31,-897.2 896.89,-758.74 670.93,-597.6 814.36,-597.6"/>
<polygon fill="black" stroke="black" points="945.64,-1235.68 935.5,-1231.49 940.31,-1235.84 935.98,-1235.98 935.98,-1235.98 935.98,-1235.98 940.31,-1235.84 935.78,-1240.49 945.64,-1235.68"/>
<text text-anchor="start" x="942.31" y="-1246" font-family="Arial" font-size="10.00">FOREIGN KEY (modifier_id) REFERENCES modifiers(id) ON DELETE CASCADE</text>
</g>
<!-- public.profile -->
<g id="node5" class="node">
<title>public.profile</title>
<polygon fill="#efefef" stroke="none" points="1177,-782.4 1177,-818 1430.68,-818 1430.68,-782.4 1177,-782.4"/>
<polygon fill="none" stroke="black" points="1177,-782.4 1177,-818 1430.68,-818 1430.68,-782.4 1177,-782.4"/>
<text text-anchor="start" x="1192.86" y="-795.8" font-family="Arial Bold" font-size="18.00">public.profile</text>
<text text-anchor="start" x="1290.33" y="-795.8" font-family="Arial" font-size="14.00">    </text>
<text text-anchor="start" x="1321.45" y="-795.8" font-family="Arial" font-size="14.00" fill="#666666">[BASE TABLE]</text>
<polygon fill="none" stroke="black" points="1177,-751.6 1177,-782.4 1430.68,-782.4 1430.68,-751.6 1177,-751.6"/>
<text text-anchor="start" x="1184" y="-763.8" font-family="Arial" font-size="14.00">name </text>
<text text-anchor="start" x="1222.91" y="-763.8" font-family="Arial" font-size="14.00" fill="#666666">[varchar]</text>
<polygon fill="none" stroke="black" points="1177,-720.8 1177,-751.6 1430.68,-751.6 1430.68,-720.8 1177,-720.8"/>
<text text-anchor="start" x="1184" y="-733" font-family="Arial" font-size="14.00">logo_avatar </text>
<text text-anchor="start" x="1261.06" y="-733" font-family="Arial" font-size="14.00" fill="#666666">[varchar]</text>
<polygon fill="none" stroke="black" points="1177,-690 1177,-720.8 1430.68,-720.8 1430.68,-690 1177,-690"/>
<text text-anchor="start" x="1184" y="-702.2" font-family="Arial" font-size="14.00">description </text>
<text text-anchor="start" x="1255.6" y="-702.2" font-family="Arial" font-size="14.00" fill="#666666">[varchar]</text>
<polygon fill="none" stroke="black" points="1177,-659.2 1177,-690 1430.68,-690 1430.68,-659.2 1177,-659.2"/>
<text text-anchor="start" x="1184" y="-671.4" font-family="Arial" font-size="14.00">website </text>
<text text-anchor="start" x="1235.36" y="-671.4" font-family="Arial" font-size="14.00" fill="#666666">[varchar]</text>
<polygon fill="none" stroke="black" points="1177,-628.4 1177,-659.2 1430.68,-659.2 1430.68,-628.4 1177,-628.4"/>
<text text-anchor="start" x="1184" y="-640.6" font-family="Arial" font-size="14.00">status </text>
<text text-anchor="start" x="1225.24" y="-640.6" font-family="Arial" font-size="14.00" fill="#666666">[boolean]</text>
<polygon fill="none" stroke="black" points="1177,-597.6 1177,-628.4 1430.68,-628.4 1430.68,-597.6 1177,-597.6"/>
<text text-anchor="start" x="1184" y="-609.8" font-family="Arial" font-size="14.00">city </text>
<text text-anchor="start" x="1208.89" y="-609.8" font-family="Arial" font-size="14.00" fill="#666666">[varchar]</text>
<polygon fill="none" stroke="black" points="1177,-566.8 1177,-597.6 1430.68,-597.6 1430.68,-566.8 1177,-566.8"/>
<text text-anchor="start" x="1184" y="-579" font-family="Arial" font-size="14.00">banner </text>
<text text-anchor="start" x="1231.49" y="-579" font-family="Arial" font-size="14.00" fill="#666666">[varchar]</text>
<polygon fill="none" stroke="black" points="1177,-536 1177,-566.8 1430.68,-566.8 1430.68,-536 1177,-536"/>
<text text-anchor="start" x="1184" y="-548.2" font-family="Arial" font-size="14.00">category </text>
<text text-anchor="start" x="1241.59" y="-548.2" font-family="Arial" font-size="14.00" fill="#666666">[varchar]</text>
<polygon fill="none" stroke="black" points="1177,-505.2 1177,-536 1430.68,-536 1430.68,-505.2 1177,-505.2"/>
<text text-anchor="start" x="1184" y="-517.4" font-family="Arial" font-size="14.00">shadowban </text>
<text text-anchor="start" x="1259.51" y="-517.4" font-family="Arial" font-size="14.00" fill="#666666">[boolean]</text>
<polygon fill="none" stroke="black" points="1177,-474.4 1177,-505.2 1430.68,-505.2 1430.68,-474.4 1177,-474.4"/>
<text text-anchor="start" x="1184" y="-486.6" font-family="Arial" font-size="14.00">id </text>
<text text-anchor="start" x="1198.79" y="-486.6" font-family="Arial" font-size="14.00" fill="#666666">[uuid]</text>
<polygon fill="none" stroke="black" points="1177,-443.6 1177,-474.4 1430.68,-474.4 1430.68,-443.6 1177,-443.6"/>
<text text-anchor="start" x="1184" y="-455.8" font-family="Arial" font-size="14.00">email </text>
<text text-anchor="start" x="1221.35" y="-455.8" font-family="Arial" font-size="14.00" fill="#666666">[varchar(255)]</text>
<polygon fill="none" stroke="black" points="1177,-412.8 1177,-443.6 1430.68,-443.6 1430.68,-412.8 1177,-412.8"/>
<text text-anchor="start" x="1184" y="-425" font-family="Arial" font-size="14.00">enterprise </text>
<text text-anchor="start" x="1250.15" y="-425" font-family="Arial" font-size="14.00" fill="#666666">[varchar(255)]</text>
<polygon fill="none" stroke="black" points="1177,-382 1177,-412.8 1430.68,-412.8 1430.68,-382 1177,-382"/>
<text text-anchor="start" x="1184" y="-394.2" font-family="Arial" font-size="14.00">user_name </text>
<text text-anchor="start" x="1257.93" y="-394.2" font-family="Arial" font-size="14.00" fill="#666666">[varchar]</text>
<polygon fill="none" stroke="black" points="1177,-351.2 1177,-382 1430.68,-382 1430.68,-351.2 1177,-351.2"/>
<text text-anchor="start" x="1184" y="-363.4" font-family="Arial" font-size="14.00">created_at </text>
<text text-anchor="start" x="1254.05" y="-363.4" font-family="Arial" font-size="14.00" fill="#666666">[timestamp with time zone]</text>
<polygon fill="none" stroke="black" points="1177,-320.4 1177,-351.2 1430.68,-351.2 1430.68,-320.4 1177,-320.4"/>
<text text-anchor="start" x="1184" y="-332.6" font-family="Arial" font-size="14.00">planet </text>
<text text-anchor="start" x="1226.04" y="-332.6" font-family="Arial" font-size="14.00" fill="#666666">[varchar]</text>
<polygon fill="none" stroke="black" points="1177,-289.6 1177,-320.4 1430.68,-320.4 1430.68,-289.6 1177,-289.6"/>
<text text-anchor="start" x="1184" y="-301.8" font-family="Arial" font-size="14.00">country </text>
<text text-anchor="start" x="1233.8" y="-301.8" font-family="Arial" font-size="14.00" fill="#666666">[varchar]</text>
<polygon fill="none" stroke="black" points="1177,-258.8 1177,-289.6 1430.68,-289.6 1430.68,-258.8 1177,-258.8"/>
<text text-anchor="start" x="1184" y="-271" font-family="Arial" font-size="14.00">nationality_id </text>
<text text-anchor="start" x="1269.62" y="-271" font-family="Arial" font-size="14.00" fill="#666666">[integer]</text>
<polygon fill="none" stroke="black" points="1177,-228 1177,-258.8 1430.68,-258.8 1430.68,-228 1177,-228"/>
<text text-anchor="start" x="1184" y="-240.2" font-family="Arial" font-size="14.00">phone_number </text>
<text text-anchor="start" x="1282.08" y="-240.2" font-family="Arial" font-size="14.00" fill="#666666">[varchar(20)]</text>
<polygon fill="none" stroke="black" points="1177,-197.2 1177,-228 1430.68,-228 1430.68,-197.2 1177,-197.2"/>
<text text-anchor="start" x="1184" y="-209.4" font-family="Arial" font-size="14.00">updated_at </text>
<text text-anchor="start" x="1257.96" y="-209.4" font-family="Arial" font-size="14.00" fill="#666666">[timestamp with time zone]</text>
<polygon fill="none" stroke="black" points="1177,-166.4 1177,-197.2 1430.68,-197.2 1430.68,-166.4 1177,-166.4"/>
<text text-anchor="start" x="1184" y="-178.6" font-family="Arial" font-size="14.00">phone_country_code </text>
<text text-anchor="start" x="1318.66" y="-178.6" font-family="Arial" font-size="14.00" fill="#666666">[integer]</text>
<polygon fill="none" stroke="black" points="1177,-135.6 1177,-166.4 1430.68,-166.4 1430.68,-135.6 1177,-135.6"/>
<text text-anchor="start" x="1184" y="-147.8" font-family="Arial" font-size="14.00">fiscal_id_type </text>
<text text-anchor="start" x="1272.72" y="-147.8" font-family="Arial" font-size="14.00" fill="#666666">[text]</text>
<polygon fill="none" stroke="black" points="1177,-104.8 1177,-135.6 1430.68,-135.6 1430.68,-104.8 1177,-104.8"/>
<text text-anchor="start" x="1184" y="-117" font-family="Arial" font-size="14.00">fiscal_id </text>
<text text-anchor="start" x="1238.47" y="-117" font-family="Arial" font-size="14.00" fill="#666666">[text]</text>
<polygon fill="none" stroke="black" points="1177,-74 1177,-104.8 1430.68,-104.8 1430.68,-74 1177,-74"/>
<text text-anchor="start" x="1184" y="-86.2" font-family="Arial" font-size="14.00">fiscal_business_name </text>
<text text-anchor="start" x="1325.64" y="-86.2" font-family="Arial" font-size="14.00" fill="#666666">[text]</text>
<polygon fill="none" stroke="black" points="1177,-43.2 1177,-74 1430.68,-74 1430.68,-43.2 1177,-43.2"/>
<text text-anchor="start" x="1184" y="-55.4" font-family="Arial" font-size="14.00">fiscal_email </text>
<text text-anchor="start" x="1261.03" y="-55.4" font-family="Arial" font-size="14.00" fill="#666666">[text]</text>
</g>
<!-- public.modifier_change_history&#45;&gt;public.profile -->
<g id="edge4" class="edge">
<title>public.modifier_change_history:changed_by&#45;&gt;public.profile:id</title>
<path fill="none" stroke="black" d="M945.69,-1020.21C1047.05,-1016.31 1073.38,-954.4 1124.84,-861.2 1165.12,-788.27 1092.69,-489.8 1176,-489.8"/>
<polygon fill="black" stroke="black" points="945.64,-1020.21 935.56,-1015.89 940.31,-1020.31 935.98,-1020.39 935.98,-1020.39 935.98,-1020.39 940.31,-1020.31 935.73,-1024.89 945.64,-1020.21"/>
<text text-anchor="start" x="942.31" y="-1030.4" font-family="Arial" font-size="10.00">FOREIGN KEY (changed_by) REFERENCES profile(id)</text>
</g>
</g>
</svg>
