<?xml version="1.0" encoding="UTF-8" standalone="no"?>
<!DOCTYPE svg PUBLIC "-//W3C//DTD SVG 1.1//EN"
 "http://www.w3.org/Graphics/SVG/1.1/DTD/svg11.dtd">
<!-- Generated by graphviz version 12.1.2 (20240928.0832)
 -->
<!-- Title: public.gamification_modules Pages: 1 -->
<svg width="1159pt" height="1900pt"
 viewBox="0.00 0.00 1159.16 1899.60" xmlns="http://www.w3.org/2000/svg" xmlns:xlink="http://www.w3.org/1999/xlink">
<g id="graph0" class="graph" transform="scale(1 1) rotate(0) translate(4 1895.6)">
<title>public.gamification_modules</title>
<polygon fill="white" stroke="none" points="-4,4 -4,-1895.6 1155.16,-1895.6 1155.16,4 -4,4"/>
<!-- public.gamification_modules -->
<g id="node1" class="node">
<title>public.gamification_modules</title>
<polygon fill="#efefef" stroke="none" points="365.66,-1251.4 365.66,-1287 714.6,-1287 714.6,-1251.4 365.66,-1251.4"/>
<polygon fill="none" stroke="black" points="365.66,-1251.4 365.66,-1287 714.6,-1287 714.6,-1251.4 365.66,-1251.4"/>
<text text-anchor="start" x="372.66" y="-1264.8" font-family="Arial Bold" font-size="18.00">public.gamification_modules</text>
<text text-anchor="start" x="583.11" y="-1264.8" font-family="Arial" font-size="14.00">    </text>
<text text-anchor="start" x="614.23" y="-1264.8" font-family="Arial" font-size="14.00" fill="#666666">[BASE TABLE]</text>
<polygon fill="none" stroke="black" points="365.66,-1220.6 365.66,-1251.4 714.6,-1251.4 714.6,-1220.6 365.66,-1220.6"/>
<text text-anchor="start" x="372.66" y="-1232.8" font-family="Arial" font-size="14.00">id </text>
<text text-anchor="start" x="387.45" y="-1232.8" font-family="Arial" font-size="14.00" fill="#666666">[integer]</text>
<polygon fill="none" stroke="black" points="365.66,-1189.8 365.66,-1220.6 714.6,-1220.6 714.6,-1189.8 365.66,-1189.8"/>
<text text-anchor="start" x="372.66" y="-1202" font-family="Arial" font-size="14.00">tenant_id </text>
<text text-anchor="start" x="434.16" y="-1202" font-family="Arial" font-size="14.00" fill="#666666">[uuid]</text>
<polygon fill="none" stroke="black" points="365.66,-1159 365.66,-1189.8 714.6,-1189.8 714.6,-1159 365.66,-1159"/>
<text text-anchor="start" x="372.66" y="-1171.2" font-family="Arial" font-size="14.00">module_name </text>
<text text-anchor="start" x="465.27" y="-1171.2" font-family="Arial" font-size="14.00" fill="#666666">[varchar(255)]</text>
<polygon fill="none" stroke="black" points="365.66,-1128.2 365.66,-1159 714.6,-1159 714.6,-1128.2 365.66,-1128.2"/>
<text text-anchor="start" x="372.66" y="-1140.4" font-family="Arial" font-size="14.00">module_description </text>
<text text-anchor="start" x="497.96" y="-1140.4" font-family="Arial" font-size="14.00" fill="#666666">[text]</text>
<polygon fill="none" stroke="black" points="365.66,-1097.4 365.66,-1128.2 714.6,-1128.2 714.6,-1097.4 365.66,-1097.4"/>
<text text-anchor="start" x="372.66" y="-1109.6" font-family="Arial" font-size="14.00">module_type </text>
<text text-anchor="start" x="456.71" y="-1109.6" font-family="Arial" font-size="14.00" fill="#666666">[varchar(20)]</text>
<polygon fill="none" stroke="black" points="365.66,-1066.6 365.66,-1097.4 714.6,-1097.4 714.6,-1066.6 365.66,-1066.6"/>
<text text-anchor="start" x="372.66" y="-1078.8" font-family="Arial" font-size="14.00">is_active </text>
<text text-anchor="start" x="431.02" y="-1078.8" font-family="Arial" font-size="14.00" fill="#666666">[boolean]</text>
<polygon fill="none" stroke="black" points="365.66,-1035.8 365.66,-1066.6 714.6,-1066.6 714.6,-1035.8 365.66,-1035.8"/>
<text text-anchor="start" x="372.66" y="-1048" font-family="Arial" font-size="14.00">waro_multiplier </text>
<text text-anchor="start" x="470.69" y="-1048" font-family="Arial" font-size="14.00" fill="#666666">[numeric(3,2)]</text>
<polygon fill="none" stroke="black" points="365.66,-1005 365.66,-1035.8 714.6,-1035.8 714.6,-1005 365.66,-1005"/>
<text text-anchor="start" x="372.66" y="-1017.2" font-family="Arial" font-size="14.00">created_by </text>
<text text-anchor="start" x="445.82" y="-1017.2" font-family="Arial" font-size="14.00" fill="#666666">[uuid]</text>
<polygon fill="none" stroke="black" points="365.66,-974.2 365.66,-1005 714.6,-1005 714.6,-974.2 365.66,-974.2"/>
<text text-anchor="start" x="372.66" y="-986.4" font-family="Arial" font-size="14.00">created_at </text>
<text text-anchor="start" x="442.71" y="-986.4" font-family="Arial" font-size="14.00" fill="#666666">[timestamp with time zone]</text>
<polygon fill="none" stroke="black" points="365.66,-943.4 365.66,-974.2 714.6,-974.2 714.6,-943.4 365.66,-943.4"/>
<text text-anchor="start" x="372.66" y="-955.6" font-family="Arial" font-size="14.00">updated_at </text>
<text text-anchor="start" x="446.62" y="-955.6" font-family="Arial" font-size="14.00" fill="#666666">[timestamp with time zone]</text>
<polygon fill="none" stroke="black" stroke-width="3" points="364.16,-941.9 364.16,-1288.5 716.1,-1288.5 716.1,-941.9 364.16,-941.9"/>
</g>
<!-- public.tenants -->
<g id="node3" class="node">
<title>public.tenants</title>
<polygon fill="#efefef" stroke="none" points="233.49,-520.6 233.49,-556.2 488.77,-556.2 488.77,-520.6 233.49,-520.6"/>
<polygon fill="none" stroke="black" points="233.49,-520.6 233.49,-556.2 488.77,-556.2 488.77,-520.6 233.49,-520.6"/>
<text text-anchor="start" x="248.65" y="-534" font-family="Arial Bold" font-size="18.00">public.tenants</text>
<text text-anchor="start" x="349.12" y="-534" font-family="Arial" font-size="14.00">    </text>
<text text-anchor="start" x="380.24" y="-534" font-family="Arial" font-size="14.00" fill="#666666">[BASE TABLE]</text>
<polygon fill="none" stroke="black" points="233.49,-489.8 233.49,-520.6 488.77,-520.6 488.77,-489.8 233.49,-489.8"/>
<text text-anchor="start" x="240.49" y="-502" font-family="Arial" font-size="14.00">id </text>
<text text-anchor="start" x="255.27" y="-502" font-family="Arial" font-size="14.00" fill="#666666">[uuid]</text>
<polygon fill="none" stroke="black" points="233.49,-459 233.49,-489.8 488.77,-489.8 488.77,-459 233.49,-459"/>
<text text-anchor="start" x="240.49" y="-471.2" font-family="Arial" font-size="14.00">name </text>
<text text-anchor="start" x="279.4" y="-471.2" font-family="Arial" font-size="14.00" fill="#666666">[text]</text>
<polygon fill="none" stroke="black" points="233.49,-428.2 233.49,-459 488.77,-459 488.77,-428.2 233.49,-428.2"/>
<text text-anchor="start" x="240.49" y="-440.4" font-family="Arial" font-size="14.00">slug </text>
<text text-anchor="start" x="270.06" y="-440.4" font-family="Arial" font-size="14.00" fill="#666666">[text]</text>
<polygon fill="none" stroke="black" points="233.49,-397.4 233.49,-428.2 488.77,-428.2 488.77,-397.4 233.49,-397.4"/>
<text text-anchor="start" x="240.49" y="-409.6" font-family="Arial" font-size="14.00">created_at </text>
<text text-anchor="start" x="310.53" y="-409.6" font-family="Arial" font-size="14.00" fill="#666666">[timestamp with time zone]</text>
<polygon fill="none" stroke="black" points="233.49,-366.6 233.49,-397.4 488.77,-397.4 488.77,-366.6 233.49,-366.6"/>
<text text-anchor="start" x="240.49" y="-378.8" font-family="Arial" font-size="14.00">email </text>
<text text-anchor="start" x="277.83" y="-378.8" font-family="Arial" font-size="14.00" fill="#666666">[varchar(255)]</text>
<polygon fill="none" stroke="black" points="233.49,-335.8 233.49,-366.6 488.77,-366.6 488.77,-335.8 233.49,-335.8"/>
<text text-anchor="start" x="240.49" y="-348" font-family="Arial" font-size="14.00">electronic_invoicing_enabled </text>
<text text-anchor="start" x="424.17" y="-348" font-family="Arial" font-size="14.00" fill="#666666">[boolean]</text>
<polygon fill="none" stroke="black" points="233.49,-305 233.49,-335.8 488.77,-335.8 488.77,-305 233.49,-305"/>
<text text-anchor="start" x="240.49" y="-317.2" font-family="Arial" font-size="14.00">permissions_enforcement_mode </text>
<text text-anchor="start" x="447.48" y="-317.2" font-family="Arial" font-size="14.00" fill="#666666">[text]</text>
</g>
<!-- public.gamification_modules&#45;&gt;public.tenants -->
<g id="edge2" class="edge">
<title>public.gamification_modules:tenant_id&#45;&gt;public.tenants:id</title>
<path fill="none" stroke="black" d="M354.35,-1204.75C159.49,-1187.08 477.55,-654.4 488.77,-599.4 497.15,-558.38 531.64,-505.2 489.77,-505.2"/>
<polygon fill="black" stroke="black" points="354.33,-1204.75 364.13,-1209.68 359.66,-1204.98 363.99,-1205.17 363.99,-1205.17 363.99,-1205.17 359.66,-1204.98 364.52,-1200.69 354.33,-1204.75"/>
<text text-anchor="start" x="7" y="-1215.2" font-family="Arial" font-size="10.00">FOREIGN KEY (tenant_id) REFERENCES tenants(id) ON DELETE CASCADE</text>
</g>
<!-- public.profile -->
<g id="node4" class="node">
<title>public.profile</title>
<polygon fill="#efefef" stroke="none" points="593.29,-782.4 593.29,-818 846.97,-818 846.97,-782.4 593.29,-782.4"/>
<polygon fill="none" stroke="black" points="593.29,-782.4 593.29,-818 846.97,-818 846.97,-782.4 593.29,-782.4"/>
<text text-anchor="start" x="609.15" y="-795.8" font-family="Arial Bold" font-size="18.00">public.profile</text>
<text text-anchor="start" x="706.62" y="-795.8" font-family="Arial" font-size="14.00">    </text>
<text text-anchor="start" x="737.74" y="-795.8" font-family="Arial" font-size="14.00" fill="#666666">[BASE TABLE]</text>
<polygon fill="none" stroke="black" points="593.29,-751.6 593.29,-782.4 846.97,-782.4 846.97,-751.6 593.29,-751.6"/>
<text text-anchor="start" x="600.29" y="-763.8" font-family="Arial" font-size="14.00">name </text>
<text text-anchor="start" x="639.2" y="-763.8" font-family="Arial" font-size="14.00" fill="#666666">[varchar]</text>
<polygon fill="none" stroke="black" points="593.29,-720.8 593.29,-751.6 846.97,-751.6 846.97,-720.8 593.29,-720.8"/>
<text text-anchor="start" x="600.29" y="-733" font-family="Arial" font-size="14.00">logo_avatar </text>
<text text-anchor="start" x="677.34" y="-733" font-family="Arial" font-size="14.00" fill="#666666">[varchar]</text>
<polygon fill="none" stroke="black" points="593.29,-690 593.29,-720.8 846.97,-720.8 846.97,-690 593.29,-690"/>
<text text-anchor="start" x="600.29" y="-702.2" font-family="Arial" font-size="14.00">description </text>
<text text-anchor="start" x="671.88" y="-702.2" font-family="Arial" font-size="14.00" fill="#666666">[varchar]</text>
<polygon fill="none" stroke="black" points="593.29,-659.2 593.29,-690 846.97,-690 846.97,-659.2 593.29,-659.2"/>
<text text-anchor="start" x="600.29" y="-671.4" font-family="Arial" font-size="14.00">website </text>
<text text-anchor="start" x="651.65" y="-671.4" font-family="Arial" font-size="14.00" fill="#666666">[varchar]</text>
<polygon fill="none" stroke="black" points="593.29,-628.4 593.29,-659.2 846.97,-659.2 846.97,-628.4 593.29,-628.4"/>
<text text-anchor="start" x="600.29" y="-640.6" font-family="Arial" font-size="14.00">status </text>
<text text-anchor="start" x="641.53" y="-640.6" font-family="Arial" font-size="14.00" fill="#666666">[boolean]</text>
<polygon fill="none" stroke="black" points="593.29,-597.6 593.29,-628.4 846.97,-628.4 846.97,-597.6 593.29,-597.6"/>
<text text-anchor="start" x="600.29" y="-609.8" font-family="Arial" font-size="14.00">city </text>
<text text-anchor="start" x="625.18" y="-609.8" font-family="Arial" font-size="14.00" fill="#666666">[varchar]</text>
<polygon fill="none" stroke="black" points="593.29,-566.8 593.29,-597.6 846.97,-597.6 846.97,-566.8 593.29,-566.8"/>
<text text-anchor="start" x="600.29" y="-579" font-family="Arial" font-size="14.00">banner </text>
<text text-anchor="start" x="647.77" y="-579" font-family="Arial" font-size="14.00" fill="#666666">[varchar]</text>
<polygon fill="none" stroke="black" points="593.29,-536 593.29,-566.8 846.97,-566.8 846.97,-536 593.29,-536"/>
<text text-anchor="start" x="600.29" y="-548.2" font-family="Arial" font-size="14.00">category </text>
<text text-anchor="start" x="657.88" y="-548.2" font-family="Arial" font-size="14.00" fill="#666666">[varchar]</text>
<polygon fill="none" stroke="black" points="593.29,-505.2 593.29,-536 846.97,-536 846.97,-505.2 593.29,-505.2"/>
<text text-anchor="start" x="600.29" y="-517.4" font-family="Arial" font-size="14.00">shadowban </text>
<text text-anchor="start" x="675.79" y="-517.4" font-family="Arial" font-size="14.00" fill="#666666">[boolean]</text>
<polygon fill="none" stroke="black" points="593.29,-474.4 593.29,-505.2 846.97,-505.2 846.97,-474.4 593.29,-474.4"/>
<text text-anchor="start" x="600.29" y="-486.6" font-family="Arial" font-size="14.00">id </text>
<text text-anchor="start" x="615.08" y="-486.6" font-family="Arial" font-size="14.00" fill="#666666">[uuid]</text>
<polygon fill="none" stroke="black" points="593.29,-443.6 593.29,-474.4 846.97,-474.4 846.97,-443.6 593.29,-443.6"/>
<text text-anchor="start" x="600.29" y="-455.8" font-family="Arial" font-size="14.00">email </text>
<text text-anchor="start" x="637.63" y="-455.8" font-family="Arial" font-size="14.00" fill="#666666">[varchar(255)]</text>
<polygon fill="none" stroke="black" points="593.29,-412.8 593.29,-443.6 846.97,-443.6 846.97,-412.8 593.29,-412.8"/>
<text text-anchor="start" x="600.29" y="-425" font-family="Arial" font-size="14.00">enterprise </text>
<text text-anchor="start" x="666.43" y="-425" font-family="Arial" font-size="14.00" fill="#666666">[varchar(255)]</text>
<polygon fill="none" stroke="black" points="593.29,-382 593.29,-412.8 846.97,-412.8 846.97,-382 593.29,-382"/>
<text text-anchor="start" x="600.29" y="-394.2" font-family="Arial" font-size="14.00">user_name </text>
<text text-anchor="start" x="674.22" y="-394.2" font-family="Arial" font-size="14.00" fill="#666666">[varchar]</text>
<polygon fill="none" stroke="black" points="593.29,-351.2 593.29,-382 846.97,-382 846.97,-351.2 593.29,-351.2"/>
<text text-anchor="start" x="600.29" y="-363.4" font-family="Arial" font-size="14.00">created_at </text>
<text text-anchor="start" x="670.34" y="-363.4" font-family="Arial" font-size="14.00" fill="#666666">[timestamp with time zone]</text>
<polygon fill="none" stroke="black" points="593.29,-320.4 593.29,-351.2 846.97,-351.2 846.97,-320.4 593.29,-320.4"/>
<text text-anchor="start" x="600.29" y="-332.6" font-family="Arial" font-size="14.00">planet </text>
<text text-anchor="start" x="642.32" y="-332.6" font-family="Arial" font-size="14.00" fill="#666666">[varchar]</text>
<polygon fill="none" stroke="black" points="593.29,-289.6 593.29,-320.4 846.97,-320.4 846.97,-289.6 593.29,-289.6"/>
<text text-anchor="start" x="600.29" y="-301.8" font-family="Arial" font-size="14.00">country </text>
<text text-anchor="start" x="650.09" y="-301.8" font-family="Arial" font-size="14.00" fill="#666666">[varchar]</text>
<polygon fill="none" stroke="black" points="593.29,-258.8 593.29,-289.6 846.97,-289.6 846.97,-258.8 593.29,-258.8"/>
<text text-anchor="start" x="600.29" y="-271" font-family="Arial" font-size="14.00">nationality_id </text>
<text text-anchor="start" x="685.9" y="-271" font-family="Arial" font-size="14.00" fill="#666666">[integer]</text>
<polygon fill="none" stroke="black" points="593.29,-228 593.29,-258.8 846.97,-258.8 846.97,-228 593.29,-228"/>
<text text-anchor="start" x="600.29" y="-240.2" font-family="Arial" font-size="14.00">phone_number </text>
<text text-anchor="start" x="698.37" y="-240.2" font-family="Arial" font-size="14.00" fill="#666666">[varchar(20)]</text>
<polygon fill="none" stroke="black" points="593.29,-197.2 593.29,-228 846.97,-228 846.97,-197.2 593.29,-197.2"/>
<text text-anchor="start" x="600.29" y="-209.4" font-family="Arial" font-size="14.00">updated_at </text>
<text text-anchor="start" x="674.25" y="-209.4" font-family="Arial" font-size="14.00" fill="#666666">[timestamp with time zone]</text>
<polygon fill="none" stroke="black" points="593.29,-166.4 593.29,-197.2 846.97,-197.2 846.97,-166.4 593.29,-166.4"/>
<text text-anchor="start" x="600.29" y="-178.6" font-family="Arial" font-size="14.00">phone_country_code </text>
<text text-anchor="start" x="734.95" y="-178.6" font-family="Arial" font-size="14.00" fill="#666666">[integer]</text>
<polygon fill="none" stroke="black" points="593.29,-135.6 593.29,-166.4 846.97,-166.4 846.97,-135.6 593.29,-135.6"/>
<text text-anchor="start" x="600.29" y="-147.8" font-family="Arial" font-size="14.00">fiscal_id_type </text>
<text text-anchor="start" x="689.01" y="-147.8" font-family="Arial" font-size="14.00" fill="#666666">[text]</text>
<polygon fill="none" stroke="black" points="593.29,-104.8 593.29,-135.6 846.97,-135.6 846.97,-104.8 593.29,-104.8"/>
<text text-anchor="start" x="600.29" y="-117" font-family="Arial" font-size="14.00">fiscal_id </text>
<text text-anchor="start" x="654.76" y="-117" font-family="Arial" font-size="14.00" fill="#666666">[text]</text>
<polygon fill="none" stroke="black" points="593.29,-74 593.29,-104.8 846.97,-104.8 846.97,-74 593.29,-74"/>
<text text-anchor="start" x="600.29" y="-86.2" font-family="Arial" font-size="14.00">fiscal_business_name </text>
<text text-anchor="start" x="741.92" y="-86.2" font-family="Arial" font-size="14.00" fill="#666666">[text]</text>
<polygon fill="none" stroke="black" points="593.29,-43.2 593.29,-74 846.97,-74 846.97,-43.2 593.29,-43.2"/>
<text text-anchor="start" x="600.29" y="-55.4" font-family="Arial" font-size="14.00">fiscal_email </text>
<text text-anchor="start" x="677.32" y="-55.4" font-family="Arial" font-size="14.00" fill="#666666">[text]</text>
</g>
<!-- public.gamification_modules&#45;&gt;public.profile -->
<g id="edge3" class="edge">
<title>public.gamification_modules:created_by&#45;&gt;public.profile:id</title>
<path fill="none" stroke="black" d="M725.77,-1019.32C767.19,-1009.7 745.28,-937.96 714.6,-897.2 680.78,-852.27 626.99,-906.23 593.29,-861.2 543.84,-795.12 509.76,-489.8 592.29,-489.8"/>
<polygon fill="black" stroke="black" points="725.88,-1019.31 715.46,-1015.89 720.57,-1019.87 716.27,-1020.33 716.27,-1020.33 716.27,-1020.33 720.57,-1019.87 716.41,-1024.84 725.88,-1019.31"/>
<text text-anchor="start" x="722.6" y="-1030.4" font-family="Arial" font-size="10.00">FOREIGN KEY (created_by) REFERENCES profile(id)</text>
</g>
<!-- public.gamification_activities -->
<g id="node2" class="node">
<title>public.gamification_activities</title>
<polygon fill="#efefef" stroke="none" points="363.67,-1812.8 363.67,-1848.4 716.59,-1848.4 716.59,-1812.8 363.67,-1812.8"/>
<polygon fill="none" stroke="black" points="363.67,-1812.8 363.67,-1848.4 716.59,-1848.4 716.59,-1812.8 363.67,-1812.8"/>
<text text-anchor="start" x="370.67" y="-1826.2" font-family="Arial Bold" font-size="18.00">public.gamification_activities</text>
<text text-anchor="start" x="585.1" y="-1826.2" font-family="Arial" font-size="14.00">    </text>
<text text-anchor="start" x="616.22" y="-1826.2" font-family="Arial" font-size="14.00" fill="#666666">[BASE TABLE]</text>
<polygon fill="none" stroke="black" points="363.67,-1782 363.67,-1812.8 716.59,-1812.8 716.59,-1782 363.67,-1782"/>
<text text-anchor="start" x="370.67" y="-1794.2" font-family="Arial" font-size="14.00">id </text>
<text text-anchor="start" x="385.45" y="-1794.2" font-family="Arial" font-size="14.00" fill="#666666">[integer]</text>
<polygon fill="none" stroke="black" points="363.67,-1751.2 363.67,-1782 716.59,-1782 716.59,-1751.2 363.67,-1751.2"/>
<text text-anchor="start" x="370.67" y="-1763.4" font-family="Arial" font-size="14.00">module_id </text>
<text text-anchor="start" x="439.16" y="-1763.4" font-family="Arial" font-size="14.00" fill="#666666">[integer]</text>
<polygon fill="none" stroke="black" points="363.67,-1720.4 363.67,-1751.2 716.59,-1751.2 716.59,-1720.4 363.67,-1720.4"/>
<text text-anchor="start" x="370.67" y="-1732.6" font-family="Arial" font-size="14.00">tenant_id </text>
<text text-anchor="start" x="432.16" y="-1732.6" font-family="Arial" font-size="14.00" fill="#666666">[uuid]</text>
<polygon fill="none" stroke="black" points="363.67,-1689.6 363.67,-1720.4 716.59,-1720.4 716.59,-1689.6 363.67,-1689.6"/>
<text text-anchor="start" x="370.67" y="-1701.8" font-family="Arial" font-size="14.00">activity_name </text>
<text text-anchor="start" x="460.15" y="-1701.8" font-family="Arial" font-size="14.00" fill="#666666">[varchar(255)]</text>
<polygon fill="none" stroke="black" points="363.67,-1658.8 363.67,-1689.6 716.59,-1689.6 716.59,-1658.8 363.67,-1658.8"/>
<text text-anchor="start" x="370.67" y="-1671" font-family="Arial" font-size="14.00">activity_description </text>
<text text-anchor="start" x="492.83" y="-1671" font-family="Arial" font-size="14.00" fill="#666666">[text]</text>
<polygon fill="none" stroke="black" points="363.67,-1628 363.67,-1658.8 716.59,-1658.8 716.59,-1628 363.67,-1628"/>
<text text-anchor="start" x="370.67" y="-1640.2" font-family="Arial" font-size="14.00">base_waros </text>
<text text-anchor="start" x="450.05" y="-1640.2" font-family="Arial" font-size="14.00" fill="#666666">[integer]</text>
<polygon fill="none" stroke="black" points="363.67,-1597.2 363.67,-1628 716.59,-1628 716.59,-1597.2 363.67,-1597.2"/>
<text text-anchor="start" x="370.67" y="-1609.4" font-family="Arial" font-size="14.00">bonus_waros </text>
<text text-anchor="start" x="457.83" y="-1609.4" font-family="Arial" font-size="14.00" fill="#666666">[integer]</text>
<polygon fill="none" stroke="black" points="363.67,-1566.4 363.67,-1597.2 716.59,-1597.2 716.59,-1566.4 363.67,-1566.4"/>
<text text-anchor="start" x="370.67" y="-1578.6" font-family="Arial" font-size="14.00">max_daily_times </text>
<text text-anchor="start" x="478.82" y="-1578.6" font-family="Arial" font-size="14.00" fill="#666666">[integer]</text>
<polygon fill="none" stroke="black" points="363.67,-1535.6 363.67,-1566.4 716.59,-1566.4 716.59,-1535.6 363.67,-1535.6"/>
<text text-anchor="start" x="370.67" y="-1547.8" font-family="Arial" font-size="14.00">max_weekly_times </text>
<text text-anchor="start" x="492.82" y="-1547.8" font-family="Arial" font-size="14.00" fill="#666666">[integer]</text>
<polygon fill="none" stroke="black" points="363.67,-1504.8 363.67,-1535.6 716.59,-1535.6 716.59,-1504.8 363.67,-1504.8"/>
<text text-anchor="start" x="370.67" y="-1517" font-family="Arial" font-size="14.00">requires_validation </text>
<text text-anchor="start" x="492.07" y="-1517" font-family="Arial" font-size="14.00" fill="#666666">[boolean]</text>
<polygon fill="none" stroke="black" points="363.67,-1474 363.67,-1504.8 716.59,-1504.8 716.59,-1474 363.67,-1474"/>
<text text-anchor="start" x="370.67" y="-1486.2" font-family="Arial" font-size="14.00">is_active </text>
<text text-anchor="start" x="429.03" y="-1486.2" font-family="Arial" font-size="14.00" fill="#666666">[boolean]</text>
<polygon fill="none" stroke="black" points="363.67,-1443.2 363.67,-1474 716.59,-1474 716.59,-1443.2 363.67,-1443.2"/>
<text text-anchor="start" x="370.67" y="-1455.4" font-family="Arial" font-size="14.00">created_at </text>
<text text-anchor="start" x="440.72" y="-1455.4" font-family="Arial" font-size="14.00" fill="#666666">[timestamp with time zone]</text>
<polygon fill="none" stroke="black" points="363.67,-1412.4 363.67,-1443.2 716.59,-1443.2 716.59,-1412.4 363.67,-1412.4"/>
<text text-anchor="start" x="370.67" y="-1424.6" font-family="Arial" font-size="14.00">updated_at </text>
<text text-anchor="start" x="444.63" y="-1424.6" font-family="Arial" font-size="14.00" fill="#666666">[timestamp with time zone]</text>
</g>
<!-- public.gamification_activities&#45;&gt;public.gamification_modules -->
<g id="edge1" class="edge">
<title>public.gamification_activities:module_id&#45;&gt;public.gamification_modules:id</title>
<path fill="none" stroke="black" d="M727.8,-1766.26C953.31,-1751.17 947.97,-1236 715.6,-1236"/>
<polygon fill="black" stroke="black" points="727.92,-1766.26 717.78,-1762.09 722.59,-1766.43 718.26,-1766.58 718.26,-1766.58 718.26,-1766.58 722.59,-1766.43 718.08,-1771.09 727.92,-1766.26"/>
<text text-anchor="start" x="724.59" y="-1776.6" font-family="Arial" font-size="10.00">FOREIGN KEY (module_id) REFERENCES gamification_modules(id) ON DELETE CASCADE</text>
</g>
</g>
</svg>
