<?xml version="1.0" encoding="UTF-8" standalone="no"?>
<!DOCTYPE svg PUBLIC "-//W3C//DTD SVG 1.1//EN"
 "http://www.w3.org/Graphics/SVG/1.1/DTD/svg11.dtd">
<!-- Generated by graphviz version 12.1.2 (20240928.0832)
 -->
<!-- Title: public.waros_wallets Pages: 1 -->
<svg width="1024pt" height="1618pt"
 viewBox="0.00 0.00 1024.14 1618.40" xmlns="http://www.w3.org/2000/svg" xmlns:xlink="http://www.w3.org/1999/xlink">
<g id="graph0" class="graph" transform="scale(1 1) rotate(0) translate(4 1614.4)">
<title>public.waros_wallets</title>
<polygon fill="white" stroke="none" points="-4,4 -4,-1614.4 1020.14,-1614.4 1020.14,4 -4,4"/>
<!-- public.waros_wallets -->
<g id="node1" class="node">
<title>public.waros_wallets</title>
<polygon fill="#efefef" stroke="none" points="359.53,-1528.6 359.53,-1564.2 650.48,-1564.2 650.48,-1528.6 359.53,-1528.6"/>
<polygon fill="none" stroke="black" points="359.53,-1528.6 359.53,-1564.2 650.48,-1564.2 650.48,-1528.6 359.53,-1528.6"/>
<text text-anchor="start" x="366.53" y="-1542" font-family="Arial Bold" font-size="18.00">public.waros_wallets</text>
<text text-anchor="start" x="518.99" y="-1542" font-family="Arial" font-size="14.00">    </text>
<text text-anchor="start" x="550.11" y="-1542" font-family="Arial" font-size="14.00" fill="#666666">[BASE TABLE]</text>
<polygon fill="none" stroke="black" points="359.53,-1497.8 359.53,-1528.6 650.48,-1528.6 650.48,-1497.8 359.53,-1497.8"/>
<text text-anchor="start" x="366.53" y="-1510" font-family="Arial" font-size="14.00">id </text>
<text text-anchor="start" x="381.31" y="-1510" font-family="Arial" font-size="14.00" fill="#666666">[integer]</text>
<polygon fill="none" stroke="black" points="359.53,-1467 359.53,-1497.8 650.48,-1497.8 650.48,-1467 359.53,-1467"/>
<text text-anchor="start" x="366.53" y="-1479.2" font-family="Arial" font-size="14.00">profile_id </text>
<text text-anchor="start" x="427.23" y="-1479.2" font-family="Arial" font-size="14.00" fill="#666666">[uuid]</text>
<polygon fill="none" stroke="black" points="359.53,-1436.2 359.53,-1467 650.48,-1467 650.48,-1436.2 359.53,-1436.2"/>
<text text-anchor="start" x="366.53" y="-1448.4" font-family="Arial" font-size="14.00">tenant_id </text>
<text text-anchor="start" x="428.02" y="-1448.4" font-family="Arial" font-size="14.00" fill="#666666">[uuid]</text>
<polygon fill="none" stroke="black" points="359.53,-1405.4 359.53,-1436.2 650.48,-1436.2 650.48,-1405.4 359.53,-1405.4"/>
<text text-anchor="start" x="366.53" y="-1417.6" font-family="Arial" font-size="14.00">current_balance </text>
<text text-anchor="start" x="470.82" y="-1417.6" font-family="Arial" font-size="14.00" fill="#666666">[integer]</text>
<polygon fill="none" stroke="black" points="359.53,-1374.6 359.53,-1405.4 650.48,-1405.4 650.48,-1374.6 359.53,-1374.6"/>
<text text-anchor="start" x="366.53" y="-1386.8" font-family="Arial" font-size="14.00">lifetime_earned </text>
<text text-anchor="start" x="466.14" y="-1386.8" font-family="Arial" font-size="14.00" fill="#666666">[integer]</text>
<polygon fill="none" stroke="black" points="359.53,-1343.8 359.53,-1374.6 650.48,-1374.6 650.48,-1343.8 359.53,-1343.8"/>
<text text-anchor="start" x="366.53" y="-1356" font-family="Arial" font-size="14.00">lifetime_spent </text>
<text text-anchor="start" x="456.79" y="-1356" font-family="Arial" font-size="14.00" fill="#666666">[integer]</text>
<polygon fill="none" stroke="black" points="359.53,-1313 359.53,-1343.8 650.48,-1343.8 650.48,-1313 359.53,-1313"/>
<text text-anchor="start" x="366.53" y="-1325.2" font-family="Arial" font-size="14.00">current_level </text>
<text text-anchor="start" x="450.57" y="-1325.2" font-family="Arial" font-size="14.00" fill="#666666">[integer]</text>
<polygon fill="none" stroke="black" points="359.53,-1282.2 359.53,-1313 650.48,-1313 650.48,-1282.2 359.53,-1282.2"/>
<text text-anchor="start" x="366.53" y="-1294.4" font-family="Arial" font-size="14.00">waros_to_next_level </text>
<text text-anchor="start" x="498.05" y="-1294.4" font-family="Arial" font-size="14.00" fill="#666666">[integer]</text>
<polygon fill="none" stroke="black" points="359.53,-1251.4 359.53,-1282.2 650.48,-1282.2 650.48,-1251.4 359.53,-1251.4"/>
<text text-anchor="start" x="366.53" y="-1263.6" font-family="Arial" font-size="14.00">daily_waros </text>
<text text-anchor="start" x="444.34" y="-1263.6" font-family="Arial" font-size="14.00" fill="#666666">[integer]</text>
<polygon fill="none" stroke="black" points="359.53,-1220.6 359.53,-1251.4 650.48,-1251.4 650.48,-1220.6 359.53,-1220.6"/>
<text text-anchor="start" x="366.53" y="-1232.8" font-family="Arial" font-size="14.00">weekly_waros </text>
<text text-anchor="start" x="458.34" y="-1232.8" font-family="Arial" font-size="14.00" fill="#666666">[integer]</text>
<polygon fill="none" stroke="black" points="359.53,-1189.8 359.53,-1220.6 650.48,-1220.6 650.48,-1189.8 359.53,-1189.8"/>
<text text-anchor="start" x="366.53" y="-1202" font-family="Arial" font-size="14.00">monthly_waros </text>
<text text-anchor="start" x="464.57" y="-1202" font-family="Arial" font-size="14.00" fill="#666666">[integer]</text>
<polygon fill="none" stroke="black" points="359.53,-1159 359.53,-1189.8 650.48,-1189.8 650.48,-1159 359.53,-1159"/>
<text text-anchor="start" x="366.53" y="-1171.2" font-family="Arial" font-size="14.00">daily_reset_date </text>
<text text-anchor="start" x="473.15" y="-1171.2" font-family="Arial" font-size="14.00" fill="#666666">[date]</text>
<polygon fill="none" stroke="black" points="359.53,-1128.2 359.53,-1159 650.48,-1159 650.48,-1128.2 359.53,-1128.2"/>
<text text-anchor="start" x="366.53" y="-1140.4" font-family="Arial" font-size="14.00">weekly_reset_date </text>
<text text-anchor="start" x="487.15" y="-1140.4" font-family="Arial" font-size="14.00" fill="#666666">[date]</text>
<polygon fill="none" stroke="black" points="359.53,-1097.4 359.53,-1128.2 650.48,-1128.2 650.48,-1097.4 359.53,-1097.4"/>
<text text-anchor="start" x="366.53" y="-1109.6" font-family="Arial" font-size="14.00">monthly_reset_date </text>
<text text-anchor="start" x="493.38" y="-1109.6" font-family="Arial" font-size="14.00" fill="#666666">[date]</text>
<polygon fill="none" stroke="black" points="359.53,-1066.6 359.53,-1097.4 650.48,-1097.4 650.48,-1066.6 359.53,-1066.6"/>
<text text-anchor="start" x="366.53" y="-1078.8" font-family="Arial" font-size="14.00">current_streak </text>
<text text-anchor="start" x="459.9" y="-1078.8" font-family="Arial" font-size="14.00" fill="#666666">[integer]</text>
<polygon fill="none" stroke="black" points="359.53,-1035.8 359.53,-1066.6 650.48,-1066.6 650.48,-1035.8 359.53,-1035.8"/>
<text text-anchor="start" x="366.53" y="-1048" font-family="Arial" font-size="14.00">max_streak </text>
<text text-anchor="start" x="442.77" y="-1048" font-family="Arial" font-size="14.00" fill="#666666">[integer]</text>
<polygon fill="none" stroke="black" points="359.53,-1005 359.53,-1035.8 650.48,-1035.8 650.48,-1005 359.53,-1005"/>
<text text-anchor="start" x="366.53" y="-1017.2" font-family="Arial" font-size="14.00">last_activity_date </text>
<text text-anchor="start" x="477.81" y="-1017.2" font-family="Arial" font-size="14.00" fill="#666666">[date]</text>
<polygon fill="none" stroke="black" points="359.53,-974.2 359.53,-1005 650.48,-1005 650.48,-974.2 359.53,-974.2"/>
<text text-anchor="start" x="366.53" y="-986.4" font-family="Arial" font-size="14.00">created_at </text>
<text text-anchor="start" x="436.57" y="-986.4" font-family="Arial" font-size="14.00" fill="#666666">[timestamp with time zone]</text>
<polygon fill="none" stroke="black" points="359.53,-943.4 359.53,-974.2 650.48,-974.2 650.48,-943.4 359.53,-943.4"/>
<text text-anchor="start" x="366.53" y="-955.6" font-family="Arial" font-size="14.00">updated_at </text>
<text text-anchor="start" x="440.48" y="-955.6" font-family="Arial" font-size="14.00" fill="#666666">[timestamp with time zone]</text>
<polygon fill="none" stroke="black" stroke-width="3" points="358.03,-941.9 358.03,-1565.7 651.98,-1565.7 651.98,-941.9 358.03,-941.9"/>
</g>
<!-- public.profile -->
<g id="node2" class="node">
<title>public.profile</title>
<polygon fill="#efefef" stroke="none" points="199.16,-782.4 199.16,-818 452.84,-818 452.84,-782.4 199.16,-782.4"/>
<polygon fill="none" stroke="black" points="199.16,-782.4 199.16,-818 452.84,-818 452.84,-782.4 199.16,-782.4"/>
<text text-anchor="start" x="215.02" y="-795.8" font-family="Arial Bold" font-size="18.00">public.profile</text>
<text text-anchor="start" x="312.49" y="-795.8" font-family="Arial" font-size="14.00">    </text>
<text text-anchor="start" x="343.61" y="-795.8" font-family="Arial" font-size="14.00" fill="#666666">[BASE TABLE]</text>
<polygon fill="none" stroke="black" points="199.16,-751.6 199.16,-782.4 452.84,-782.4 452.84,-751.6 199.16,-751.6"/>
<text text-anchor="start" x="206.16" y="-763.8" font-family="Arial" font-size="14.00">name </text>
<text text-anchor="start" x="245.07" y="-763.8" font-family="Arial" font-size="14.00" fill="#666666">[varchar]</text>
<polygon fill="none" stroke="black" points="199.16,-720.8 199.16,-751.6 452.84,-751.6 452.84,-720.8 199.16,-720.8"/>
<text text-anchor="start" x="206.16" y="-733" font-family="Arial" font-size="14.00">logo_avatar </text>
<text text-anchor="start" x="283.22" y="-733" font-family="Arial" font-size="14.00" fill="#666666">[varchar]</text>
<polygon fill="none" stroke="black" points="199.16,-690 199.16,-720.8 452.84,-720.8 452.84,-690 199.16,-690"/>
<text text-anchor="start" x="206.16" y="-702.2" font-family="Arial" font-size="14.00">description </text>
<text text-anchor="start" x="277.75" y="-702.2" font-family="Arial" font-size="14.00" fill="#666666">[varchar]</text>
<polygon fill="none" stroke="black" points="199.16,-659.2 199.16,-690 452.84,-690 452.84,-659.2 199.16,-659.2"/>
<text text-anchor="start" x="206.16" y="-671.4" font-family="Arial" font-size="14.00">website </text>
<text text-anchor="start" x="257.52" y="-671.4" font-family="Arial" font-size="14.00" fill="#666666">[varchar]</text>
<polygon fill="none" stroke="black" points="199.16,-628.4 199.16,-659.2 452.84,-659.2 452.84,-628.4 199.16,-628.4"/>
<text text-anchor="start" x="206.16" y="-640.6" font-family="Arial" font-size="14.00">status </text>
<text text-anchor="start" x="247.4" y="-640.6" font-family="Arial" font-size="14.00" fill="#666666">[boolean]</text>
<polygon fill="none" stroke="black" points="199.16,-597.6 199.16,-628.4 452.84,-628.4 452.84,-597.6 199.16,-597.6"/>
<text text-anchor="start" x="206.16" y="-609.8" font-family="Arial" font-size="14.00">city </text>
<text text-anchor="start" x="231.05" y="-609.8" font-family="Arial" font-size="14.00" fill="#666666">[varchar]</text>
<polygon fill="none" stroke="black" points="199.16,-566.8 199.16,-597.6 452.84,-597.6 452.84,-566.8 199.16,-566.8"/>
<text text-anchor="start" x="206.16" y="-579" font-family="Arial" font-size="14.00">banner </text>
<text text-anchor="start" x="253.64" y="-579" font-family="Arial" font-size="14.00" fill="#666666">[varchar]</text>
<polygon fill="none" stroke="black" points="199.16,-536 199.16,-566.8 452.84,-566.8 452.84,-536 199.16,-536"/>
<text text-anchor="start" x="206.16" y="-548.2" font-family="Arial" font-size="14.00">category </text>
<text text-anchor="start" x="263.75" y="-548.2" font-family="Arial" font-size="14.00" fill="#666666">[varchar]</text>
<polygon fill="none" stroke="black" points="199.16,-505.2 199.16,-536 452.84,-536 452.84,-505.2 199.16,-505.2"/>
<text text-anchor="start" x="206.16" y="-517.4" font-family="Arial" font-size="14.00">shadowban </text>
<text text-anchor="start" x="281.67" y="-517.4" font-family="Arial" font-size="14.00" fill="#666666">[boolean]</text>
<polygon fill="none" stroke="black" points="199.16,-474.4 199.16,-505.2 452.84,-505.2 452.84,-474.4 199.16,-474.4"/>
<text text-anchor="start" x="206.16" y="-486.6" font-family="Arial" font-size="14.00">id </text>
<text text-anchor="start" x="220.95" y="-486.6" font-family="Arial" font-size="14.00" fill="#666666">[uuid]</text>
<polygon fill="none" stroke="black" points="199.16,-443.6 199.16,-474.4 452.84,-474.4 452.84,-443.6 199.16,-443.6"/>
<text text-anchor="start" x="206.16" y="-455.8" font-family="Arial" font-size="14.00">email </text>
<text text-anchor="start" x="243.51" y="-455.8" font-family="Arial" font-size="14.00" fill="#666666">[varchar(255)]</text>
<polygon fill="none" stroke="black" points="199.16,-412.8 199.16,-443.6 452.84,-443.6 452.84,-412.8 199.16,-412.8"/>
<text text-anchor="start" x="206.16" y="-425" font-family="Arial" font-size="14.00">enterprise </text>
<text text-anchor="start" x="272.31" y="-425" font-family="Arial" font-size="14.00" fill="#666666">[varchar(255)]</text>
<polygon fill="none" stroke="black" points="199.16,-382 199.16,-412.8 452.84,-412.8 452.84,-382 199.16,-382"/>
<text text-anchor="start" x="206.16" y="-394.2" font-family="Arial" font-size="14.00">user_name </text>
<text text-anchor="start" x="280.09" y="-394.2" font-family="Arial" font-size="14.00" fill="#666666">[varchar]</text>
<polygon fill="none" stroke="black" points="199.16,-351.2 199.16,-382 452.84,-382 452.84,-351.2 199.16,-351.2"/>
<text text-anchor="start" x="206.16" y="-363.4" font-family="Arial" font-size="14.00">created_at </text>
<text text-anchor="start" x="276.21" y="-363.4" font-family="Arial" font-size="14.00" fill="#666666">[timestamp with time zone]</text>
<polygon fill="none" stroke="black" points="199.16,-320.4 199.16,-351.2 452.84,-351.2 452.84,-320.4 199.16,-320.4"/>
<text text-anchor="start" x="206.16" y="-332.6" font-family="Arial" font-size="14.00">planet </text>
<text text-anchor="start" x="248.2" y="-332.6" font-family="Arial" font-size="14.00" fill="#666666">[varchar]</text>
<polygon fill="none" stroke="black" points="199.16,-289.6 199.16,-320.4 452.84,-320.4 452.84,-289.6 199.16,-289.6"/>
<text text-anchor="start" x="206.16" y="-301.8" font-family="Arial" font-size="14.00">country </text>
<text text-anchor="start" x="255.96" y="-301.8" font-family="Arial" font-size="14.00" fill="#666666">[varchar]</text>
<polygon fill="none" stroke="black" points="199.16,-258.8 199.16,-289.6 452.84,-289.6 452.84,-258.8 199.16,-258.8"/>
<text text-anchor="start" x="206.16" y="-271" font-family="Arial" font-size="14.00">nationality_id </text>
<text text-anchor="start" x="291.78" y="-271" font-family="Arial" font-size="14.00" fill="#666666">[integer]</text>
<polygon fill="none" stroke="black" points="199.16,-228 199.16,-258.8 452.84,-258.8 452.84,-228 199.16,-228"/>
<text text-anchor="start" x="206.16" y="-240.2" font-family="Arial" font-size="14.00">phone_number </text>
<text text-anchor="start" x="304.24" y="-240.2" font-family="Arial" font-size="14.00" fill="#666666">[varchar(20)]</text>
<polygon fill="none" stroke="black" points="199.16,-197.2 199.16,-228 452.84,-228 452.84,-197.2 199.16,-197.2"/>
<text text-anchor="start" x="206.16" y="-209.4" font-family="Arial" font-size="14.00">updated_at </text>
<text text-anchor="start" x="280.12" y="-209.4" font-family="Arial" font-size="14.00" fill="#666666">[timestamp with time zone]</text>
<polygon fill="none" stroke="black" points="199.16,-166.4 199.16,-197.2 452.84,-197.2 452.84,-166.4 199.16,-166.4"/>
<text text-anchor="start" x="206.16" y="-178.6" font-family="Arial" font-size="14.00">phone_country_code </text>
<text text-anchor="start" x="340.82" y="-178.6" font-family="Arial" font-size="14.00" fill="#666666">[integer]</text>
<polygon fill="none" stroke="black" points="199.16,-135.6 199.16,-166.4 452.84,-166.4 452.84,-135.6 199.16,-135.6"/>
<text text-anchor="start" x="206.16" y="-147.8" font-family="Arial" font-size="14.00">fiscal_id_type </text>
<text text-anchor="start" x="294.88" y="-147.8" font-family="Arial" font-size="14.00" fill="#666666">[text]</text>
<polygon fill="none" stroke="black" points="199.16,-104.8 199.16,-135.6 452.84,-135.6 452.84,-104.8 199.16,-104.8"/>
<text text-anchor="start" x="206.16" y="-117" font-family="Arial" font-size="14.00">fiscal_id </text>
<text text-anchor="start" x="260.63" y="-117" font-family="Arial" font-size="14.00" fill="#666666">[text]</text>
<polygon fill="none" stroke="black" points="199.16,-74 199.16,-104.8 452.84,-104.8 452.84,-74 199.16,-74"/>
<text text-anchor="start" x="206.16" y="-86.2" font-family="Arial" font-size="14.00">fiscal_business_name </text>
<text text-anchor="start" x="347.8" y="-86.2" font-family="Arial" font-size="14.00" fill="#666666">[text]</text>
<polygon fill="none" stroke="black" points="199.16,-43.2 199.16,-74 452.84,-74 452.84,-43.2 199.16,-43.2"/>
<text text-anchor="start" x="206.16" y="-55.4" font-family="Arial" font-size="14.00">fiscal_email </text>
<text text-anchor="start" x="283.19" y="-55.4" font-family="Arial" font-size="14.00" fill="#666666">[text]</text>
</g>
<!-- public.waros_wallets&#45;&gt;public.profile -->
<g id="edge1" class="edge">
<title>public.waros_wallets:profile_id&#45;&gt;public.profile:id</title>
<path fill="none" stroke="black" d="M348.43,-1482.21C101.44,-1472.65 214.15,-1108.72 359.53,-897.2 384.71,-860.57 427.65,-897.82 452.84,-861.2 499.63,-793.21 536.38,-489.8 453.84,-489.8"/>
<polygon fill="black" stroke="black" points="348.19,-1482.2 358.11,-1486.89 353.53,-1482.3 357.86,-1482.39 357.86,-1482.39 357.86,-1482.39 353.53,-1482.3 358.28,-1477.89 348.19,-1482.2"/>
<text text-anchor="start" x="7" y="-1492.4" font-family="Arial" font-size="10.00">FOREIGN KEY (profile_id) REFERENCES profile(id) ON DELETE CASCADE</text>
</g>
<!-- public.tenants -->
<g id="node3" class="node">
<title>public.tenants</title>
<polygon fill="#efefef" stroke="none" points="557.36,-520.6 557.36,-556.2 812.65,-556.2 812.65,-520.6 557.36,-520.6"/>
<polygon fill="none" stroke="black" points="557.36,-520.6 557.36,-556.2 812.65,-556.2 812.65,-520.6 557.36,-520.6"/>
<text text-anchor="start" x="572.52" y="-534" font-family="Arial Bold" font-size="18.00">public.tenants</text>
<text text-anchor="start" x="673" y="-534" font-family="Arial" font-size="14.00">    </text>
<text text-anchor="start" x="704.11" y="-534" font-family="Arial" font-size="14.00" fill="#666666">[BASE TABLE]</text>
<polygon fill="none" stroke="black" points="557.36,-489.8 557.36,-520.6 812.65,-520.6 812.65,-489.8 557.36,-489.8"/>
<text text-anchor="start" x="564.36" y="-502" font-family="Arial" font-size="14.00">id </text>
<text text-anchor="start" x="579.15" y="-502" font-family="Arial" font-size="14.00" fill="#666666">[uuid]</text>
<polygon fill="none" stroke="black" points="557.36,-459 557.36,-489.8 812.65,-489.8 812.65,-459 557.36,-459"/>
<text text-anchor="start" x="564.36" y="-471.2" font-family="Arial" font-size="14.00">name </text>
<text text-anchor="start" x="603.27" y="-471.2" font-family="Arial" font-size="14.00" fill="#666666">[text]</text>
<polygon fill="none" stroke="black" points="557.36,-428.2 557.36,-459 812.65,-459 812.65,-428.2 557.36,-428.2"/>
<text text-anchor="start" x="564.36" y="-440.4" font-family="Arial" font-size="14.00">slug </text>
<text text-anchor="start" x="593.93" y="-440.4" font-family="Arial" font-size="14.00" fill="#666666">[text]</text>
<polygon fill="none" stroke="black" points="557.36,-397.4 557.36,-428.2 812.65,-428.2 812.65,-397.4 557.36,-397.4"/>
<text text-anchor="start" x="564.36" y="-409.6" font-family="Arial" font-size="14.00">created_at </text>
<text text-anchor="start" x="634.41" y="-409.6" font-family="Arial" font-size="14.00" fill="#666666">[timestamp with time zone]</text>
<polygon fill="none" stroke="black" points="557.36,-366.6 557.36,-397.4 812.65,-397.4 812.65,-366.6 557.36,-366.6"/>
<text text-anchor="start" x="564.36" y="-378.8" font-family="Arial" font-size="14.00">email </text>
<text text-anchor="start" x="601.7" y="-378.8" font-family="Arial" font-size="14.00" fill="#666666">[varchar(255)]</text>
<polygon fill="none" stroke="black" points="557.36,-335.8 557.36,-366.6 812.65,-366.6 812.65,-335.8 557.36,-335.8"/>
<text text-anchor="start" x="564.36" y="-348" font-family="Arial" font-size="14.00">electronic_invoicing_enabled </text>
<text text-anchor="start" x="748.04" y="-348" font-family="Arial" font-size="14.00" fill="#666666">[boolean]</text>
<polygon fill="none" stroke="black" points="557.36,-305 557.36,-335.8 812.65,-335.8 812.65,-305 557.36,-305"/>
<text text-anchor="start" x="564.36" y="-317.2" font-family="Arial" font-size="14.00">permissions_enforcement_mode </text>
<text text-anchor="start" x="771.35" y="-317.2" font-family="Arial" font-size="14.00" fill="#666666">[text]</text>
</g>
<!-- public.waros_wallets&#45;&gt;public.tenants -->
<g id="edge2" class="edge">
<title>public.waros_wallets:tenant_id&#45;&gt;public.tenants:id</title>
<path fill="none" stroke="black" d="M661.67,-1451.41C891.97,-1442.81 687.36,-1137.29 650.48,-897.2 636.88,-808.65 466.77,-505.2 556.36,-505.2"/>
<polygon fill="black" stroke="black" points="661.81,-1451.41 651.73,-1447.09 656.48,-1451.51 652.15,-1451.59 652.15,-1451.59 652.15,-1451.59 656.48,-1451.51 651.9,-1456.09 661.81,-1451.41"/>
<text text-anchor="start" x="658.48" y="-1461.6" font-family="Arial" font-size="10.00">FOREIGN KEY (tenant_id) REFERENCES tenants(id) ON DELETE CASCADE</text>
</g>
</g>
</svg>
