<?xml version="1.0" encoding="UTF-8" standalone="no"?>
<!DOCTYPE svg PUBLIC "-//W3C//DTD SVG 1.1//EN"
 "http://www.w3.org/Graphics/SVG/1.1/DTD/svg11.dtd">
<!-- Generated by graphviz version 12.1.2 (20240928.0832)
 -->
<!-- Title: public.modifier_groups Pages: 1 -->
<svg width="1330pt" height="1961pt"
 viewBox="0.00 0.00 1330.17 1961.20" xmlns="http://www.w3.org/2000/svg" xmlns:xlink="http://www.w3.org/1999/xlink">
<g id="graph0" class="graph" transform="scale(1 1) rotate(0) translate(4 1957.2)">
<title>public.modifier_groups</title>
<polygon fill="white" stroke="none" points="-4,4 -4,-1957.2 1326.17,-1957.2 1326.17,4 -4,4"/>
<!-- public.modifier_groups -->
<g id="node1" class="node">
<title>public.modifier_groups</title>
<polygon fill="#efefef" stroke="none" points="520.02,-1282.2 520.02,-1317.8 827.98,-1317.8 827.98,-1282.2 520.02,-1282.2"/>
<polygon fill="none" stroke="black" points="520.02,-1282.2 520.02,-1317.8 827.98,-1317.8 827.98,-1282.2 520.02,-1282.2"/>
<text text-anchor="start" x="527.02" y="-1295.6" font-family="Arial Bold" font-size="18.00">public.modifier_groups</text>
<text text-anchor="start" x="696.49" y="-1295.6" font-family="Arial" font-size="14.00">    </text>
<text text-anchor="start" x="727.6" y="-1295.6" font-family="Arial" font-size="14.00" fill="#666666">[BASE TABLE]</text>
<polygon fill="none" stroke="black" points="520.02,-1251.4 520.02,-1282.2 827.98,-1282.2 827.98,-1251.4 520.02,-1251.4"/>
<text text-anchor="start" x="527.02" y="-1263.6" font-family="Arial" font-size="14.00">id </text>
<text text-anchor="start" x="541.8" y="-1263.6" font-family="Arial" font-size="14.00" fill="#666666">[uuid]</text>
<polygon fill="none" stroke="black" points="520.02,-1220.6 520.02,-1251.4 827.98,-1251.4 827.98,-1220.6 520.02,-1220.6"/>
<text text-anchor="start" x="527.02" y="-1232.8" font-family="Arial" font-size="14.00">product_id </text>
<text text-anchor="start" x="596.29" y="-1232.8" font-family="Arial" font-size="14.00" fill="#666666">[uuid]</text>
<polygon fill="none" stroke="black" points="520.02,-1189.8 520.02,-1220.6 827.98,-1220.6 827.98,-1189.8 520.02,-1189.8"/>
<text text-anchor="start" x="527.02" y="-1202" font-family="Arial" font-size="14.00">tenant_id </text>
<text text-anchor="start" x="588.51" y="-1202" font-family="Arial" font-size="14.00" fill="#666666">[uuid]</text>
<polygon fill="none" stroke="black" points="520.02,-1159 520.02,-1189.8 827.98,-1189.8 827.98,-1159 520.02,-1159"/>
<text text-anchor="start" x="527.02" y="-1171.2" font-family="Arial" font-size="14.00">name </text>
<text text-anchor="start" x="565.93" y="-1171.2" font-family="Arial" font-size="14.00" fill="#666666">[varchar(255)]</text>
<polygon fill="none" stroke="black" points="520.02,-1128.2 520.02,-1159 827.98,-1159 827.98,-1128.2 520.02,-1128.2"/>
<text text-anchor="start" x="527.02" y="-1140.4" font-family="Arial" font-size="14.00">min_qty </text>
<text text-anchor="start" x="579.93" y="-1140.4" font-family="Arial" font-size="14.00" fill="#666666">[integer]</text>
<polygon fill="none" stroke="black" points="520.02,-1097.4 520.02,-1128.2 827.98,-1128.2 827.98,-1097.4 520.02,-1097.4"/>
<text text-anchor="start" x="527.02" y="-1109.6" font-family="Arial" font-size="14.00">max_qty </text>
<text text-anchor="start" x="583.82" y="-1109.6" font-family="Arial" font-size="14.00" fill="#666666">[integer]</text>
<polygon fill="none" stroke="black" points="520.02,-1066.6 520.02,-1097.4 827.98,-1097.4 827.98,-1066.6 520.02,-1066.6"/>
<text text-anchor="start" x="527.02" y="-1078.8" font-family="Arial" font-size="14.00">is_required </text>
<text text-anchor="start" x="600.17" y="-1078.8" font-family="Arial" font-size="14.00" fill="#666666">[boolean]</text>
<polygon fill="none" stroke="black" points="520.02,-1035.8 520.02,-1066.6 827.98,-1066.6 827.98,-1035.8 520.02,-1035.8"/>
<text text-anchor="start" x="527.02" y="-1048" font-family="Arial" font-size="14.00">sort_order </text>
<text text-anchor="start" x="594.71" y="-1048" font-family="Arial" font-size="14.00" fill="#666666">[integer]</text>
<polygon fill="none" stroke="black" points="520.02,-1005 520.02,-1035.8 827.98,-1035.8 827.98,-1005 520.02,-1005"/>
<text text-anchor="start" x="527.02" y="-1017.2" font-family="Arial" font-size="14.00">created_at </text>
<text text-anchor="start" x="597.06" y="-1017.2" font-family="Arial" font-size="14.00" fill="#666666">[timestamp with time zone]</text>
<polygon fill="none" stroke="black" points="520.02,-974.2 520.02,-1005 827.98,-1005 827.98,-974.2 520.02,-974.2"/>
<text text-anchor="start" x="527.02" y="-986.4" font-family="Arial" font-size="14.00">updated_at </text>
<text text-anchor="start" x="600.98" y="-986.4" font-family="Arial" font-size="14.00" fill="#666666">[timestamp with time zone]</text>
<polygon fill="none" stroke="black" stroke-width="3" points="518.52,-972.7 518.52,-1319.3 829.48,-1319.3 829.48,-972.7 518.52,-972.7"/>
</g>
<!-- public.product -->
<g id="node5" class="node">
<title>public.product</title>
<polygon fill="#efefef" stroke="none" points="368.16,-813.2 368.16,-848.8 621.84,-848.8 621.84,-813.2 368.16,-813.2"/>
<polygon fill="none" stroke="black" points="368.16,-813.2 368.16,-848.8 621.84,-848.8 621.84,-813.2 368.16,-813.2"/>
<text text-anchor="start" x="380.51" y="-826.6" font-family="Arial Bold" font-size="18.00">public.product</text>
<text text-anchor="start" x="484.99" y="-826.6" font-family="Arial" font-size="14.00">    </text>
<text text-anchor="start" x="516.11" y="-826.6" font-family="Arial" font-size="14.00" fill="#666666">[BASE TABLE]</text>
<polygon fill="none" stroke="black" points="368.16,-782.4 368.16,-813.2 621.84,-813.2 621.84,-782.4 368.16,-782.4"/>
<text text-anchor="start" x="375.16" y="-794.6" font-family="Arial" font-size="14.00">id </text>
<text text-anchor="start" x="389.94" y="-794.6" font-family="Arial" font-size="14.00" fill="#666666">[uuid]</text>
<polygon fill="none" stroke="black" points="368.16,-751.6 368.16,-782.4 621.84,-782.4 621.84,-751.6 368.16,-751.6"/>
<text text-anchor="start" x="375.16" y="-763.8" font-family="Arial" font-size="14.00">drop_id </text>
<text text-anchor="start" x="425.75" y="-763.8" font-family="Arial" font-size="14.00" fill="#666666">[uuid]</text>
<polygon fill="none" stroke="black" points="368.16,-720.8 368.16,-751.6 621.84,-751.6 621.84,-720.8 368.16,-720.8"/>
<text text-anchor="start" x="375.16" y="-733" font-family="Arial" font-size="14.00">category_id </text>
<text text-anchor="start" x="451.42" y="-733" font-family="Arial" font-size="14.00" fill="#666666">[uuid]</text>
<polygon fill="none" stroke="black" points="368.16,-690 368.16,-720.8 621.84,-720.8 621.84,-690 368.16,-690"/>
<text text-anchor="start" x="375.16" y="-702.2" font-family="Arial" font-size="14.00">name </text>
<text text-anchor="start" x="414.07" y="-702.2" font-family="Arial" font-size="14.00" fill="#666666">[varchar(100)]</text>
<polygon fill="none" stroke="black" points="368.16,-659.2 368.16,-690 621.84,-690 621.84,-659.2 368.16,-659.2"/>
<text text-anchor="start" x="375.16" y="-671.4" font-family="Arial" font-size="14.00">description </text>
<text text-anchor="start" x="446.75" y="-671.4" font-family="Arial" font-size="14.00" fill="#666666">[text]</text>
<polygon fill="none" stroke="black" points="368.16,-628.4 368.16,-659.2 621.84,-659.2 621.84,-628.4 368.16,-628.4"/>
<text text-anchor="start" x="375.16" y="-640.6" font-family="Arial" font-size="14.00">price </text>
<text text-anchor="start" x="409.39" y="-640.6" font-family="Arial" font-size="14.00" fill="#666666">[numeric(10,2)]</text>
<polygon fill="none" stroke="black" points="368.16,-597.6 368.16,-628.4 621.84,-628.4 621.84,-597.6 368.16,-597.6"/>
<text text-anchor="start" x="375.16" y="-609.8" font-family="Arial" font-size="14.00">created_at </text>
<text text-anchor="start" x="445.2" y="-609.8" font-family="Arial" font-size="14.00" fill="#666666">[timestamp with time zone]</text>
<polygon fill="none" stroke="black" points="368.16,-566.8 368.16,-597.6 621.84,-597.6 621.84,-566.8 368.16,-566.8"/>
<text text-anchor="start" x="375.16" y="-579" font-family="Arial" font-size="14.00">updated_at </text>
<text text-anchor="start" x="449.11" y="-579" font-family="Arial" font-size="14.00" fill="#666666">[timestamp with time zone]</text>
<polygon fill="none" stroke="black" points="368.16,-536 368.16,-566.8 621.84,-566.8 621.84,-536 368.16,-536"/>
<text text-anchor="start" x="375.16" y="-548.2" font-family="Arial" font-size="14.00">sequential_id </text>
<text text-anchor="start" x="461.56" y="-548.2" font-family="Arial" font-size="14.00" fill="#666666">[bigint]</text>
<polygon fill="none" stroke="black" points="368.16,-505.2 368.16,-536 621.84,-536 621.84,-505.2 368.16,-505.2"/>
<text text-anchor="start" x="375.16" y="-517.4" font-family="Arial" font-size="14.00">product_base_type_id </text>
<text text-anchor="start" x="516.82" y="-517.4" font-family="Arial" font-size="14.00" fill="#666666">[uuid]</text>
<polygon fill="none" stroke="black" points="368.16,-474.4 368.16,-505.2 621.84,-505.2 621.84,-474.4 368.16,-474.4"/>
<text text-anchor="start" x="375.16" y="-486.6" font-family="Arial" font-size="14.00">controla_stock </text>
<text text-anchor="start" x="469.31" y="-486.6" font-family="Arial" font-size="14.00" fill="#666666">[boolean]</text>
<polygon fill="none" stroke="black" points="368.16,-443.6 368.16,-474.4 621.84,-474.4 621.84,-443.6 368.16,-443.6"/>
<text text-anchor="start" x="375.16" y="-455.8" font-family="Arial" font-size="14.00">is_available </text>
<text text-anchor="start" x="452.2" y="-455.8" font-family="Arial" font-size="14.00" fill="#666666">[boolean]</text>
<polygon fill="none" stroke="black" points="368.16,-412.8 368.16,-443.6 621.84,-443.6 621.84,-412.8 368.16,-412.8"/>
<text text-anchor="start" x="375.16" y="-425" font-family="Arial" font-size="14.00">is_combo </text>
<text text-anchor="start" x="438.96" y="-425" font-family="Arial" font-size="14.00" fill="#666666">[boolean]</text>
<polygon fill="none" stroke="black" points="368.16,-382 368.16,-412.8 621.84,-412.8 621.84,-382 368.16,-382"/>
<text text-anchor="start" x="375.16" y="-394.2" font-family="Arial" font-size="14.00">costo_calculado </text>
<text text-anchor="start" x="479.45" y="-394.2" font-family="Arial" font-size="14.00" fill="#666666">[numeric(10,2)]</text>
<polygon fill="none" stroke="black" points="368.16,-351.2 368.16,-382 621.84,-382 621.84,-351.2 368.16,-351.2"/>
<text text-anchor="start" x="375.16" y="-363.4" font-family="Arial" font-size="14.00">precio_sugerido </text>
<text text-anchor="start" x="478.67" y="-363.4" font-family="Arial" font-size="14.00" fill="#666666">[numeric(10,2)]</text>
<polygon fill="none" stroke="black" points="368.16,-320.4 368.16,-351.2 621.84,-351.2 621.84,-320.4 368.16,-320.4"/>
<text text-anchor="start" x="375.16" y="-332.6" font-family="Arial" font-size="14.00">margen_objetivo </text>
<text text-anchor="start" x="482.56" y="-332.6" font-family="Arial" font-size="14.00" fill="#666666">[numeric(5,2)]</text>
<polygon fill="none" stroke="black" points="368.16,-289.6 368.16,-320.4 621.84,-320.4 621.84,-289.6 368.16,-289.6"/>
<text text-anchor="start" x="375.16" y="-301.8" font-family="Arial" font-size="14.00">allow_modifiers </text>
<text text-anchor="start" x="475.53" y="-301.8" font-family="Arial" font-size="14.00" fill="#666666">[boolean]</text>
<polygon fill="none" stroke="black" points="368.16,-258.8 368.16,-289.6 621.84,-289.6 621.84,-258.8 368.16,-258.8"/>
<text text-anchor="start" x="375.16" y="-271" font-family="Arial" font-size="14.00">preparation_time </text>
<text text-anchor="start" x="484.11" y="-271" font-family="Arial" font-size="14.00" fill="#666666">[integer]</text>
<polygon fill="none" stroke="black" points="368.16,-228 368.16,-258.8 621.84,-258.8 621.84,-228 368.16,-228"/>
<text text-anchor="start" x="375.16" y="-240.2" font-family="Arial" font-size="14.00">tenant_id </text>
<text text-anchor="start" x="436.65" y="-240.2" font-family="Arial" font-size="14.00" fill="#666666">[uuid]</text>
<polygon fill="none" stroke="black" points="368.16,-197.2 368.16,-228 621.84,-228 621.84,-197.2 368.16,-197.2"/>
<text text-anchor="start" x="375.16" y="-209.4" font-family="Arial" font-size="14.00">is_resale </text>
<text text-anchor="start" x="435.07" y="-209.4" font-family="Arial" font-size="14.00" fill="#666666">[boolean]</text>
<polygon fill="none" stroke="black" points="368.16,-166.4 368.16,-197.2 621.84,-197.2 621.84,-166.4 368.16,-166.4"/>
<text text-anchor="start" x="375.16" y="-178.6" font-family="Arial" font-size="14.00">is_available_online </text>
<text text-anchor="start" x="497.36" y="-178.6" font-family="Arial" font-size="14.00" fill="#666666">[boolean]</text>
<polygon fill="none" stroke="black" points="368.16,-135.6 368.16,-166.4 621.84,-166.4 621.84,-135.6 368.16,-135.6"/>
<text text-anchor="start" x="375.16" y="-147.8" font-family="Arial" font-size="14.00">tax_category </text>
<text text-anchor="start" x="459.2" y="-147.8" font-family="Arial" font-size="14.00" fill="#666666">[varchar(20)]</text>
<polygon fill="none" stroke="black" points="368.16,-104.8 368.16,-135.6 621.84,-135.6 621.84,-104.8 368.16,-104.8"/>
<text text-anchor="start" x="375.16" y="-117" font-family="Arial" font-size="14.00">station_id </text>
<text text-anchor="start" x="438.98" y="-117" font-family="Arial" font-size="14.00" fill="#666666">[uuid]</text>
<polygon fill="none" stroke="black" points="368.16,-74 368.16,-104.8 621.84,-104.8 621.84,-74 368.16,-74"/>
<text text-anchor="start" x="375.16" y="-86.2" font-family="Arial" font-size="14.00">kitchen_name </text>
<text text-anchor="start" x="466.21" y="-86.2" font-family="Arial" font-size="14.00" fill="#666666">[varchar(100)]</text>
<polygon fill="none" stroke="black" points="368.16,-43.2 368.16,-74 621.84,-74 621.84,-43.2 368.16,-43.2"/>
<text text-anchor="start" x="375.16" y="-55.4" font-family="Arial" font-size="14.00">image_url </text>
<text text-anchor="start" x="440.52" y="-55.4" font-family="Arial" font-size="14.00" fill="#666666">[varchar(500)]</text>
</g>
<!-- public.modifier_groups&#45;&gt;public.product -->
<g id="edge4" class="edge">
<title>public.modifier_groups:product_id&#45;&gt;public.product:id</title>
<path fill="none" stroke="black" d="M508.59,-1235.6C385.24,-1225.7 442.89,-1036.7 520.02,-928 547.79,-888.85 593.92,-931.04 621.84,-892 646.19,-857.94 664.71,-797.8 622.84,-797.8"/>
<polygon fill="black" stroke="black" points="508.69,-1235.6 518.51,-1240.48 514.02,-1235.81 518.35,-1235.97 518.35,-1235.97 518.35,-1235.97 514.02,-1235.81 518.86,-1231.49 508.69,-1235.6"/>
<text text-anchor="start" x="155.25" y="-1246" font-family="Arial" font-size="10.00">FOREIGN KEY (product_id) REFERENCES product(id) ON DELETE CASCADE</text>
</g>
<!-- public.tenants -->
<g id="node6" class="node">
<title>public.tenants</title>
<polygon fill="#efefef" stroke="none" points="726.35,-536 726.35,-571.6 981.64,-571.6 981.64,-536 726.35,-536"/>
<polygon fill="none" stroke="black" points="726.35,-536 726.35,-571.6 981.64,-571.6 981.64,-536 726.35,-536"/>
<text text-anchor="start" x="741.51" y="-549.4" font-family="Arial Bold" font-size="18.00">public.tenants</text>
<text text-anchor="start" x="841.99" y="-549.4" font-family="Arial" font-size="14.00">    </text>
<text text-anchor="start" x="873.11" y="-549.4" font-family="Arial" font-size="14.00" fill="#666666">[BASE TABLE]</text>
<polygon fill="none" stroke="black" points="726.35,-505.2 726.35,-536 981.64,-536 981.64,-505.2 726.35,-505.2"/>
<text text-anchor="start" x="733.35" y="-517.4" font-family="Arial" font-size="14.00">id </text>
<text text-anchor="start" x="748.14" y="-517.4" font-family="Arial" font-size="14.00" fill="#666666">[uuid]</text>
<polygon fill="none" stroke="black" points="726.35,-474.4 726.35,-505.2 981.64,-505.2 981.64,-474.4 726.35,-474.4"/>
<text text-anchor="start" x="733.35" y="-486.6" font-family="Arial" font-size="14.00">name </text>
<text text-anchor="start" x="772.26" y="-486.6" font-family="Arial" font-size="14.00" fill="#666666">[text]</text>
<polygon fill="none" stroke="black" points="726.35,-443.6 726.35,-474.4 981.64,-474.4 981.64,-443.6 726.35,-443.6"/>
<text text-anchor="start" x="733.35" y="-455.8" font-family="Arial" font-size="14.00">slug </text>
<text text-anchor="start" x="762.93" y="-455.8" font-family="Arial" font-size="14.00" fill="#666666">[text]</text>
<polygon fill="none" stroke="black" points="726.35,-412.8 726.35,-443.6 981.64,-443.6 981.64,-412.8 726.35,-412.8"/>
<text text-anchor="start" x="733.35" y="-425" font-family="Arial" font-size="14.00">created_at </text>
<text text-anchor="start" x="803.4" y="-425" font-family="Arial" font-size="14.00" fill="#666666">[timestamp with time zone]</text>
<polygon fill="none" stroke="black" points="726.35,-382 726.35,-412.8 981.64,-412.8 981.64,-382 726.35,-382"/>
<text text-anchor="start" x="733.35" y="-394.2" font-family="Arial" font-size="14.00">email </text>
<text text-anchor="start" x="770.7" y="-394.2" font-family="Arial" font-size="14.00" fill="#666666">[varchar(255)]</text>
<polygon fill="none" stroke="black" points="726.35,-351.2 726.35,-382 981.64,-382 981.64,-351.2 726.35,-351.2"/>
<text text-anchor="start" x="733.35" y="-363.4" font-family="Arial" font-size="14.00">electronic_invoicing_enabled </text>
<text text-anchor="start" x="917.03" y="-363.4" font-family="Arial" font-size="14.00" fill="#666666">[boolean]</text>
<polygon fill="none" stroke="black" points="726.35,-320.4 726.35,-351.2 981.64,-351.2 981.64,-320.4 726.35,-320.4"/>
<text text-anchor="start" x="733.35" y="-332.6" font-family="Arial" font-size="14.00">permissions_enforcement_mode </text>
<text text-anchor="start" x="940.35" y="-332.6" font-family="Arial" font-size="14.00" fill="#666666">[text]</text>
</g>
<!-- public.modifier_groups&#45;&gt;public.tenants -->
<g id="edge5" class="edge">
<title>public.modifier_groups:tenant_id&#45;&gt;public.tenants:id</title>
<path fill="none" stroke="black" d="M839.22,-1204.37C972.6,-1181.42 738.83,-691.05 726.35,-614.8 719.59,-573.48 683.48,-520.6 725.35,-520.6"/>
<polygon fill="black" stroke="black" points="839.28,-1204.36 828.95,-1200.69 833.96,-1204.8 829.64,-1205.15 829.64,-1205.15 829.64,-1205.15 833.96,-1204.8 829.67,-1209.66 839.28,-1204.36"/>
<text text-anchor="start" x="835.98" y="-1215.2" font-family="Arial" font-size="10.00">FOREIGN KEY (tenant_id) REFERENCES tenants(id)</text>
</g>
<!-- public.modifier_change_history -->
<g id="node2" class="node">
<title>public.modifier_change_history</title>
<polygon fill="#efefef" stroke="none" points="72.53,-1874.4 72.53,-1910 441.46,-1910 441.46,-1874.4 72.53,-1874.4"/>
<polygon fill="none" stroke="black" points="72.53,-1874.4 72.53,-1910 441.46,-1910 441.46,-1874.4 72.53,-1874.4"/>
<text text-anchor="start" x="79.53" y="-1887.8" font-family="Arial Bold" font-size="18.00">public.modifier_change_history</text>
<text text-anchor="start" x="309.97" y="-1887.8" font-family="Arial" font-size="14.00">    </text>
<text text-anchor="start" x="341.09" y="-1887.8" font-family="Arial" font-size="14.00" fill="#666666">[BASE TABLE]</text>
<polygon fill="none" stroke="black" points="72.53,-1843.6 72.53,-1874.4 441.46,-1874.4 441.46,-1843.6 72.53,-1843.6"/>
<text text-anchor="start" x="79.53" y="-1855.8" font-family="Arial" font-size="14.00">id </text>
<text text-anchor="start" x="94.32" y="-1855.8" font-family="Arial" font-size="14.00" fill="#666666">[uuid]</text>
<polygon fill="none" stroke="black" points="72.53,-1812.8 72.53,-1843.6 441.46,-1843.6 441.46,-1812.8 72.53,-1812.8"/>
<text text-anchor="start" x="79.53" y="-1825" font-family="Arial" font-size="14.00">tenant_id </text>
<text text-anchor="start" x="141.03" y="-1825" font-family="Arial" font-size="14.00" fill="#666666">[uuid]</text>
<polygon fill="none" stroke="black" points="72.53,-1782 72.53,-1812.8 441.46,-1812.8 441.46,-1782 72.53,-1782"/>
<text text-anchor="start" x="79.53" y="-1794.2" font-family="Arial" font-size="14.00">entity_type </text>
<text text-anchor="start" x="151.13" y="-1794.2" font-family="Arial" font-size="14.00" fill="#666666">[varchar(20)]</text>
<polygon fill="none" stroke="black" points="72.53,-1751.2 72.53,-1782 441.46,-1782 441.46,-1751.2 72.53,-1751.2"/>
<text text-anchor="start" x="79.53" y="-1763.4" font-family="Arial" font-size="14.00">modifier_group_id </text>
<text text-anchor="start" x="195.49" y="-1763.4" font-family="Arial" font-size="14.00" fill="#666666">[uuid]</text>
<polygon fill="none" stroke="black" points="72.53,-1720.4 72.53,-1751.2 441.46,-1751.2 441.46,-1720.4 72.53,-1720.4"/>
<text text-anchor="start" x="79.53" y="-1732.6" font-family="Arial" font-size="14.00">modifier_id </text>
<text text-anchor="start" x="151.9" y="-1732.6" font-family="Arial" font-size="14.00" fill="#666666">[uuid]</text>
<polygon fill="none" stroke="black" points="72.53,-1689.6 72.53,-1720.4 441.46,-1720.4 441.46,-1689.6 72.53,-1689.6"/>
<text text-anchor="start" x="79.53" y="-1701.8" font-family="Arial" font-size="14.00">entity_name </text>
<text text-anchor="start" x="159.69" y="-1701.8" font-family="Arial" font-size="14.00" fill="#666666">[varchar(255)]</text>
<polygon fill="none" stroke="black" points="72.53,-1658.8 72.53,-1689.6 441.46,-1689.6 441.46,-1658.8 72.53,-1658.8"/>
<text text-anchor="start" x="79.53" y="-1671" font-family="Arial" font-size="14.00">change_type </text>
<text text-anchor="start" x="163.6" y="-1671" font-family="Arial" font-size="14.00" fill="#666666">[varchar(20)]</text>
<polygon fill="none" stroke="black" points="72.53,-1628 72.53,-1658.8 441.46,-1658.8 441.46,-1628 72.53,-1628"/>
<text text-anchor="start" x="79.53" y="-1640.2" font-family="Arial" font-size="14.00">field_changed </text>
<text text-anchor="start" x="170.61" y="-1640.2" font-family="Arial" font-size="14.00" fill="#666666">[varchar(100)]</text>
<polygon fill="none" stroke="black" points="72.53,-1597.2 72.53,-1628 441.46,-1628 441.46,-1597.2 72.53,-1597.2"/>
<text text-anchor="start" x="79.53" y="-1609.4" font-family="Arial" font-size="14.00">old_value </text>
<text text-anchor="start" x="143.36" y="-1609.4" font-family="Arial" font-size="14.00" fill="#666666">[jsonb]</text>
<polygon fill="none" stroke="black" points="72.53,-1566.4 72.53,-1597.2 441.46,-1597.2 441.46,-1566.4 72.53,-1566.4"/>
<text text-anchor="start" x="79.53" y="-1578.6" font-family="Arial" font-size="14.00">new_value </text>
<text text-anchor="start" x="150.36" y="-1578.6" font-family="Arial" font-size="14.00" fill="#666666">[jsonb]</text>
<polygon fill="none" stroke="black" points="72.53,-1535.6 72.53,-1566.4 441.46,-1566.4 441.46,-1535.6 72.53,-1535.6"/>
<text text-anchor="start" x="79.53" y="-1547.8" font-family="Arial" font-size="14.00">modifier_snapshot </text>
<text text-anchor="start" x="197.82" y="-1547.8" font-family="Arial" font-size="14.00" fill="#666666">[jsonb]</text>
<polygon fill="none" stroke="black" points="72.53,-1504.8 72.53,-1535.6 441.46,-1535.6 441.46,-1504.8 72.53,-1504.8"/>
<text text-anchor="start" x="79.53" y="-1517" font-family="Arial" font-size="14.00">changed_by </text>
<text text-anchor="start" x="159.71" y="-1517" font-family="Arial" font-size="14.00" fill="#666666">[uuid]</text>
<polygon fill="none" stroke="black" points="72.53,-1474 72.53,-1504.8 441.46,-1504.8 441.46,-1474 72.53,-1474"/>
<text text-anchor="start" x="79.53" y="-1486.2" font-family="Arial" font-size="14.00">reason </text>
<text text-anchor="start" x="126.23" y="-1486.2" font-family="Arial" font-size="14.00" fill="#666666">[text]</text>
<polygon fill="none" stroke="black" points="72.53,-1443.2 72.53,-1474 441.46,-1474 441.46,-1443.2 72.53,-1443.2"/>
<text text-anchor="start" x="79.53" y="-1455.4" font-family="Arial" font-size="14.00">created_at </text>
<text text-anchor="start" x="149.58" y="-1455.4" font-family="Arial" font-size="14.00" fill="#666666">[timestamp with time zone]</text>
</g>
<!-- public.modifier_change_history&#45;&gt;public.modifier_groups -->
<g id="edge1" class="edge">
<title>public.modifier_change_history:modifier_group_id&#45;&gt;public.modifier_groups:id</title>
<path fill="none" stroke="black" d="M452.53,-1765.08C545.54,-1734.91 410.28,-1266.8 519.02,-1266.8"/>
<polygon fill="black" stroke="black" points="452.68,-1765.05 442.12,-1762.1 447.41,-1765.85 443.12,-1766.5 443.12,-1766.5 443.12,-1766.5 447.41,-1765.85 443.47,-1771 452.68,-1765.05"/>
<text text-anchor="start" x="7" y="-1776.6" font-family="Arial" font-size="10.00">FOREIGN KEY (modifier_group_id) REFERENCES modifier_groups(id) ON DELETE CASCADE</text>
</g>
<!-- public.modifiers -->
<g id="node3" class="node">
<title>public.modifiers</title>
<polygon fill="#efefef" stroke="none" points="545.51,-1859 545.51,-1894.6 802.48,-1894.6 802.48,-1859 545.51,-1859"/>
<polygon fill="none" stroke="black" points="545.51,-1859 545.51,-1894.6 802.48,-1894.6 802.48,-1859 545.51,-1859"/>
<text text-anchor="start" x="552.51" y="-1872.4" font-family="Arial Bold" font-size="18.00">public.modifiers</text>
<text text-anchor="start" x="670.99" y="-1872.4" font-family="Arial" font-size="14.00">    </text>
<text text-anchor="start" x="702.11" y="-1872.4" font-family="Arial" font-size="14.00" fill="#666666">[BASE TABLE]</text>
<polygon fill="none" stroke="black" points="545.51,-1828.2 545.51,-1859 802.48,-1859 802.48,-1828.2 545.51,-1828.2"/>
<text text-anchor="start" x="552.51" y="-1840.4" font-family="Arial" font-size="14.00">id </text>
<text text-anchor="start" x="567.3" y="-1840.4" font-family="Arial" font-size="14.00" fill="#666666">[uuid]</text>
<polygon fill="none" stroke="black" points="545.51,-1797.4 545.51,-1828.2 802.48,-1828.2 802.48,-1797.4 545.51,-1797.4"/>
<text text-anchor="start" x="552.51" y="-1809.6" font-family="Arial" font-size="14.00">modifier_group_id </text>
<text text-anchor="start" x="668.47" y="-1809.6" font-family="Arial" font-size="14.00" fill="#666666">[uuid]</text>
<polygon fill="none" stroke="black" points="545.51,-1766.6 545.51,-1797.4 802.48,-1797.4 802.48,-1766.6 545.51,-1766.6"/>
<text text-anchor="start" x="552.51" y="-1778.8" font-family="Arial" font-size="14.00">name </text>
<text text-anchor="start" x="591.42" y="-1778.8" font-family="Arial" font-size="14.00" fill="#666666">[varchar(255)]</text>
<polygon fill="none" stroke="black" points="545.51,-1735.8 545.51,-1766.6 802.48,-1766.6 802.48,-1735.8 545.51,-1735.8"/>
<text text-anchor="start" x="552.51" y="-1748" font-family="Arial" font-size="14.00">price </text>
<text text-anchor="start" x="586.75" y="-1748" font-family="Arial" font-size="14.00" fill="#666666">[numeric(10,2)]</text>
<polygon fill="none" stroke="black" points="545.51,-1705 545.51,-1735.8 802.48,-1735.8 802.48,-1705 545.51,-1705"/>
<text text-anchor="start" x="552.51" y="-1717.2" font-family="Arial" font-size="14.00">max_limit </text>
<text text-anchor="start" x="615.52" y="-1717.2" font-family="Arial" font-size="14.00" fill="#666666">[integer]</text>
<polygon fill="none" stroke="black" points="545.51,-1674.2 545.51,-1705 802.48,-1705 802.48,-1674.2 545.51,-1674.2"/>
<text text-anchor="start" x="552.51" y="-1686.4" font-family="Arial" font-size="14.00">is_default </text>
<text text-anchor="start" x="616.33" y="-1686.4" font-family="Arial" font-size="14.00" fill="#666666">[boolean]</text>
<polygon fill="none" stroke="black" points="545.51,-1643.4 545.51,-1674.2 802.48,-1674.2 802.48,-1643.4 545.51,-1643.4"/>
<text text-anchor="start" x="552.51" y="-1655.6" font-family="Arial" font-size="14.00">is_available </text>
<text text-anchor="start" x="629.56" y="-1655.6" font-family="Arial" font-size="14.00" fill="#666666">[boolean]</text>
<polygon fill="none" stroke="black" points="545.51,-1612.6 545.51,-1643.4 802.48,-1643.4 802.48,-1612.6 545.51,-1612.6"/>
<text text-anchor="start" x="552.51" y="-1624.8" font-family="Arial" font-size="14.00">sort_order </text>
<text text-anchor="start" x="620.21" y="-1624.8" font-family="Arial" font-size="14.00" fill="#666666">[integer]</text>
<polygon fill="none" stroke="black" points="545.51,-1581.8 545.51,-1612.6 802.48,-1612.6 802.48,-1581.8 545.51,-1581.8"/>
<text text-anchor="start" x="552.51" y="-1594" font-family="Arial" font-size="14.00">created_at </text>
<text text-anchor="start" x="622.56" y="-1594" font-family="Arial" font-size="14.00" fill="#666666">[timestamp with time zone]</text>
<polygon fill="none" stroke="black" points="545.51,-1551 545.51,-1581.8 802.48,-1581.8 802.48,-1551 545.51,-1551"/>
<text text-anchor="start" x="552.51" y="-1563.2" font-family="Arial" font-size="14.00">updated_at </text>
<text text-anchor="start" x="626.47" y="-1563.2" font-family="Arial" font-size="14.00" fill="#666666">[timestamp with time zone]</text>
<polygon fill="none" stroke="black" points="545.51,-1520.2 545.51,-1551 802.48,-1551 802.48,-1520.2 545.51,-1520.2"/>
<text text-anchor="start" x="552.51" y="-1532.4" font-family="Arial" font-size="14.00">ingredient_id </text>
<text text-anchor="start" x="636.58" y="-1532.4" font-family="Arial" font-size="14.00" fill="#666666">[uuid]</text>
<polygon fill="none" stroke="black" points="545.51,-1489.4 545.51,-1520.2 802.48,-1520.2 802.48,-1489.4 545.51,-1489.4"/>
<text text-anchor="start" x="552.51" y="-1501.6" font-family="Arial" font-size="14.00">ingredient_quantity </text>
<text text-anchor="start" x="674.71" y="-1501.6" font-family="Arial" font-size="14.00" fill="#666666">[numeric]</text>
<polygon fill="none" stroke="black" points="545.51,-1458.6 545.51,-1489.4 802.48,-1489.4 802.48,-1458.6 545.51,-1458.6"/>
<text text-anchor="start" x="552.51" y="-1470.8" font-family="Arial" font-size="14.00">ingredient_unit </text>
<text text-anchor="start" x="648.25" y="-1470.8" font-family="Arial" font-size="14.00" fill="#666666">[varchar(20)]</text>
</g>
<!-- public.modifiers&#45;&gt;public.modifier_groups -->
<g id="edge2" class="edge">
<title>public.modifiers:modifier_group_id&#45;&gt;public.modifier_groups:id</title>
<path fill="none" stroke="black" d="M809.97,-1804.66C837.24,-1736.74 857.15,-1266.8 828.98,-1266.8"/>
<polygon fill="black" stroke="black" points="809.92,-1804.72 800.17,-1809.73 806.6,-1808.89 803.9,-1812.28 803.9,-1812.28 803.9,-1812.28 806.6,-1808.89 807.21,-1815.34 809.92,-1804.72"/>
<text text-anchor="start" x="810.48" y="-1822.8" font-family="Arial" font-size="10.00">FOREIGN KEY (modifier_group_id) REFERENCES modifier_groups(id) ON DELETE CASCADE</text>
</g>
<!-- public.product_modifier_groups -->
<g id="node4" class="node">
<title>public.product_modifier_groups</title>
<polygon fill="#efefef" stroke="none" points="907.02,-1735.8 907.02,-1771.4 1278.97,-1771.4 1278.97,-1735.8 907.02,-1735.8"/>
<polygon fill="none" stroke="black" points="907.02,-1735.8 907.02,-1771.4 1278.97,-1771.4 1278.97,-1735.8 907.02,-1735.8"/>
<text text-anchor="start" x="914.02" y="-1749.2" font-family="Arial Bold" font-size="18.00">public.product_modifier_groups</text>
<text text-anchor="start" x="1147.48" y="-1749.2" font-family="Arial" font-size="14.00">    </text>
<text text-anchor="start" x="1178.6" y="-1749.2" font-family="Arial" font-size="14.00" fill="#666666">[BASE TABLE]</text>
<polygon fill="none" stroke="black" points="907.02,-1705 907.02,-1735.8 1278.97,-1735.8 1278.97,-1705 907.02,-1705"/>
<text text-anchor="start" x="914.02" y="-1717.2" font-family="Arial" font-size="14.00">id </text>
<text text-anchor="start" x="928.81" y="-1717.2" font-family="Arial" font-size="14.00" fill="#666666">[uuid]</text>
<polygon fill="none" stroke="black" points="907.02,-1674.2 907.02,-1705 1278.97,-1705 1278.97,-1674.2 907.02,-1674.2"/>
<text text-anchor="start" x="914.02" y="-1686.4" font-family="Arial" font-size="14.00">product_id </text>
<text text-anchor="start" x="983.29" y="-1686.4" font-family="Arial" font-size="14.00" fill="#666666">[uuid]</text>
<polygon fill="none" stroke="black" points="907.02,-1643.4 907.02,-1674.2 1278.97,-1674.2 1278.97,-1643.4 907.02,-1643.4"/>
<text text-anchor="start" x="914.02" y="-1655.6" font-family="Arial" font-size="14.00">modifier_group_id </text>
<text text-anchor="start" x="1029.98" y="-1655.6" font-family="Arial" font-size="14.00" fill="#666666">[uuid]</text>
<polygon fill="none" stroke="black" points="907.02,-1612.6 907.02,-1643.4 1278.97,-1643.4 1278.97,-1612.6 907.02,-1612.6"/>
<text text-anchor="start" x="914.02" y="-1624.8" font-family="Arial" font-size="14.00">tenant_id </text>
<text text-anchor="start" x="975.52" y="-1624.8" font-family="Arial" font-size="14.00" fill="#666666">[uuid]</text>
<polygon fill="none" stroke="black" points="907.02,-1581.8 907.02,-1612.6 1278.97,-1612.6 1278.97,-1581.8 907.02,-1581.8"/>
<text text-anchor="start" x="914.02" y="-1594" font-family="Arial" font-size="14.00">created_at </text>
<text text-anchor="start" x="984.07" y="-1594" font-family="Arial" font-size="14.00" fill="#666666">[timestamp with time zone]</text>
</g>
<!-- public.product_modifier_groups&#45;&gt;public.modifier_groups -->
<g id="edge3" class="edge">
<title>public.product_modifier_groups:modifier_group_id&#45;&gt;public.modifier_groups:id</title>
<path fill="none" stroke="black" d="M896.03,-1656.88C825.17,-1627.3 914.11,-1266.8 828.98,-1266.8"/>
<polygon fill="black" stroke="black" points="895.88,-1656.85 904.85,-1663.16 901.12,-1657.85 905.37,-1658.67 905.37,-1658.67 905.37,-1658.67 901.12,-1657.85 906.55,-1654.32 895.88,-1656.85"/>
<text text-anchor="start" x="470.56" y="-1668.8" font-family="Arial" font-size="10.00">FOREIGN KEY (modifier_group_id) REFERENCES modifier_groups(id) ON DELETE CASCADE</text>
</g>
</g>
</svg>
