<?xml version="1.0" encoding="UTF-8" standalone="no"?>
<!DOCTYPE svg PUBLIC "-//W3C//DTD SVG 1.1//EN"
 "http://www.w3.org/Graphics/SVG/1.1/DTD/svg11.dtd">
<!-- Generated by graphviz version 12.1.2 (20240928.0832)
 -->
<!-- Title: public.legal_info Pages: 1 -->
<svg width="705pt" height="1592pt"
 viewBox="0.00 0.00 705.01 1591.60" xmlns="http://www.w3.org/2000/svg" xmlns:xlink="http://www.w3.org/1999/xlink">
<g id="graph0" class="graph" transform="scale(1 1) rotate(0) translate(4 1587.6)">
<title>public.legal_info</title>
<polygon fill="white" stroke="none" points="-4,4 -4,-1587.6 701.01,-1587.6 701.01,4 -4,4"/>
<!-- public.legal_info -->
<g id="node1" class="node">
<title>public.legal_info</title>
<polygon fill="#efefef" stroke="none" points="46.2,-789.4 46.2,-825 307.16,-825 307.16,-789.4 46.2,-789.4"/>
<polygon fill="none" stroke="black" points="46.2,-789.4 46.2,-825 307.16,-825 307.16,-789.4 46.2,-789.4"/>
<text text-anchor="start" x="53.2" y="-802.8" font-family="Arial Bold" font-size="18.00">public.legal_info</text>
<text text-anchor="start" x="175.67" y="-802.8" font-family="Arial" font-size="14.00">    </text>
<text text-anchor="start" x="206.78" y="-802.8" font-family="Arial" font-size="14.00" fill="#666666">[BASE TABLE]</text>
<polygon fill="none" stroke="black" points="46.2,-758.6 46.2,-789.4 307.16,-789.4 307.16,-758.6 46.2,-758.6"/>
<text text-anchor="start" x="53.2" y="-770.8" font-family="Arial" font-size="14.00">id </text>
<text text-anchor="start" x="67.99" y="-770.8" font-family="Arial" font-size="14.00" fill="#666666">[integer]</text>
<polygon fill="none" stroke="black" points="46.2,-727.8 46.2,-758.6 307.16,-758.6 307.16,-727.8 46.2,-727.8"/>
<text text-anchor="start" x="53.2" y="-740" font-family="Arial" font-size="14.00">nit </text>
<text text-anchor="start" x="71.88" y="-740" font-family="Arial" font-size="14.00" fill="#666666">[varchar(20)]</text>
<polygon fill="none" stroke="black" points="46.2,-697 46.2,-727.8 307.16,-727.8 307.16,-697 46.2,-697"/>
<text text-anchor="start" x="53.2" y="-709.2" font-family="Arial" font-size="14.00">legal_name </text>
<text text-anchor="start" x="129.48" y="-709.2" font-family="Arial" font-size="14.00" fill="#666666">[varchar(150)]</text>
<polygon fill="none" stroke="black" points="46.2,-666.2 46.2,-697 307.16,-697 307.16,-666.2 46.2,-666.2"/>
<text text-anchor="start" x="53.2" y="-678.4" font-family="Arial" font-size="14.00">puleb_code </text>
<text text-anchor="start" x="129.49" y="-678.4" font-family="Arial" font-size="14.00" fill="#666666">[varchar(50)]</text>
<polygon fill="none" stroke="black" points="46.2,-635.4 46.2,-666.2 307.16,-666.2 307.16,-635.4 46.2,-635.4"/>
<text text-anchor="start" x="53.2" y="-647.6" font-family="Arial" font-size="14.00">address </text>
<text text-anchor="start" x="106.9" y="-647.6" font-family="Arial" font-size="14.00" fill="#666666">[varchar(255)]</text>
<polygon fill="none" stroke="black" points="46.2,-604.6 46.2,-635.4 307.16,-635.4 307.16,-604.6 46.2,-604.6"/>
<text text-anchor="start" x="53.2" y="-616.8" font-family="Arial" font-size="14.00">city </text>
<text text-anchor="start" x="78.09" y="-616.8" font-family="Arial" font-size="14.00" fill="#666666">[varchar(100)]</text>
<polygon fill="none" stroke="black" points="46.2,-573.8 46.2,-604.6 307.16,-604.6 307.16,-573.8 46.2,-573.8"/>
<text text-anchor="start" x="53.2" y="-586" font-family="Arial" font-size="14.00">country </text>
<text text-anchor="start" x="103" y="-586" font-family="Arial" font-size="14.00" fill="#666666">[varchar(100)]</text>
<polygon fill="none" stroke="black" points="46.2,-543 46.2,-573.8 307.16,-573.8 307.16,-543 46.2,-543"/>
<text text-anchor="start" x="53.2" y="-555.2" font-family="Arial" font-size="14.00">tenant_id </text>
<text text-anchor="start" x="114.7" y="-555.2" font-family="Arial" font-size="14.00" fill="#666666">[uuid]</text>
<polygon fill="none" stroke="black" points="46.2,-512.2 46.2,-543 307.16,-543 307.16,-512.2 46.2,-512.2"/>
<text text-anchor="start" x="53.2" y="-524.4" font-family="Arial" font-size="14.00">phone </text>
<text text-anchor="start" x="96.02" y="-524.4" font-family="Arial" font-size="14.00" fill="#666666">[varchar(20)]</text>
<polygon fill="none" stroke="black" points="46.2,-481.4 46.2,-512.2 307.16,-512.2 307.16,-481.4 46.2,-481.4"/>
<text text-anchor="start" x="53.2" y="-493.6" font-family="Arial" font-size="14.00">email </text>
<text text-anchor="start" x="90.54" y="-493.6" font-family="Arial" font-size="14.00" fill="#666666">[varchar(100)]</text>
<polygon fill="none" stroke="black" points="46.2,-450.6 46.2,-481.4 307.16,-481.4 307.16,-450.6 46.2,-450.6"/>
<text text-anchor="start" x="53.2" y="-462.8" font-family="Arial" font-size="14.00">regime </text>
<text text-anchor="start" x="99.88" y="-462.8" font-family="Arial" font-size="14.00" fill="#666666">[varchar(20)]</text>
<polygon fill="none" stroke="black" points="46.2,-419.8 46.2,-450.6 307.16,-450.6 307.16,-419.8 46.2,-419.8"/>
<text text-anchor="start" x="53.2" y="-432" font-family="Arial" font-size="14.00">organization </text>
<text text-anchor="start" x="133.37" y="-432" font-family="Arial" font-size="14.00" fill="#666666">[varchar(20)]</text>
<polygon fill="none" stroke="black" stroke-width="3" points="44.7,-418.3 44.7,-826.5 308.66,-826.5 308.66,-418.3 44.7,-418.3"/>
</g>
<!-- public.tenants -->
<g id="node3" class="node">
<title>public.tenants</title>
<polygon fill="#efefef" stroke="none" points="49.03,-258.8 49.03,-294.4 304.32,-294.4 304.32,-258.8 49.03,-258.8"/>
<polygon fill="none" stroke="black" points="49.03,-258.8 49.03,-294.4 304.32,-294.4 304.32,-258.8 49.03,-258.8"/>
<text text-anchor="start" x="64.2" y="-272.2" font-family="Arial Bold" font-size="18.00">public.tenants</text>
<text text-anchor="start" x="164.67" y="-272.2" font-family="Arial" font-size="14.00">    </text>
<text text-anchor="start" x="195.79" y="-272.2" font-family="Arial" font-size="14.00" fill="#666666">[BASE TABLE]</text>
<polygon fill="none" stroke="black" points="49.03,-228 49.03,-258.8 304.32,-258.8 304.32,-228 49.03,-228"/>
<text text-anchor="start" x="56.03" y="-240.2" font-family="Arial" font-size="14.00">id </text>
<text text-anchor="start" x="70.82" y="-240.2" font-family="Arial" font-size="14.00" fill="#666666">[uuid]</text>
<polygon fill="none" stroke="black" points="49.03,-197.2 49.03,-228 304.32,-228 304.32,-197.2 49.03,-197.2"/>
<text text-anchor="start" x="56.03" y="-209.4" font-family="Arial" font-size="14.00">name </text>
<text text-anchor="start" x="94.94" y="-209.4" font-family="Arial" font-size="14.00" fill="#666666">[text]</text>
<polygon fill="none" stroke="black" points="49.03,-166.4 49.03,-197.2 304.32,-197.2 304.32,-166.4 49.03,-166.4"/>
<text text-anchor="start" x="56.03" y="-178.6" font-family="Arial" font-size="14.00">slug </text>
<text text-anchor="start" x="85.61" y="-178.6" font-family="Arial" font-size="14.00" fill="#666666">[text]</text>
<polygon fill="none" stroke="black" points="49.03,-135.6 49.03,-166.4 304.32,-166.4 304.32,-135.6 49.03,-135.6"/>
<text text-anchor="start" x="56.03" y="-147.8" font-family="Arial" font-size="14.00">created_at </text>
<text text-anchor="start" x="126.08" y="-147.8" font-family="Arial" font-size="14.00" fill="#666666">[timestamp with time zone]</text>
<polygon fill="none" stroke="black" points="49.03,-104.8 49.03,-135.6 304.32,-135.6 304.32,-104.8 49.03,-104.8"/>
<text text-anchor="start" x="56.03" y="-117" font-family="Arial" font-size="14.00">email </text>
<text text-anchor="start" x="93.38" y="-117" font-family="Arial" font-size="14.00" fill="#666666">[varchar(255)]</text>
<polygon fill="none" stroke="black" points="49.03,-74 49.03,-104.8 304.32,-104.8 304.32,-74 49.03,-74"/>
<text text-anchor="start" x="56.03" y="-86.2" font-family="Arial" font-size="14.00">electronic_invoicing_enabled </text>
<text text-anchor="start" x="239.72" y="-86.2" font-family="Arial" font-size="14.00" fill="#666666">[boolean]</text>
<polygon fill="none" stroke="black" points="49.03,-43.2 49.03,-74 304.32,-74 304.32,-43.2 49.03,-43.2"/>
<text text-anchor="start" x="56.03" y="-55.4" font-family="Arial" font-size="14.00">permissions_enforcement_mode </text>
<text text-anchor="start" x="263.03" y="-55.4" font-family="Arial" font-size="14.00" fill="#666666">[text]</text>
</g>
<!-- public.legal_info&#45;&gt;public.tenants -->
<g id="edge2" class="edge">
<title>public.legal_info:tenant_id&#45;&gt;public.tenants:id</title>
<path fill="none" stroke="black" d="M318.26,-556.05C377.7,-527.22 371.77,-243.4 305.32,-243.4"/>
<polygon fill="black" stroke="black" points="318.22,-556.05 307.46,-553.94 313.03,-557.27 308.81,-558.25 308.81,-558.25 308.81,-558.25 313.03,-557.27 309.5,-562.71 318.22,-556.05"/>
<text text-anchor="start" x="315.16" y="-568.4" font-family="Arial" font-size="10.00">FOREIGN KEY (tenant_id) REFERENCES tenants(id)</text>
</g>
<!-- public.clusters -->
<g id="node2" class="node">
<title>public.clusters</title>
<polygon fill="#efefef" stroke="none" points="48.68,-1504.8 48.68,-1540.4 304.67,-1540.4 304.67,-1504.8 48.68,-1504.8"/>
<polygon fill="none" stroke="black" points="48.68,-1504.8 48.68,-1540.4 304.67,-1540.4 304.67,-1504.8 48.68,-1504.8"/>
<text text-anchor="start" x="62.2" y="-1518.2" font-family="Arial Bold" font-size="18.00">public.clusters</text>
<text text-anchor="start" x="166.67" y="-1518.2" font-family="Arial" font-size="14.00">    </text>
<text text-anchor="start" x="197.79" y="-1518.2" font-family="Arial" font-size="14.00" fill="#666666">[BASE TABLE]</text>
<polygon fill="none" stroke="black" points="48.68,-1474 48.68,-1504.8 304.67,-1504.8 304.67,-1474 48.68,-1474"/>
<text text-anchor="start" x="55.68" y="-1486.2" font-family="Arial" font-size="14.00">id </text>
<text text-anchor="start" x="70.47" y="-1486.2" font-family="Arial" font-size="14.00" fill="#666666">[integer]</text>
<polygon fill="none" stroke="black" points="48.68,-1443.2 48.68,-1474 304.67,-1474 304.67,-1443.2 48.68,-1443.2"/>
<text text-anchor="start" x="55.68" y="-1455.4" font-family="Arial" font-size="14.00">profile_id </text>
<text text-anchor="start" x="116.39" y="-1455.4" font-family="Arial" font-size="14.00" fill="#666666">[uuid]</text>
<polygon fill="none" stroke="black" points="48.68,-1412.4 48.68,-1443.2 304.67,-1443.2 304.67,-1412.4 48.68,-1412.4"/>
<text text-anchor="start" x="55.68" y="-1424.6" font-family="Arial" font-size="14.00">cluster_name </text>
<text text-anchor="start" x="143.61" y="-1424.6" font-family="Arial" font-size="14.00" fill="#666666">[varchar(255)]</text>
<polygon fill="none" stroke="black" points="48.68,-1381.6 48.68,-1412.4 304.67,-1412.4 304.67,-1381.6 48.68,-1381.6"/>
<text text-anchor="start" x="55.68" y="-1393.8" font-family="Arial" font-size="14.00">description </text>
<text text-anchor="start" x="127.27" y="-1393.8" font-family="Arial" font-size="14.00" fill="#666666">[text]</text>
<polygon fill="none" stroke="black" points="48.68,-1350.8 48.68,-1381.6 304.67,-1381.6 304.67,-1350.8 48.68,-1350.8"/>
<text text-anchor="start" x="55.68" y="-1363" font-family="Arial" font-size="14.00">start_date </text>
<text text-anchor="start" x="121.83" y="-1363" font-family="Arial" font-size="14.00" fill="#666666">[timestamp with time zone]</text>
<polygon fill="none" stroke="black" points="48.68,-1320 48.68,-1350.8 304.67,-1350.8 304.67,-1320 48.68,-1320"/>
<text text-anchor="start" x="55.68" y="-1332.2" font-family="Arial" font-size="14.00">end_date </text>
<text text-anchor="start" x="117.96" y="-1332.2" font-family="Arial" font-size="14.00" fill="#666666">[timestamp with time zone]</text>
<polygon fill="none" stroke="black" points="48.68,-1289.2 48.68,-1320 304.67,-1320 304.67,-1289.2 48.68,-1289.2"/>
<text text-anchor="start" x="55.68" y="-1301.4" font-family="Arial" font-size="14.00">cluster_type </text>
<text text-anchor="start" x="135.05" y="-1301.4" font-family="Arial" font-size="14.00" fill="#666666">[varchar(50)]</text>
<polygon fill="none" stroke="black" points="48.68,-1258.4 48.68,-1289.2 304.67,-1289.2 304.67,-1258.4 48.68,-1258.4"/>
<text text-anchor="start" x="55.68" y="-1270.6" font-family="Arial" font-size="14.00">extra_attributes </text>
<text text-anchor="start" x="156.07" y="-1270.6" font-family="Arial" font-size="14.00" fill="#666666">[jsonb]</text>
<polygon fill="none" stroke="black" points="48.68,-1227.6 48.68,-1258.4 304.67,-1258.4 304.67,-1227.6 48.68,-1227.6"/>
<text text-anchor="start" x="55.68" y="-1239.8" font-family="Arial" font-size="14.00">created_at </text>
<text text-anchor="start" x="125.73" y="-1239.8" font-family="Arial" font-size="14.00" fill="#666666">[timestamp with time zone]</text>
<polygon fill="none" stroke="black" points="48.68,-1196.8 48.68,-1227.6 304.67,-1227.6 304.67,-1196.8 48.68,-1196.8"/>
<text text-anchor="start" x="55.68" y="-1209" font-family="Arial" font-size="14.00">is_active </text>
<text text-anchor="start" x="114.04" y="-1209" font-family="Arial" font-size="14.00" fill="#666666">[boolean]</text>
<polygon fill="none" stroke="black" points="48.68,-1166 48.68,-1196.8 304.67,-1196.8 304.67,-1166 48.68,-1166"/>
<text text-anchor="start" x="55.68" y="-1178.2" font-family="Arial" font-size="14.00">shadowban </text>
<text text-anchor="start" x="131.18" y="-1178.2" font-family="Arial" font-size="14.00" fill="#666666">[boolean]</text>
<polygon fill="none" stroke="black" points="48.68,-1135.2 48.68,-1166 304.67,-1166 304.67,-1135.2 48.68,-1135.2"/>
<text text-anchor="start" x="55.68" y="-1147.4" font-family="Arial" font-size="14.00">slug_cluster </text>
<text text-anchor="start" x="134.27" y="-1147.4" font-family="Arial" font-size="14.00" fill="#666666">[text]</text>
<polygon fill="none" stroke="black" points="48.68,-1104.4 48.68,-1135.2 304.67,-1135.2 304.67,-1104.4 48.68,-1104.4"/>
<text text-anchor="start" x="55.68" y="-1116.6" font-family="Arial" font-size="14.00">legal_info_id </text>
<text text-anchor="start" x="138.19" y="-1116.6" font-family="Arial" font-size="14.00" fill="#666666">[integer]</text>
<polygon fill="none" stroke="black" points="48.68,-1073.6 48.68,-1104.4 304.67,-1104.4 304.67,-1073.6 48.68,-1073.6"/>
<text text-anchor="start" x="55.68" y="-1085.8" font-family="Arial" font-size="14.00">updated_at </text>
<text text-anchor="start" x="129.64" y="-1085.8" font-family="Arial" font-size="14.00" fill="#666666">[timestamp with time zone]</text>
<polygon fill="none" stroke="black" points="48.68,-1042.8 48.68,-1073.6 304.67,-1073.6 304.67,-1042.8 48.68,-1042.8"/>
<text text-anchor="start" x="55.68" y="-1055" font-family="Arial" font-size="14.00">tenant_id </text>
<text text-anchor="start" x="117.18" y="-1055" font-family="Arial" font-size="14.00" fill="#666666">[uuid]</text>
<polygon fill="none" stroke="black" points="48.68,-1012 48.68,-1042.8 304.67,-1042.8 304.67,-1012 48.68,-1012"/>
<text text-anchor="start" x="55.68" y="-1024.2" font-family="Arial" font-size="14.00">environment </text>
<text text-anchor="start" x="136.61" y="-1024.2" font-family="Arial" font-size="14.00" fill="#666666">[varchar(10)]</text>
<polygon fill="none" stroke="black" points="48.68,-981.2 48.68,-1012 304.67,-1012 304.67,-981.2 48.68,-981.2"/>
<text text-anchor="start" x="55.68" y="-993.4" font-family="Arial" font-size="14.00">commission_percentage </text>
<text text-anchor="start" x="211.32" y="-993.4" font-family="Arial" font-size="14.00" fill="#666666">[numeric(5,2)]</text>
<polygon fill="none" stroke="black" points="48.68,-950.4 48.68,-981.2 304.67,-981.2 304.67,-950.4 48.68,-950.4"/>
<text text-anchor="start" x="55.68" y="-962.6" font-family="Arial" font-size="14.00">total_capacity </text>
<text text-anchor="start" x="145.18" y="-962.6" font-family="Arial" font-size="14.00" fill="#666666">[integer]</text>
</g>
<!-- public.clusters&#45;&gt;public.legal_info -->
<g id="edge1" class="edge">
<title>public.clusters:legal_info_id&#45;&gt;public.legal_info:id</title>
<path fill="none" stroke="black" d="M315.58,-1117.77C382.58,-1089.43 381.55,-774 308.16,-774"/>
<polygon fill="black" stroke="black" points="315.8,-1117.72 305.1,-1115.32 310.57,-1118.8 306.33,-1119.67 306.33,-1119.67 306.33,-1119.67 310.57,-1118.8 306.91,-1124.14 315.8,-1117.72"/>
<text text-anchor="start" x="312.67" y="-1129.8" font-family="Arial" font-size="10.00">FOREIGN KEY (legal_info_id) REFERENCES legal_info(id) ON DELETE RESTRICT</text>
</g>
</g>
</svg>
