<?xml version="1.0" encoding="UTF-8" standalone="no"?>
<!DOCTYPE svg PUBLIC "-//W3C//DTD SVG 1.1//EN"
 "http://www.w3.org/Graphics/SVG/1.1/DTD/svg11.dtd">
<!-- Generated by graphviz version 12.1.2 (20240928.0832)
 -->
<!-- Title: public.ingredient_purchase_units Pages: 1 -->
<svg width="830pt" height="1280pt"
 viewBox="0.00 0.00 830.03 1279.60" xmlns="http://www.w3.org/2000/svg" xmlns:xlink="http://www.w3.org/1999/xlink">
<g id="graph0" class="graph" transform="scale(1 1) rotate(0) translate(4 1275.6)">
<title>public.ingredient_purchase_units</title>
<polygon fill="white" stroke="none" points="-4,4 -4,-1275.6 826.03,-1275.6 826.03,4 -4,4"/>
<!-- public.ingredient_purchase_units -->
<g id="node1" class="node">
<title>public.ingredient_purchase_units</title>
<polygon fill="#efefef" stroke="none" points="46.2,-1189.8 46.2,-1225.4 424.13,-1225.4 424.13,-1189.8 46.2,-1189.8"/>
<polygon fill="none" stroke="black" points="46.2,-1189.8 46.2,-1225.4 424.13,-1225.4 424.13,-1189.8 46.2,-1189.8"/>
<text text-anchor="start" x="53.2" y="-1203.2" font-family="Arial Bold" font-size="18.00">public.ingredient_purchase_units</text>
<text text-anchor="start" x="292.64" y="-1203.2" font-family="Arial" font-size="14.00">    </text>
<text text-anchor="start" x="323.76" y="-1203.2" font-family="Arial" font-size="14.00" fill="#666666">[BASE TABLE]</text>
<polygon fill="none" stroke="black" points="46.2,-1159 46.2,-1189.8 424.13,-1189.8 424.13,-1159 46.2,-1159"/>
<text text-anchor="start" x="53.2" y="-1171.2" font-family="Arial" font-size="14.00">id </text>
<text text-anchor="start" x="67.99" y="-1171.2" font-family="Arial" font-size="14.00" fill="#666666">[uuid]</text>
<polygon fill="none" stroke="black" points="46.2,-1128.2 46.2,-1159 424.13,-1159 424.13,-1128.2 46.2,-1128.2"/>
<text text-anchor="start" x="53.2" y="-1140.4" font-family="Arial" font-size="14.00">ingredient_id </text>
<text text-anchor="start" x="137.26" y="-1140.4" font-family="Arial" font-size="14.00" fill="#666666">[uuid]</text>
<polygon fill="none" stroke="black" points="46.2,-1097.4 46.2,-1128.2 424.13,-1128.2 424.13,-1097.4 46.2,-1097.4"/>
<text text-anchor="start" x="53.2" y="-1109.6" font-family="Arial" font-size="14.00">purchase_unit </text>
<text text-anchor="start" x="145.04" y="-1109.6" font-family="Arial" font-size="14.00" fill="#666666">[varchar(50)]</text>
<polygon fill="none" stroke="black" points="46.2,-1066.6 46.2,-1097.4 424.13,-1097.4 424.13,-1066.6 46.2,-1066.6"/>
<text text-anchor="start" x="53.2" y="-1078.8" font-family="Arial" font-size="14.00">purchase_unit_label </text>
<text text-anchor="start" x="182.41" y="-1078.8" font-family="Arial" font-size="14.00" fill="#666666">[varchar(100)]</text>
<polygon fill="none" stroke="black" points="46.2,-1035.8 46.2,-1066.6 424.13,-1066.6 424.13,-1035.8 46.2,-1035.8"/>
<text text-anchor="start" x="53.2" y="-1048" font-family="Arial" font-size="14.00">conversion_factor </text>
<text text-anchor="start" x="167.59" y="-1048" font-family="Arial" font-size="14.00" fill="#666666">[numeric(16,4)]</text>
<polygon fill="none" stroke="black" points="46.2,-1005 46.2,-1035.8 424.13,-1035.8 424.13,-1005 46.2,-1005"/>
<text text-anchor="start" x="53.2" y="-1017.2" font-family="Arial" font-size="14.00">unit_cost </text>
<text text-anchor="start" x="113.12" y="-1017.2" font-family="Arial" font-size="14.00" fill="#666666">[numeric(10,2)]</text>
<polygon fill="none" stroke="black" points="46.2,-974.2 46.2,-1005 424.13,-1005 424.13,-974.2 46.2,-974.2"/>
<text text-anchor="start" x="53.2" y="-986.4" font-family="Arial" font-size="14.00">is_default </text>
<text text-anchor="start" x="117.02" y="-986.4" font-family="Arial" font-size="14.00" fill="#666666">[boolean]</text>
<polygon fill="none" stroke="black" points="46.2,-943.4 46.2,-974.2 424.13,-974.2 424.13,-943.4 46.2,-943.4"/>
<text text-anchor="start" x="53.2" y="-955.6" font-family="Arial" font-size="14.00">is_active </text>
<text text-anchor="start" x="111.56" y="-955.6" font-family="Arial" font-size="14.00" fill="#666666">[boolean]</text>
<polygon fill="none" stroke="black" points="46.2,-912.6 46.2,-943.4 424.13,-943.4 424.13,-912.6 46.2,-912.6"/>
<text text-anchor="start" x="53.2" y="-924.8" font-family="Arial" font-size="14.00">notes </text>
<text text-anchor="start" x="91.34" y="-924.8" font-family="Arial" font-size="14.00" fill="#666666">[text]</text>
<polygon fill="none" stroke="black" points="46.2,-881.8 46.2,-912.6 424.13,-912.6 424.13,-881.8 46.2,-881.8"/>
<text text-anchor="start" x="53.2" y="-894" font-family="Arial" font-size="14.00">created_at </text>
<text text-anchor="start" x="123.25" y="-894" font-family="Arial" font-size="14.00" fill="#666666">[timestamp with time zone]</text>
<polygon fill="none" stroke="black" points="46.2,-851 46.2,-881.8 424.13,-881.8 424.13,-851 46.2,-851"/>
<text text-anchor="start" x="53.2" y="-863.2" font-family="Arial" font-size="14.00">updated_at </text>
<text text-anchor="start" x="127.16" y="-863.2" font-family="Arial" font-size="14.00" fill="#666666">[timestamp with time zone]</text>
<polygon fill="none" stroke="black" stroke-width="3" points="44.7,-849.5 44.7,-1226.9 425.63,-1226.9 425.63,-849.5 44.7,-849.5"/>
</g>
<!-- public.ingredients -->
<g id="node2" class="node">
<title>public.ingredients</title>
<polygon fill="#efefef" stroke="none" points="92.76,-690 92.76,-725.6 377.57,-725.6 377.57,-690 92.76,-690"/>
<polygon fill="none" stroke="black" points="92.76,-690 92.76,-725.6 377.57,-725.6 377.57,-690 92.76,-690"/>
<text text-anchor="start" x="108.18" y="-703.4" font-family="Arial Bold" font-size="18.00">public.ingredients</text>
<text text-anchor="start" x="237.66" y="-703.4" font-family="Arial" font-size="14.00">    </text>
<text text-anchor="start" x="268.77" y="-703.4" font-family="Arial" font-size="14.00" fill="#666666">[BASE TABLE]</text>
<polygon fill="none" stroke="black" points="92.76,-659.2 92.76,-690 377.57,-690 377.57,-659.2 92.76,-659.2"/>
<text text-anchor="start" x="99.76" y="-671.4" font-family="Arial" font-size="14.00">id </text>
<text text-anchor="start" x="114.54" y="-671.4" font-family="Arial" font-size="14.00" fill="#666666">[uuid]</text>
<polygon fill="none" stroke="black" points="92.76,-628.4 92.76,-659.2 377.57,-659.2 377.57,-628.4 92.76,-628.4"/>
<text text-anchor="start" x="99.76" y="-640.6" font-family="Arial" font-size="14.00">name </text>
<text text-anchor="start" x="138.67" y="-640.6" font-family="Arial" font-size="14.00" fill="#666666">[varchar(255)]</text>
<polygon fill="none" stroke="black" points="92.76,-597.6 92.76,-628.4 377.57,-628.4 377.57,-597.6 92.76,-597.6"/>
<text text-anchor="start" x="99.76" y="-609.8" font-family="Arial" font-size="14.00">unit </text>
<text text-anchor="start" x="126.22" y="-609.8" font-family="Arial" font-size="14.00" fill="#666666">[varchar(20)]</text>
<polygon fill="none" stroke="black" points="92.76,-566.8 92.76,-597.6 377.57,-597.6 377.57,-566.8 92.76,-566.8"/>
<text text-anchor="start" x="99.76" y="-579" font-family="Arial" font-size="14.00">created_at </text>
<text text-anchor="start" x="169.81" y="-579" font-family="Arial" font-size="14.00" fill="#666666">[timestamp with time zone]</text>
<polygon fill="none" stroke="black" points="92.76,-536 92.76,-566.8 377.57,-566.8 377.57,-536 92.76,-536"/>
<text text-anchor="start" x="99.76" y="-548.2" font-family="Arial" font-size="14.00">updated_at </text>
<text text-anchor="start" x="173.72" y="-548.2" font-family="Arial" font-size="14.00" fill="#666666">[timestamp with time zone]</text>
<polygon fill="none" stroke="black" points="92.76,-505.2 92.76,-536 377.57,-536 377.57,-505.2 92.76,-505.2"/>
<text text-anchor="start" x="99.76" y="-517.4" font-family="Arial" font-size="14.00">tenant_id </text>
<text text-anchor="start" x="161.25" y="-517.4" font-family="Arial" font-size="14.00" fill="#666666">[uuid]</text>
<polygon fill="none" stroke="black" points="92.76,-474.4 92.76,-505.2 377.57,-505.2 377.57,-474.4 92.76,-474.4"/>
<text text-anchor="start" x="99.76" y="-486.6" font-family="Arial" font-size="14.00">category </text>
<text text-anchor="start" x="157.34" y="-486.6" font-family="Arial" font-size="14.00" fill="#666666">[varchar]</text>
<polygon fill="none" stroke="black" points="92.76,-443.6 92.76,-474.4 377.57,-474.4 377.57,-443.6 92.76,-443.6"/>
<text text-anchor="start" x="99.76" y="-455.8" font-family="Arial" font-size="14.00">description </text>
<text text-anchor="start" x="171.35" y="-455.8" font-family="Arial" font-size="14.00" fill="#666666">[text]</text>
<polygon fill="none" stroke="black" points="92.76,-412.8 92.76,-443.6 377.57,-443.6 377.57,-412.8 92.76,-412.8"/>
<text text-anchor="start" x="99.76" y="-425" font-family="Arial" font-size="14.00">minimum_order_quantity </text>
<text text-anchor="start" x="257.72" y="-425" font-family="Arial" font-size="14.00" fill="#666666">[numeric]</text>
<polygon fill="none" stroke="black" points="92.76,-382 92.76,-412.8 377.57,-412.8 377.57,-382 92.76,-382"/>
<text text-anchor="start" x="99.76" y="-394.2" font-family="Arial" font-size="14.00">controla_inventario </text>
<text text-anchor="start" x="221.94" y="-394.2" font-family="Arial" font-size="14.00" fill="#666666">[boolean]</text>
<polygon fill="none" stroke="black" points="92.76,-351.2 92.76,-382 377.57,-382 377.57,-351.2 92.76,-351.2"/>
<text text-anchor="start" x="99.76" y="-363.4" font-family="Arial" font-size="14.00">costo_unitario </text>
<text text-anchor="start" x="190.81" y="-363.4" font-family="Arial" font-size="14.00" fill="#666666">[numeric(10,2)]</text>
<polygon fill="none" stroke="black" points="92.76,-320.4 92.76,-351.2 377.57,-351.2 377.57,-320.4 92.76,-320.4"/>
<text text-anchor="start" x="99.76" y="-332.6" font-family="Arial" font-size="14.00">metodo_valoracion </text>
<text text-anchor="start" x="221.94" y="-332.6" font-family="Arial" font-size="14.00" fill="#666666">[varchar(20)]</text>
<polygon fill="none" stroke="black" points="92.76,-289.6 92.76,-320.4 377.57,-320.4 377.57,-289.6 92.76,-289.6"/>
<text text-anchor="start" x="99.76" y="-301.8" font-family="Arial" font-size="14.00">permite_vencimiento </text>
<text text-anchor="start" x="232.82" y="-301.8" font-family="Arial" font-size="14.00" fill="#666666">[boolean]</text>
<polygon fill="none" stroke="black" points="92.76,-258.8 92.76,-289.6 377.57,-289.6 377.57,-258.8 92.76,-258.8"/>
<text text-anchor="start" x="99.76" y="-271" font-family="Arial" font-size="14.00">type </text>
<text text-anchor="start" x="130.11" y="-271" font-family="Arial" font-size="14.00" fill="#666666">[varchar(20)]</text>
<polygon fill="none" stroke="black" points="92.76,-228 92.76,-258.8 377.57,-258.8 377.57,-228 92.76,-228"/>
<text text-anchor="start" x="99.76" y="-240.2" font-family="Arial" font-size="14.00">is_resale </text>
<text text-anchor="start" x="159.68" y="-240.2" font-family="Arial" font-size="14.00" fill="#666666">[boolean]</text>
<polygon fill="none" stroke="black" points="92.76,-197.2 92.76,-228 377.57,-228 377.57,-197.2 92.76,-197.2"/>
<text text-anchor="start" x="99.76" y="-209.4" font-family="Arial" font-size="14.00">unit_weight_gr </text>
<text text-anchor="start" x="194.71" y="-209.4" font-family="Arial" font-size="14.00" fill="#666666">[numeric]</text>
<polygon fill="none" stroke="black" points="92.76,-166.4 92.76,-197.2 377.57,-197.2 377.57,-166.4 92.76,-166.4"/>
<text text-anchor="start" x="99.76" y="-178.6" font-family="Arial" font-size="14.00">ai_generated </text>
<text text-anchor="start" x="185.39" y="-178.6" font-family="Arial" font-size="14.00" fill="#666666">[boolean]</text>
<polygon fill="none" stroke="black" points="92.76,-135.6 92.76,-166.4 377.57,-166.4 377.57,-135.6 92.76,-135.6"/>
<text text-anchor="start" x="99.76" y="-147.8" font-family="Arial" font-size="14.00">ai_generated_at </text>
<text text-anchor="start" x="204.85" y="-147.8" font-family="Arial" font-size="14.00" fill="#666666">[timestamp with time zone]</text>
<polygon fill="none" stroke="black" points="92.76,-104.8 92.76,-135.6 377.57,-135.6 377.57,-104.8 92.76,-104.8"/>
<text text-anchor="start" x="99.76" y="-117" font-family="Arial" font-size="14.00">parent_id </text>
<text text-anchor="start" x="162.03" y="-117" font-family="Arial" font-size="14.00" fill="#666666">[uuid]</text>
<polygon fill="none" stroke="black" points="92.76,-74 92.76,-104.8 377.57,-104.8 377.57,-74 92.76,-74"/>
<text text-anchor="start" x="99.76" y="-86.2" font-family="Arial" font-size="14.00">is_active </text>
<text text-anchor="start" x="158.12" y="-86.2" font-family="Arial" font-size="14.00" fill="#666666">[boolean]</text>
<polygon fill="none" stroke="black" points="92.76,-43.2 92.76,-74 377.57,-74 377.57,-43.2 92.76,-43.2"/>
<text text-anchor="start" x="99.76" y="-55.4" font-family="Arial" font-size="14.00">unit_weight_unit </text>
<text text-anchor="start" x="204.83" y="-55.4" font-family="Arial" font-size="14.00" fill="#666666">[varchar(5)]</text>
</g>
<!-- public.ingredient_purchase_units&#45;&gt;public.ingredients -->
<g id="edge1" class="edge">
<title>public.ingredient_purchase_units:ingredient_id&#45;&gt;public.ingredients:id</title>
<path fill="none" stroke="black" d="M435.34,-1141.99C526.61,-1112.09 479.73,-674.6 378.57,-674.6"/>
<polygon fill="black" stroke="black" points="435.34,-1141.99 424.76,-1139.1 430.07,-1142.82 425.79,-1143.5 425.79,-1143.5 425.79,-1143.5 430.07,-1142.82 426.16,-1147.99 435.34,-1141.99"/>
<text text-anchor="start" x="432.13" y="-1153.6" font-family="Arial" font-size="10.00">FOREIGN KEY (ingredient_id) REFERENCES ingredients(id) ON DELETE CASCADE</text>
</g>
</g>
</svg>
