<?xml version="1.0" encoding="UTF-8" standalone="no"?>
<!DOCTYPE svg PUBLIC "-//W3C//DTD SVG 1.1//EN"
 "http://www.w3.org/Graphics/SVG/1.1/DTD/svg11.dtd">
<!-- Generated by graphviz version 12.1.2 (20240928.0832)
 -->
<!-- Title: public.minimum_wage_reference Pages: 1 -->
<svg width="481pt" height="321pt"
 viewBox="0.00 0.00 481.29 320.80" xmlns="http://www.w3.org/2000/svg" xmlns:xlink="http://www.w3.org/1999/xlink">
<g id="graph0" class="graph" transform="scale(1 1) rotate(0) translate(4 316.8)">
<title>public.minimum_wage_reference</title>
<polygon fill="white" stroke="none" points="-4,4 -4,-316.8 477.29,-316.8 477.29,4 -4,4"/>
<!-- public.minimum_wage_reference -->
<g id="node1" class="node">
<title>public.minimum_wage_reference</title>
<polygon fill="#efefef" stroke="none" points="46.2,-231 46.2,-266.6 427.09,-266.6 427.09,-231 46.2,-231"/>
<polygon fill="none" stroke="black" points="46.2,-231 46.2,-266.6 427.09,-266.6 427.09,-231 46.2,-231"/>
<text text-anchor="start" x="53.2" y="-244.4" font-family="Arial Bold" font-size="18.00">public.minimum_wage_reference</text>
<text text-anchor="start" x="295.6" y="-244.4" font-family="Arial" font-size="14.00">    </text>
<text text-anchor="start" x="326.72" y="-244.4" font-family="Arial" font-size="14.00" fill="#666666">[BASE TABLE]</text>
<polygon fill="none" stroke="black" points="46.2,-200.2 46.2,-231 427.09,-231 427.09,-200.2 46.2,-200.2"/>
<text text-anchor="start" x="53.2" y="-212.4" font-family="Arial" font-size="14.00">id </text>
<text text-anchor="start" x="67.99" y="-212.4" font-family="Arial" font-size="14.00" fill="#666666">[uuid]</text>
<polygon fill="none" stroke="black" points="46.2,-169.4 46.2,-200.2 427.09,-200.2 427.09,-169.4 46.2,-169.4"/>
<text text-anchor="start" x="53.2" y="-181.6" font-family="Arial" font-size="14.00">tenant_id </text>
<text text-anchor="start" x="114.7" y="-181.6" font-family="Arial" font-size="14.00" fill="#666666">[uuid]</text>
<polygon fill="none" stroke="black" points="46.2,-138.6 46.2,-169.4 427.09,-169.4 427.09,-138.6 46.2,-138.6"/>
<text text-anchor="start" x="53.2" y="-150.8" font-family="Arial" font-size="14.00">period_month </text>
<text text-anchor="start" x="142.7" y="-150.8" font-family="Arial" font-size="14.00" fill="#666666">[varchar(7)]</text>
<polygon fill="none" stroke="black" points="46.2,-107.8 46.2,-138.6 427.09,-138.6 427.09,-107.8 46.2,-107.8"/>
<text text-anchor="start" x="53.2" y="-120" font-family="Arial" font-size="14.00">minimum_wage_amount </text>
<text text-anchor="start" x="209.61" y="-120" font-family="Arial" font-size="14.00" fill="#666666">[numeric(12,2)]</text>
<polygon fill="none" stroke="black" points="46.2,-77 46.2,-107.8 427.09,-107.8 427.09,-77 46.2,-77"/>
<text text-anchor="start" x="53.2" y="-89.2" font-family="Arial" font-size="14.00">source_system </text>
<text text-anchor="start" x="151.23" y="-89.2" font-family="Arial" font-size="14.00" fill="#666666">[varchar(50)]</text>
<polygon fill="none" stroke="black" points="46.2,-46.2 46.2,-77 427.09,-77 427.09,-46.2 46.2,-46.2"/>
<text text-anchor="start" x="53.2" y="-58.4" font-family="Arial" font-size="14.00">created_at </text>
<text text-anchor="start" x="123.25" y="-58.4" font-family="Arial" font-size="14.00" fill="#666666">[timestamp with time zone]</text>
<polygon fill="none" stroke="black" stroke-width="3" points="44.7,-44.7 44.7,-268.1 428.59,-268.1 428.59,-44.7 44.7,-44.7"/>
</g>
</g>
</svg>
