<?xml version="1.0" encoding="UTF-8" standalone="no"?>
<!DOCTYPE svg PUBLIC "-//W3C//DTD SVG 1.1//EN"
 "http://www.w3.org/Graphics/SVG/1.1/DTD/svg11.dtd">
<!-- Generated by graphviz version 12.1.2 (20240928.0832)
 -->
<!-- Title: public.closing_summary Pages: 1 -->
<svg width="1237pt" height="1376pt"
 viewBox="0.00 0.00 1236.80 1376.00" xmlns="http://www.w3.org/2000/svg" xmlns:xlink="http://www.w3.org/1999/xlink">
<g id="graph0" class="graph" transform="scale(1 1) rotate(0) translate(4 1372)">
<title>public.closing_summary</title>
<polygon fill="white" stroke="none" points="-4,4 -4,-1372 1232.8,-1372 1232.8,4 -4,4"/>
<!-- public.closing_summary -->
<g id="node1" class="node">
<title>public.closing_summary</title>
<polygon fill="#efefef" stroke="none" points="468.51,-943.4 468.51,-979 784.48,-979 784.48,-943.4 468.51,-943.4"/>
<polygon fill="none" stroke="black" points="468.51,-943.4 468.51,-979 784.48,-979 784.48,-943.4 468.51,-943.4"/>
<text text-anchor="start" x="475.51" y="-956.8" font-family="Arial Bold" font-size="18.00">public.closing_summary</text>
<text text-anchor="start" x="652.99" y="-956.8" font-family="Arial" font-size="14.00">    </text>
<text text-anchor="start" x="684.11" y="-956.8" font-family="Arial" font-size="14.00" fill="#666666">[BASE TABLE]</text>
<polygon fill="none" stroke="black" points="468.51,-912.6 468.51,-943.4 784.48,-943.4 784.48,-912.6 468.51,-912.6"/>
<text text-anchor="start" x="475.51" y="-924.8" font-family="Arial" font-size="14.00">id </text>
<text text-anchor="start" x="490.3" y="-924.8" font-family="Arial" font-size="14.00" fill="#666666">[uuid]</text>
<polygon fill="none" stroke="black" points="468.51,-881.8 468.51,-912.6 784.48,-912.6 784.48,-881.8 468.51,-881.8"/>
<text text-anchor="start" x="475.51" y="-894" font-family="Arial" font-size="14.00">accounting_period_id </text>
<text text-anchor="start" x="612.5" y="-894" font-family="Arial" font-size="14.00" fill="#666666">[uuid]</text>
<polygon fill="none" stroke="black" points="468.51,-851 468.51,-881.8 784.48,-881.8 784.48,-851 468.51,-851"/>
<text text-anchor="start" x="475.51" y="-863.2" font-family="Arial" font-size="14.00">tenant_id </text>
<text text-anchor="start" x="537.01" y="-863.2" font-family="Arial" font-size="14.00" fill="#666666">[uuid]</text>
<polygon fill="none" stroke="black" points="468.51,-820.2 468.51,-851 784.48,-851 784.48,-820.2 468.51,-820.2"/>
<text text-anchor="start" x="475.51" y="-832.4" font-family="Arial" font-size="14.00">total_sales </text>
<text text-anchor="start" x="546.33" y="-832.4" font-family="Arial" font-size="14.00" fill="#666666">[numeric(14,2)]</text>
<polygon fill="none" stroke="black" points="468.51,-789.4 468.51,-820.2 784.48,-820.2 784.48,-789.4 468.51,-789.4"/>
<text text-anchor="start" x="475.51" y="-801.6" font-family="Arial" font-size="14.00">items_sold </text>
<text text-anchor="start" x="546.32" y="-801.6" font-family="Arial" font-size="14.00" fill="#666666">[integer]</text>
<polygon fill="none" stroke="black" points="468.51,-758.6 468.51,-789.4 784.48,-789.4 784.48,-758.6 468.51,-758.6"/>
<text text-anchor="start" x="475.51" y="-770.8" font-family="Arial" font-size="14.00">total_cash </text>
<text text-anchor="start" x="543.22" y="-770.8" font-family="Arial" font-size="14.00" fill="#666666">[numeric(14,2)]</text>
<polygon fill="none" stroke="black" points="468.51,-727.8 468.51,-758.6 784.48,-758.6 784.48,-727.8 468.51,-727.8"/>
<text text-anchor="start" x="475.51" y="-740" font-family="Arial" font-size="14.00">total_card </text>
<text text-anchor="start" x="540.88" y="-740" font-family="Arial" font-size="14.00" fill="#666666">[numeric(14,2)]</text>
<polygon fill="none" stroke="black" points="468.51,-697 468.51,-727.8 784.48,-727.8 784.48,-697 468.51,-697"/>
<text text-anchor="start" x="475.51" y="-709.2" font-family="Arial" font-size="14.00">total_digital </text>
<text text-anchor="start" x="550.23" y="-709.2" font-family="Arial" font-size="14.00" fill="#666666">[numeric(14,2)]</text>
<polygon fill="none" stroke="black" points="468.51,-666.2 468.51,-697 784.48,-697 784.48,-666.2 468.51,-666.2"/>
<text text-anchor="start" x="475.51" y="-678.4" font-family="Arial" font-size="14.00">total_credit </text>
<text text-anchor="start" x="547.88" y="-678.4" font-family="Arial" font-size="14.00" fill="#666666">[numeric(14,2)]</text>
<polygon fill="none" stroke="black" points="468.51,-635.4 468.51,-666.2 784.48,-666.2 784.48,-635.4 468.51,-635.4"/>
<text text-anchor="start" x="475.51" y="-647.6" font-family="Arial" font-size="14.00">gastos_efectivo </text>
<text text-anchor="start" x="576.68" y="-647.6" font-family="Arial" font-size="14.00" fill="#666666">[numeric(14,2)]</text>
<polygon fill="none" stroke="black" points="468.51,-604.6 468.51,-635.4 784.48,-635.4 784.48,-604.6 468.51,-604.6"/>
<text text-anchor="start" x="475.51" y="-616.8" font-family="Arial" font-size="14.00">cash_expected </text>
<text text-anchor="start" x="573.58" y="-616.8" font-family="Arial" font-size="14.00" fill="#666666">[numeric(14,2)]</text>
<polygon fill="none" stroke="black" points="468.51,-573.8 468.51,-604.6 784.48,-604.6 784.48,-573.8 468.51,-573.8"/>
<text text-anchor="start" x="475.51" y="-586" font-family="Arial" font-size="14.00">cash_counted </text>
<text text-anchor="start" x="566.58" y="-586" font-family="Arial" font-size="14.00" fill="#666666">[numeric(14,2)]</text>
<polygon fill="none" stroke="black" points="468.51,-543 468.51,-573.8 784.48,-573.8 784.48,-543 468.51,-543"/>
<text text-anchor="start" x="475.51" y="-555.2" font-family="Arial" font-size="14.00">cash_difference </text>
<text text-anchor="start" x="578.24" y="-555.2" font-family="Arial" font-size="14.00" fill="#666666">[numeric(14,2)]</text>
<polygon fill="none" stroke="black" points="468.51,-512.2 468.51,-543 784.48,-543 784.48,-512.2 468.51,-512.2"/>
<text text-anchor="start" x="475.51" y="-524.4" font-family="Arial" font-size="14.00">notes </text>
<text text-anchor="start" x="513.65" y="-524.4" font-family="Arial" font-size="14.00" fill="#666666">[text]</text>
<polygon fill="none" stroke="black" points="468.51,-481.4 468.51,-512.2 784.48,-512.2 784.48,-481.4 468.51,-481.4"/>
<text text-anchor="start" x="475.51" y="-493.6" font-family="Arial" font-size="14.00">created_at </text>
<text text-anchor="start" x="545.56" y="-493.6" font-family="Arial" font-size="14.00" fill="#666666">[timestamp with time zone]</text>
<polygon fill="none" stroke="black" points="468.51,-450.6 468.51,-481.4 784.48,-481.4 784.48,-450.6 468.51,-450.6"/>
<text text-anchor="start" x="475.51" y="-462.8" font-family="Arial" font-size="14.00">payment_breakdown </text>
<text text-anchor="start" x="609.37" y="-462.8" font-family="Arial" font-size="14.00" fill="#666666">[jsonb]</text>
<polygon fill="none" stroke="black" stroke-width="3" points="467.01,-449.1 467.01,-980.5 785.98,-980.5 785.98,-449.1 467.01,-449.1"/>
</g>
<!-- public.accounting_period -->
<g id="node3" class="node">
<title>public.accounting_period</title>
<polygon fill="#efefef" stroke="none" points="269.53,-289.6 269.53,-325.2 591.46,-325.2 591.46,-289.6 269.53,-289.6"/>
<polygon fill="none" stroke="black" points="269.53,-289.6 269.53,-325.2 591.46,-325.2 591.46,-289.6 269.53,-289.6"/>
<text text-anchor="start" x="276.53" y="-303" font-family="Arial Bold" font-size="18.00">public.accounting_period</text>
<text text-anchor="start" x="459.97" y="-303" font-family="Arial" font-size="14.00">    </text>
<text text-anchor="start" x="491.09" y="-303" font-family="Arial" font-size="14.00" fill="#666666">[BASE TABLE]</text>
<polygon fill="none" stroke="black" points="269.53,-258.8 269.53,-289.6 591.46,-289.6 591.46,-258.8 269.53,-258.8"/>
<text text-anchor="start" x="276.53" y="-271" font-family="Arial" font-size="14.00">id </text>
<text text-anchor="start" x="291.31" y="-271" font-family="Arial" font-size="14.00" fill="#666666">[uuid]</text>
<polygon fill="none" stroke="black" points="269.53,-228 269.53,-258.8 591.46,-258.8 591.46,-228 269.53,-228"/>
<text text-anchor="start" x="276.53" y="-240.2" font-family="Arial" font-size="14.00">tenant_id </text>
<text text-anchor="start" x="338.02" y="-240.2" font-family="Arial" font-size="14.00" fill="#666666">[uuid]</text>
<polygon fill="none" stroke="black" points="269.53,-197.2 269.53,-228 591.46,-228 591.46,-197.2 269.53,-197.2"/>
<text text-anchor="start" x="276.53" y="-209.4" font-family="Arial" font-size="14.00">period_start </text>
<text text-anchor="start" x="354.35" y="-209.4" font-family="Arial" font-size="14.00" fill="#666666">[date]</text>
<polygon fill="none" stroke="black" points="269.53,-166.4 269.53,-197.2 591.46,-197.2 591.46,-166.4 269.53,-166.4"/>
<text text-anchor="start" x="276.53" y="-178.6" font-family="Arial" font-size="14.00">period_end </text>
<text text-anchor="start" x="350.48" y="-178.6" font-family="Arial" font-size="14.00" fill="#666666">[date]</text>
<polygon fill="none" stroke="black" points="269.53,-135.6 269.53,-166.4 591.46,-166.4 591.46,-135.6 269.53,-135.6"/>
<text text-anchor="start" x="276.53" y="-147.8" font-family="Arial" font-size="14.00">closed_at </text>
<text text-anchor="start" x="340.35" y="-147.8" font-family="Arial" font-size="14.00" fill="#666666">[timestamp with time zone]</text>
<polygon fill="none" stroke="black" points="269.53,-104.8 269.53,-135.6 591.46,-135.6 591.46,-104.8 269.53,-104.8"/>
<text text-anchor="start" x="276.53" y="-117" font-family="Arial" font-size="14.00">period_start_time </text>
<text text-anchor="start" x="388.58" y="-117" font-family="Arial" font-size="14.00" fill="#666666">[timestamp with time zone]</text>
<polygon fill="none" stroke="black" points="269.53,-74 269.53,-104.8 591.46,-104.8 591.46,-74 269.53,-74"/>
<text text-anchor="start" x="276.53" y="-86.2" font-family="Arial" font-size="14.00">period_end_time </text>
<text text-anchor="start" x="384.71" y="-86.2" font-family="Arial" font-size="14.00" fill="#666666">[timestamp with time zone]</text>
<polygon fill="none" stroke="black" points="269.53,-43.2 269.53,-74 591.46,-74 591.46,-43.2 269.53,-43.2"/>
<text text-anchor="start" x="276.53" y="-55.4" font-family="Arial" font-size="14.00">deleted_at </text>
<text text-anchor="start" x="345.81" y="-55.4" font-family="Arial" font-size="14.00" fill="#666666">[timestamp with time zone]</text>
</g>
<!-- public.closing_summary&#45;&gt;public.accounting_period -->
<g id="edge2" class="edge">
<title>public.closing_summary:accounting_period_id&#45;&gt;public.accounting_period:id</title>
<path fill="none" stroke="black" d="M457.16,-896.95C251.35,-887 339.13,-576.73 468.51,-404.4 502.7,-358.87 557.08,-413.79 591.46,-368.4 616.74,-335.03 634.33,-274.2 592.46,-274.2"/>
<polygon fill="black" stroke="black" points="457.18,-896.95 467.07,-901.69 462.51,-897.08 466.84,-897.18 466.84,-897.18 466.84,-897.18 462.51,-897.08 467.28,-892.69 457.18,-896.95"/>
<text text-anchor="start" x="7" y="-907.2" font-family="Arial" font-size="10.00">FOREIGN KEY (accounting_period_id) REFERENCES accounting_period(id) ON DELETE CASCADE</text>
</g>
<!-- public.tenants -->
<g id="node4" class="node">
<title>public.tenants</title>
<polygon fill="#efefef" stroke="none" points="695.85,-274.2 695.85,-309.8 951.14,-309.8 951.14,-274.2 695.85,-274.2"/>
<polygon fill="none" stroke="black" points="695.85,-274.2 695.85,-309.8 951.14,-309.8 951.14,-274.2 695.85,-274.2"/>
<text text-anchor="start" x="711.01" y="-287.6" font-family="Arial Bold" font-size="18.00">public.tenants</text>
<text text-anchor="start" x="811.49" y="-287.6" font-family="Arial" font-size="14.00">    </text>
<text text-anchor="start" x="842.6" y="-287.6" font-family="Arial" font-size="14.00" fill="#666666">[BASE TABLE]</text>
<polygon fill="none" stroke="black" points="695.85,-243.4 695.85,-274.2 951.14,-274.2 951.14,-243.4 695.85,-243.4"/>
<text text-anchor="start" x="702.85" y="-255.6" font-family="Arial" font-size="14.00">id </text>
<text text-anchor="start" x="717.64" y="-255.6" font-family="Arial" font-size="14.00" fill="#666666">[uuid]</text>
<polygon fill="none" stroke="black" points="695.85,-212.6 695.85,-243.4 951.14,-243.4 951.14,-212.6 695.85,-212.6"/>
<text text-anchor="start" x="702.85" y="-224.8" font-family="Arial" font-size="14.00">name </text>
<text text-anchor="start" x="741.76" y="-224.8" font-family="Arial" font-size="14.00" fill="#666666">[text]</text>
<polygon fill="none" stroke="black" points="695.85,-181.8 695.85,-212.6 951.14,-212.6 951.14,-181.8 695.85,-181.8"/>
<text text-anchor="start" x="702.85" y="-194" font-family="Arial" font-size="14.00">slug </text>
<text text-anchor="start" x="732.42" y="-194" font-family="Arial" font-size="14.00" fill="#666666">[text]</text>
<polygon fill="none" stroke="black" points="695.85,-151 695.85,-181.8 951.14,-181.8 951.14,-151 695.85,-151"/>
<text text-anchor="start" x="702.85" y="-163.2" font-family="Arial" font-size="14.00">created_at </text>
<text text-anchor="start" x="772.9" y="-163.2" font-family="Arial" font-size="14.00" fill="#666666">[timestamp with time zone]</text>
<polygon fill="none" stroke="black" points="695.85,-120.2 695.85,-151 951.14,-151 951.14,-120.2 695.85,-120.2"/>
<text text-anchor="start" x="702.85" y="-132.4" font-family="Arial" font-size="14.00">email </text>
<text text-anchor="start" x="740.19" y="-132.4" font-family="Arial" font-size="14.00" fill="#666666">[varchar(255)]</text>
<polygon fill="none" stroke="black" points="695.85,-89.4 695.85,-120.2 951.14,-120.2 951.14,-89.4 695.85,-89.4"/>
<text text-anchor="start" x="702.85" y="-101.6" font-family="Arial" font-size="14.00">electronic_invoicing_enabled </text>
<text text-anchor="start" x="886.53" y="-101.6" font-family="Arial" font-size="14.00" fill="#666666">[boolean]</text>
<polygon fill="none" stroke="black" points="695.85,-58.6 695.85,-89.4 951.14,-89.4 951.14,-58.6 695.85,-58.6"/>
<text text-anchor="start" x="702.85" y="-70.8" font-family="Arial" font-size="14.00">permissions_enforcement_mode </text>
<text text-anchor="start" x="909.84" y="-70.8" font-family="Arial" font-size="14.00" fill="#666666">[text]</text>
</g>
<!-- public.closing_summary&#45;&gt;public.tenants -->
<g id="edge3" class="edge">
<title>public.closing_summary:tenant_id&#45;&gt;public.tenants:id</title>
<path fill="none" stroke="black" d="M795.74,-866.15C987.27,-856.72 885.41,-579.17 784.48,-404.4 761.71,-364.97 718.79,-392.34 695.85,-353 674.76,-316.83 652.98,-258.8 694.85,-258.8"/>
<polygon fill="black" stroke="black" points="795.81,-866.15 785.7,-861.89 790.48,-866.28 786.15,-866.38 786.15,-866.38 786.15,-866.38 790.48,-866.28 785.92,-870.89 795.81,-866.15"/>
<text text-anchor="start" x="792.48" y="-876.4" font-family="Arial" font-size="10.00">FOREIGN KEY (tenant_id) REFERENCES tenants(id)</text>
</g>
<!-- public.cierre_payment_breakdown -->
<g id="node2" class="node">
<title>public.cierre_payment_breakdown</title>
<polygon fill="#efefef" stroke="none" points="432.05,-1289.2 432.05,-1324.8 820.94,-1324.8 820.94,-1289.2 432.05,-1289.2"/>
<polygon fill="none" stroke="black" points="432.05,-1289.2 432.05,-1324.8 820.94,-1324.8 820.94,-1289.2 432.05,-1289.2"/>
<text text-anchor="start" x="439.05" y="-1302.6" font-family="Arial Bold" font-size="18.00">public.cierre_payment_breakdown</text>
<text text-anchor="start" x="689.45" y="-1302.6" font-family="Arial" font-size="14.00">    </text>
<text text-anchor="start" x="720.57" y="-1302.6" font-family="Arial" font-size="14.00" fill="#666666">[BASE TABLE]</text>
<polygon fill="none" stroke="black" points="432.05,-1258.4 432.05,-1289.2 820.94,-1289.2 820.94,-1258.4 432.05,-1258.4"/>
<text text-anchor="start" x="439.05" y="-1270.6" font-family="Arial" font-size="14.00">id </text>
<text text-anchor="start" x="453.84" y="-1270.6" font-family="Arial" font-size="14.00" fill="#666666">[uuid]</text>
<polygon fill="none" stroke="black" points="432.05,-1227.6 432.05,-1258.4 820.94,-1258.4 820.94,-1227.6 432.05,-1227.6"/>
<text text-anchor="start" x="439.05" y="-1239.8" font-family="Arial" font-size="14.00">cierre_id </text>
<text text-anchor="start" x="496.63" y="-1239.8" font-family="Arial" font-size="14.00" fill="#666666">[uuid]</text>
<polygon fill="none" stroke="black" points="432.05,-1196.8 432.05,-1227.6 820.94,-1227.6 820.94,-1196.8 432.05,-1196.8"/>
<text text-anchor="start" x="439.05" y="-1209" font-family="Arial" font-size="14.00">group_slug </text>
<text text-anchor="start" x="512.21" y="-1209" font-family="Arial" font-size="14.00" fill="#666666">[varchar(50)]</text>
<polygon fill="none" stroke="black" points="432.05,-1166 432.05,-1196.8 820.94,-1196.8 820.94,-1166 432.05,-1166"/>
<text text-anchor="start" x="439.05" y="-1178.2" font-family="Arial" font-size="14.00">method_name </text>
<text text-anchor="start" x="532.44" y="-1178.2" font-family="Arial" font-size="14.00" fill="#666666">[varchar(100)]</text>
<polygon fill="none" stroke="black" points="432.05,-1135.2 432.05,-1166 820.94,-1166 820.94,-1135.2 432.05,-1135.2"/>
<text text-anchor="start" x="439.05" y="-1147.4" font-family="Arial" font-size="14.00">total </text>
<text text-anchor="start" x="469.4" y="-1147.4" font-family="Arial" font-size="14.00" fill="#666666">[numeric(12,2)]</text>
<polygon fill="none" stroke="black" points="432.05,-1104.4 432.05,-1135.2 820.94,-1135.2 820.94,-1104.4 432.05,-1104.4"/>
<text text-anchor="start" x="439.05" y="-1116.6" font-family="Arial" font-size="14.00">created_at </text>
<text text-anchor="start" x="509.1" y="-1116.6" font-family="Arial" font-size="14.00" fill="#666666">[timestamp with time zone]</text>
</g>
<!-- public.cierre_payment_breakdown&#45;&gt;public.closing_summary -->
<g id="edge1" class="edge">
<title>public.cierre_payment_breakdown:cierre_id&#45;&gt;public.closing_summary:id</title>
<path fill="none" stroke="black" d="M832.33,-1242.4C960.95,-1227.21 922.83,-928 785.48,-928"/>
<polygon fill="black" stroke="black" points="832.26,-1242.41 822.01,-1238.49 826.93,-1242.71 822.61,-1242.96 822.61,-1242.96 822.61,-1242.96 826.93,-1242.71 822.53,-1247.47 832.26,-1242.41"/>
<text text-anchor="start" x="828.94" y="-1253" font-family="Arial" font-size="10.00">FOREIGN KEY (cierre_id) REFERENCES closing_summary(id) ON DELETE CASCADE</text>
</g>
</g>
</svg>
