<?xml version="1.0" encoding="UTF-8" standalone="no"?>
<!DOCTYPE svg PUBLIC "-//W3C//DTD SVG 1.1//EN"
 "http://www.w3.org/Graphics/SVG/1.1/DTD/svg11.dtd">
<!-- Generated by graphviz version 12.1.2 (20240928.0832)
 -->
<!-- Title: public.tenant_investments Pages: 1 -->
<svg width="636pt" height="1002pt"
 viewBox="0.00 0.00 636.23 1002.40" xmlns="http://www.w3.org/2000/svg" xmlns:xlink="http://www.w3.org/1999/xlink">
<g id="graph0" class="graph" transform="scale(1 1) rotate(0) translate(4 998.4)">
<title>public.tenant_investments</title>
<polygon fill="white" stroke="none" points="-4,4 -4,-998.4 632.23,-998.4 632.23,4 -4,4"/>
<!-- public.tenant_investments -->
<g id="node1" class="node">
<title>public.tenant_investments</title>
<polygon fill="#efefef" stroke="none" points="46.2,-912.6 46.2,-948.2 373.15,-948.2 373.15,-912.6 46.2,-912.6"/>
<polygon fill="none" stroke="black" points="46.2,-912.6 46.2,-948.2 373.15,-948.2 373.15,-912.6 46.2,-912.6"/>
<text text-anchor="start" x="53.2" y="-926" font-family="Arial Bold" font-size="18.00">public.tenant_investments</text>
<text text-anchor="start" x="241.66" y="-926" font-family="Arial" font-size="14.00">    </text>
<text text-anchor="start" x="272.78" y="-926" font-family="Arial" font-size="14.00" fill="#666666">[BASE TABLE]</text>
<polygon fill="none" stroke="black" points="46.2,-881.8 46.2,-912.6 373.15,-912.6 373.15,-881.8 46.2,-881.8"/>
<text text-anchor="start" x="53.2" y="-894" font-family="Arial" font-size="14.00">id </text>
<text text-anchor="start" x="67.99" y="-894" font-family="Arial" font-size="14.00" fill="#666666">[integer]</text>
<polygon fill="none" stroke="black" points="46.2,-851 46.2,-881.8 373.15,-881.8 373.15,-851 46.2,-851"/>
<text text-anchor="start" x="53.2" y="-863.2" font-family="Arial" font-size="14.00">tenant_id </text>
<text text-anchor="start" x="114.7" y="-863.2" font-family="Arial" font-size="14.00" fill="#666666">[uuid]</text>
<polygon fill="none" stroke="black" points="46.2,-820.2 46.2,-851 373.15,-851 373.15,-820.2 46.2,-820.2"/>
<text text-anchor="start" x="53.2" y="-832.4" font-family="Arial" font-size="14.00">investment_name </text>
<text text-anchor="start" x="167.59" y="-832.4" font-family="Arial" font-size="14.00" fill="#666666">[varchar(255)]</text>
<polygon fill="none" stroke="black" points="46.2,-789.4 46.2,-820.2 373.15,-820.2 373.15,-789.4 46.2,-789.4"/>
<text text-anchor="start" x="53.2" y="-801.6" font-family="Arial" font-size="14.00">initial_investment </text>
<text text-anchor="start" x="164.48" y="-801.6" font-family="Arial" font-size="14.00" fill="#666666">[numeric(12,2)]</text>
<polygon fill="none" stroke="black" points="46.2,-758.6 46.2,-789.4 373.15,-789.4 373.15,-758.6 46.2,-758.6"/>
<text text-anchor="start" x="53.2" y="-770.8" font-family="Arial" font-size="14.00">investment_date </text>
<text text-anchor="start" x="159.82" y="-770.8" font-family="Arial" font-size="14.00" fill="#666666">[date]</text>
<polygon fill="none" stroke="black" points="46.2,-727.8 46.2,-758.6 373.15,-758.6 373.15,-727.8 46.2,-727.8"/>
<text text-anchor="start" x="53.2" y="-740" font-family="Arial" font-size="14.00">expected_duration_months </text>
<text text-anchor="start" x="225.99" y="-740" font-family="Arial" font-size="14.00" fill="#666666">[integer]</text>
<polygon fill="none" stroke="black" points="46.2,-697 46.2,-727.8 373.15,-727.8 373.15,-697 46.2,-697"/>
<text text-anchor="start" x="53.2" y="-709.2" font-family="Arial" font-size="14.00">target_tir_percentage </text>
<text text-anchor="start" x="190.18" y="-709.2" font-family="Arial" font-size="14.00" fill="#666666">[numeric(5,2)]</text>
<polygon fill="none" stroke="black" points="46.2,-666.2 46.2,-697 373.15,-697 373.15,-666.2 46.2,-666.2"/>
<text text-anchor="start" x="53.2" y="-678.4" font-family="Arial" font-size="14.00">status </text>
<text text-anchor="start" x="94.44" y="-678.4" font-family="Arial" font-size="14.00" fill="#666666">[varchar(50)]</text>
<polygon fill="none" stroke="black" points="46.2,-635.4 46.2,-666.2 373.15,-666.2 373.15,-635.4 46.2,-635.4"/>
<text text-anchor="start" x="53.2" y="-647.6" font-family="Arial" font-size="14.00">description </text>
<text text-anchor="start" x="124.79" y="-647.6" font-family="Arial" font-size="14.00" fill="#666666">[text]</text>
<polygon fill="none" stroke="black" points="46.2,-604.6 46.2,-635.4 373.15,-635.4 373.15,-604.6 46.2,-604.6"/>
<text text-anchor="start" x="53.2" y="-616.8" font-family="Arial" font-size="14.00">created_at </text>
<text text-anchor="start" x="123.25" y="-616.8" font-family="Arial" font-size="14.00" fill="#666666">[timestamp without time zone]</text>
<polygon fill="none" stroke="black" points="46.2,-573.8 46.2,-604.6 373.15,-604.6 373.15,-573.8 46.2,-573.8"/>
<text text-anchor="start" x="53.2" y="-586" font-family="Arial" font-size="14.00">updated_at </text>
<text text-anchor="start" x="127.16" y="-586" font-family="Arial" font-size="14.00" fill="#666666">[timestamp without time zone]</text>
<polygon fill="none" stroke="black" points="46.2,-543 46.2,-573.8 373.15,-573.8 373.15,-543 46.2,-543"/>
<text text-anchor="start" x="53.2" y="-555.2" font-family="Arial" font-size="14.00">total_franchise_value </text>
<text text-anchor="start" x="189.4" y="-555.2" font-family="Arial" font-size="14.00" fill="#666666">[numeric(15,2)]</text>
<polygon fill="none" stroke="black" points="46.2,-512.2 46.2,-543 373.15,-543 373.15,-512.2 46.2,-512.2"/>
<text text-anchor="start" x="53.2" y="-524.4" font-family="Arial" font-size="14.00">financing_amount </text>
<text text-anchor="start" x="167.61" y="-524.4" font-family="Arial" font-size="14.00" fill="#666666">[numeric(15,2)]</text>
<polygon fill="none" stroke="black" points="46.2,-481.4 46.2,-512.2 373.15,-512.2 373.15,-481.4 46.2,-481.4"/>
<text text-anchor="start" x="53.2" y="-493.6" font-family="Arial" font-size="14.00">monthly_payment </text>
<text text-anchor="start" x="167.59" y="-493.6" font-family="Arial" font-size="14.00" fill="#666666">[numeric(10,2)]</text>
<polygon fill="none" stroke="black" points="46.2,-450.6 46.2,-481.4 373.15,-481.4 373.15,-450.6 46.2,-450.6"/>
<text text-anchor="start" x="53.2" y="-462.8" font-family="Arial" font-size="14.00">interest_rate </text>
<text text-anchor="start" x="134.91" y="-462.8" font-family="Arial" font-size="14.00" fill="#666666">[numeric(5,4)]</text>
<polygon fill="none" stroke="black" points="46.2,-419.8 46.2,-450.6 373.15,-450.6 373.15,-419.8 46.2,-419.8"/>
<text text-anchor="start" x="53.2" y="-432" font-family="Arial" font-size="14.00">term_months </text>
<text text-anchor="start" x="138.79" y="-432" font-family="Arial" font-size="14.00" fill="#666666">[integer]</text>
<polygon fill="none" stroke="black" stroke-width="3" points="44.7,-418.3 44.7,-949.7 374.65,-949.7 374.65,-418.3 44.7,-418.3"/>
</g>
<!-- public.tenants -->
<g id="node2" class="node">
<title>public.tenants</title>
<polygon fill="#efefef" stroke="none" points="82.03,-258.8 82.03,-294.4 337.32,-294.4 337.32,-258.8 82.03,-258.8"/>
<polygon fill="none" stroke="black" points="82.03,-258.8 82.03,-294.4 337.32,-294.4 337.32,-258.8 82.03,-258.8"/>
<text text-anchor="start" x="97.19" y="-272.2" font-family="Arial Bold" font-size="18.00">public.tenants</text>
<text text-anchor="start" x="197.67" y="-272.2" font-family="Arial" font-size="14.00">    </text>
<text text-anchor="start" x="228.79" y="-272.2" font-family="Arial" font-size="14.00" fill="#666666">[BASE TABLE]</text>
<polygon fill="none" stroke="black" points="82.03,-228 82.03,-258.8 337.32,-258.8 337.32,-228 82.03,-228"/>
<text text-anchor="start" x="89.03" y="-240.2" font-family="Arial" font-size="14.00">id </text>
<text text-anchor="start" x="103.82" y="-240.2" font-family="Arial" font-size="14.00" fill="#666666">[uuid]</text>
<polygon fill="none" stroke="black" points="82.03,-197.2 82.03,-228 337.32,-228 337.32,-197.2 82.03,-197.2"/>
<text text-anchor="start" x="89.03" y="-209.4" font-family="Arial" font-size="14.00">name </text>
<text text-anchor="start" x="127.94" y="-209.4" font-family="Arial" font-size="14.00" fill="#666666">[text]</text>
<polygon fill="none" stroke="black" points="82.03,-166.4 82.03,-197.2 337.32,-197.2 337.32,-166.4 82.03,-166.4"/>
<text text-anchor="start" x="89.03" y="-178.6" font-family="Arial" font-size="14.00">slug </text>
<text text-anchor="start" x="118.6" y="-178.6" font-family="Arial" font-size="14.00" fill="#666666">[text]</text>
<polygon fill="none" stroke="black" points="82.03,-135.6 82.03,-166.4 337.32,-166.4 337.32,-135.6 82.03,-135.6"/>
<text text-anchor="start" x="89.03" y="-147.8" font-family="Arial" font-size="14.00">created_at </text>
<text text-anchor="start" x="159.08" y="-147.8" font-family="Arial" font-size="14.00" fill="#666666">[timestamp with time zone]</text>
<polygon fill="none" stroke="black" points="82.03,-104.8 82.03,-135.6 337.32,-135.6 337.32,-104.8 82.03,-104.8"/>
<text text-anchor="start" x="89.03" y="-117" font-family="Arial" font-size="14.00">email </text>
<text text-anchor="start" x="126.38" y="-117" font-family="Arial" font-size="14.00" fill="#666666">[varchar(255)]</text>
<polygon fill="none" stroke="black" points="82.03,-74 82.03,-104.8 337.32,-104.8 337.32,-74 82.03,-74"/>
<text text-anchor="start" x="89.03" y="-86.2" font-family="Arial" font-size="14.00">electronic_invoicing_enabled </text>
<text text-anchor="start" x="272.71" y="-86.2" font-family="Arial" font-size="14.00" fill="#666666">[boolean]</text>
<polygon fill="none" stroke="black" points="82.03,-43.2 82.03,-74 337.32,-74 337.32,-43.2 82.03,-43.2"/>
<text text-anchor="start" x="89.03" y="-55.4" font-family="Arial" font-size="14.00">permissions_enforcement_mode </text>
<text text-anchor="start" x="296.02" y="-55.4" font-family="Arial" font-size="14.00" fill="#666666">[text]</text>
</g>
<!-- public.tenant_investments&#45;&gt;public.tenants -->
<g id="edge1" class="edge">
<title>public.tenant_investments:tenant_id&#45;&gt;public.tenants:id</title>
<path fill="none" stroke="black" d="M383.57,-862.09C439.91,-807.05 404.27,-243.4 338.32,-243.4"/>
<polygon fill="black" stroke="black" points="383.55,-862.1 372.58,-862.17 378.7,-864.32 374.76,-866.12 374.76,-866.12 374.76,-866.12 378.7,-864.32 376.33,-870.35 383.55,-862.1"/>
<text text-anchor="start" x="381.15" y="-876.4" font-family="Arial" font-size="10.00">FOREIGN KEY (tenant_id) REFERENCES tenants(id)</text>
</g>
</g>
</svg>
